<?xml version="1.0" encoding="utf-8"?>
<!-- Generator: Adobe Illustrator 16.0.0, SVG Export Plug-In . SVG Version: 6.00 Build 0)  -->
<!DOCTYPE svg PUBLIC "-//W3C//DTD SVG 1.1//EN" "http://www.w3.org/Graphics/SVG/1.1/DTD/svg11.dtd">
<svg version="1.1" id="图层_1" xmlns="http://www.w3.org/2000/svg" xmlns:xlink="http://www.w3.org/1999/xlink" x="0px" y="0px"
	 width="724px" height="581px" viewBox="0 0 724 581" enable-background="new 0 0 724 581" xml:space="preserve">
<g>
	<path fill-rule="evenodd" clip-rule="evenodd" fill="#FEF671" d="M371.424,308.598c13.9,0,25.566,18.314,26.154,38.156
		c12.017,7.867,17.196,15.967,18.729,34.986c1.531,19.135-18.967,43.907-42.878,43.907c-24.032,0-43.47-19.842-43.47-44.144
		c0-13.97,6.363-26.298,16.139-34.398c0-0.468,0-0.938,0-1.527C346.098,325.149,357.643,308.598,371.424,308.598L371.424,308.598z"
		/>
	<path fill-rule="evenodd" clip-rule="evenodd" fill="#693D16" d="M370.365,310.358c0.942-5.636,2.709-11.388,5.773-16.318
		c0.941,0,1.65,0.469,2.354,1.175c-3.062,5.046-7.185,11.505-6.946,15.497L370.365,310.358z"/>
	<path fill-rule="evenodd" clip-rule="evenodd" fill="#FEFEFE" stroke="#221815" stroke-width="0.5716" stroke-miterlimit="10" d="
		M353.992,371.173c8.13,0,14.845-6.691,14.845-14.791c0-8.221-6.715-14.912-14.845-14.912c-8.245,0-14.96,6.691-14.96,14.912
		C339.032,364.481,345.747,371.173,353.992,371.173L353.992,371.173z"/>
	<path fill-rule="evenodd" clip-rule="evenodd" d="M360.233,353.914c2.592,0,4.714-2.114,4.714-4.697
		c0-2.579-2.122-4.693-4.714-4.693c-2.591,0-4.711,2.114-4.711,4.693C355.522,351.8,357.643,353.914,360.233,353.914
		L360.233,353.914z"/>
	<path fill-rule="evenodd" clip-rule="evenodd" fill="#FEFEFE" stroke="#221815" stroke-width="0.5716" stroke-miterlimit="10" d="
		M390.272,371.173c8.248,0,14.963-6.691,14.963-14.791c0-8.221-6.715-14.912-14.963-14.912c-8.127,0-14.842,6.691-14.842,14.912
		C375.431,364.481,382.146,371.173,390.272,371.173L390.272,371.173z"/>
	<path fill-rule="evenodd" clip-rule="evenodd" d="M396.516,353.799c2.592,0,4.714-2.114,4.714-4.699
		c0-2.582-2.122-4.693-4.714-4.693c-2.588,0-4.71,2.111-4.71,4.693C391.806,351.685,393.928,353.799,396.516,353.799
		L396.516,353.799z"/>
	<path fill-rule="evenodd" clip-rule="evenodd" fill="#FF0000" d="M341.622,380.917c4.004,0,7.304-1.176,7.304-2.699
		c0-1.529-3.299-2.7-7.304-2.7c-4.123,0-7.303,1.171-7.303,2.7C334.319,379.741,337.5,380.917,341.622,380.917L341.622,380.917z"/>
	<path fill-rule="evenodd" clip-rule="evenodd" fill="#FF0000" d="M403.938,380.917c4.006,0,7.302-1.176,7.302-2.699
		c0-1.529-3.296-2.7-7.302-2.7c-4.123,0-7.423,1.171-7.423,2.7C396.516,379.741,399.815,380.917,403.938,380.917L403.938,380.917z"
		/>
	<path fill-rule="evenodd" clip-rule="evenodd" fill="#FD5656" d="M372.604,393.594c9.19,0,16.609-0.585,16.609-1.523
		c0-0.822-7.419-1.529-16.609-1.529c-9.07,0-16.494,0.707-16.494,1.529C356.111,393.009,363.534,393.594,372.604,393.594
		L372.604,393.594z"/>
	<polygon fill-rule="evenodd" clip-rule="evenodd" fill="#FEFEFE" points="378.73,390.663 380.498,390.778 380.498,393.126 
		378.73,393.126 	"/>
	
		<text transform="matrix(0.9176 0.4033 -0.4047 0.9145 399.4824 323.2881)" fill="#FA6152" font-family="'JXiuYing'" font-size="61.6697">?</text>
	<polygon fill="none" stroke="#FFFFFF" stroke-width="0.5716" stroke-miterlimit="10" points="54.072,573.923 27.685,493.972 
		1.295,414.022 69.385,364.365 137.591,314.584 206.035,363.774 274.593,412.968 248.795,493.155 222.996,573.338 138.535,573.689 	
		"/>
	<path fill="#FFFFFF" d="M63.142,437.149v-26.765h4.947l0,0v26.533l-4.947,3.755h-5.183v-3.523H63.142z M38.286,420.012h15.903
		v9.391l-4.241,3.877h-4.476v-3.64h3.534v-5.873h-5.654v13.383H54.66l-1.648,3.523H38.286V420.012z M37.58,418.366l5.418-7.63h6.833
		l5.183,7.63h-5.537l-2.945-4.46l-3.299,4.46H37.58z M61.022,412.382v18.783l-4.947,3.053v-21.836H61.022z M75.629,436.564h8.246
		v-26.413h5.066v26.413h2.238v-26.413h5.064v26.413h9.661l-2.121,3.875H75.629V436.564z M104.372,411.56l-2.709,20.781H96.95
		l2.946-20.781H104.372z M75.747,411.56h4.476l2.945,20.781h-4.712L75.747,411.56z M130.995,435.04l-9.778,5.753h-9.423v-3.173
		h6.008l7.185-4.109h-13.193v-3.169h16.844v-8.806h5.183v8.806h8.718l-1.53,3.169h-5.065l6.479,7.045h-6.125L130.995,435.04z
		 M123.927,416.374v-1.761h-12.133v-3.17h12.133v-1.292h5.418v1.292h13.194l-1.294,3.17h-11.899v1.761h7.304l0,0h5.183v8.686
		l-5.183,2.229v-7.746h-24.855v-3.168H123.927z M119.804,420.834l5.3,3.523h-5.654l-5.301-3.523H119.804z M119.569,424.826
		l5.418,3.522h-5.654l-5.301-3.522H119.569z M154.908,419.19l-6.243-0.117v-3.992h11.546v4.814l-6.715,19.368h-5.538L154.908,419.19
		z M160.917,410.268h5.419v25.711l-5.419,4.577h-4.004v-4.108h4.004V410.268z M171.047,412.968h5.89l-3.533,6.574h-5.891
		L171.047,412.968z M172.696,422.475l6.126,16.674h-5.891l-6.125-16.674H172.696z M203.207,428.349h12.133l-1.532,3.285h-10.601
		v7.278l-5.183,2.229v-9.508h-12.251v-3.285h12.251v-1.175h-11.544V410.97l0,0h5.066l0,0h18.022l0,0h5.185l0,0l0,0v12.681
		l-5.301,3.523h-6.245V428.349z M198.023,414.375h-6.478v3.169h6.478V414.375z M191.545,423.767h6.478v-2.933h-6.478V423.767z
		 M209.568,414.375h-6.361v3.169h5.89l-1.414,3.29h-4.476v2.933h6.361V414.375z M197.082,432.809l-5.536,7.864h-6.126l5.536-7.864
		H197.082z M204.032,432.456h6.125l5.655,7.983h-6.125L204.032,432.456z M67.853,486.226l-6.831,5.869l7.302,6.223h-7.066
		l-3.77-3.17l-4.006,3.406h-7.185l7.54-6.459l-4.95-4.224h7.188l1.293,1.171l3.299-2.816H48.652v-3.405h19.201V486.226
		L67.853,486.226L67.853,486.226L67.853,486.226z M39.818,487.4h5.183v9.625l-5.302,2.114L39.818,487.4z M66.557,482.233h-5.299
		v-9.98h-7.304v7.751l-5.301,2.229v-13.499H66.44v9.978h1.768L66.557,482.233z M42.173,468.261c0.471,0,0.943,0.237,1.531,0.474
		c0.472,0.233,0.826,0.585,1.18,1.172c0.235,0.469,0.352,0.939,0.352,1.527c0,0.587-0.117,1.056-0.352,1.642
		c-0.238,0.47-0.708,0.823-1.18,1.06c-0.471,0.349-1.061,0.469-1.531,0.469c-0.588,0-1.059-0.12-1.649-0.469
		c-0.471-0.236-0.825-0.59-1.06-1.06c-0.353-0.586-0.471-1.055-0.471-1.642c0-0.588,0.119-1.059,0.471-1.527
		c0.235-0.587,0.589-0.938,1.179-1.172C41.114,468.498,41.585,468.261,42.173,468.261L42.173,468.261z M42.173,477.773
		c0.471,0,1.06,0.116,1.531,0.469c0.59,0.233,0.942,0.587,1.297,1.175c0.235,0.471,0.354,1.056,0.354,1.526
		c0,0.585-0.119,1.175-0.354,1.644c-0.354,0.471-0.707,0.938-1.178,1.173c-0.471,0.352-1.061,0.468-1.65,0.468
		c-0.588,0-1.059-0.231-1.53-0.468c-0.473-0.234-0.944-0.702-1.179-1.173c-0.353-0.469-0.471-1.059-0.471-1.528
		c0-0.586,0.119-1.171,0.471-1.642c0.235-0.468,0.706-0.941,1.179-1.175C41.231,478.005,41.702,477.773,42.173,477.773
		L42.173,477.773z M77.16,482.587h-2.709l4.712-8.573h-4.125v-3.519h6.008l1.415-2.351h6.008l-1.416,2.351h18.377l-1.766,3.519
		H85.052l-1.413,2.468h20.733v17.961l-5.42,3.991h-9.423v-3.522h9.423v-14.792H82.579v2.701h15.902l-1.648,3.521H82.579v2.937
		h15.667l-1.884,3.523H82.579v4.345l-5.418,1.993V482.587z M132.173,444.784l-9.895,19.137h1.767l3.77-7.045h10.366l-13.665,25.944
		h11.543l-3.532,7.514h-19.085v-7.161l7.069-12.207h-7.304v-8.928l8.364-17.254H132.173z M135.824,495.617l-3.532,7.277h-18.966
		v-7.277H135.824z M161.033,460.282l10.367,11.269h-11.309l-5.301-5.399l-5.535,5.399h-12.252l19.202-19.02h-17.435v-6.809h30.863
		v5.753L161.033,460.282z M171.166,476.013l-3.299,6.808h-8.245v13.503h12.016l-3.182,6.808h-31.216v-6.808h12.016V482.82h-11.193
		v-6.808H171.166z M243.729,458.87h-10.601l-7.068-8.1l-7.187,8.1h-10.955l11.78-13.616h12.839L243.729,458.87z M209.686,503.484
		v-6.813h33.101l-2.827,6.813H209.686z M210.04,473.196h8.128l2.473,20.427h-8.246L210.04,473.196z M209.686,470.144v-6.93h33.336
		l-2.944,6.93H209.686z M184.595,485.757h14.017l-2.59,7.045h-11.426V485.757z M196.963,473.545v-21.246h-12.251v-6.93h20.615
		v28.176h2.237v23.248l-8.127,6.923H188.6v-7.044h10.482v-16.199h-14.135v-24.419h8.247v17.491H196.963z M220.641,473.196h8.128
		l2.474,20.427h-8.247L220.641,473.196z M234.305,473.196h7.892l-2.237,20.427h-7.892L234.305,473.196z"/>
	<polygon fill="none" stroke="#FFFFFF" stroke-width="0.5716" stroke-miterlimit="10" points="251.976,147.405 278.717,73.796 
		305.575,0.185 384.032,2.885 462.485,5.585 484.279,80.839 505.952,156.094 440.813,199.883 375.783,243.677 313.822,195.541 	"/>
	<path fill="#FFFFFF" d="M303.808,90.583l-5.183,5.871h-13.43v-3.522h10.13l2.709-3.171h-12.839v-3.52h16.021V73.444h5.301v12.797
		h7.54l-1.648,3.52h-3.183l4.476,6.575h-5.888L303.808,90.583z M284.96,74.852v-6.926h11.073c0.118-0.235,0.354-0.588,0.825-0.939
		c0.354-0.469,0.942-0.705,1.767-0.705s1.532,0.117,2.119,0.235c0.59,0.234,0.945,0.585,1.18,0.82l0.352,0.588h11.191v4.813
		l-5.183,2.113v-3.404h-18.141v1.173L284.96,74.852z M293.678,74.735l3.887,4.812h-5.654l-3.77-4.812H293.678z M292.971,80.019
		l3.888,4.812h-5.655l-3.769-4.812H292.971z M345.863,73.562l3.652,21.483h-4.241l-3.889-21.483h-0.587v17.256h3.179l-1.295,3.641
		h-1.884v0.351l-4.831,2.114v-2.465h-2.944v-3.641h2.944V73.562h-0.59l-3.531,21.483h-4.241l3.179-21.483h-2.709V69.57h7.892v-2.818
		h4.831v2.818h8.833l-1.414,3.992H345.863z M323.245,66.752h5.303l-1.532,4.343v23.129l-5.066,2.23V77.436h-2.119L323.245,66.752z
		 M363.414,82.6h6.126v-9.744h5.418v2.349h10.604l-1.53,3.404h-9.074V82.6h10.604v10.332l-4.477,3.404h-17.672V82.6z
		 M368.127,92.932h12.722l-0.117-6.926h-12.604V92.932z M362,71.801v22.774l-5.063,2.23V68.16h11.777
		c0.122-0.234,0.355-0.585,0.709-1.057c0.354-0.47,0.941-0.704,1.884-0.704c0.941,0,1.65,0.118,2.122,0.353
		c0.47,0.235,0.941,0.704,1.412,1.408h10.954l-1.647,3.641H362z M399.699,68.395l5.89,0.118l-1.768,3.757h-4.947l-1.179,7.161h1.059
		v-5.399h4.83v5.399h2.359l-1.651,3.639h-0.708v4.461h2.71l-1.53,3.641h-1.18v3.757l-4.83,2.112v-5.869h-5.651v-3.641h5.651V83.07
		h-5.534v-3.286l1.295-7.514h-1.412v-3.875h2.12l0.234-1.408h4.476L399.699,68.395z M406.294,68.395h4.126l0.47-1.526h5.535
		l-0.587,1.526h6.36l-1.65,3.875h-5.535l-1.297,3.992h8.482l-1.768,3.874h-7.54l-1.059,3.168h9.541v4.933l-4.593,4.812l2.472,2.935
		h-6.244l-5.889-7.161h5.654l0.825,0.938l2.709-3.05h-10.014v-3.288l1.062-3.288h-1.062v-3.874h2.121l1.18-3.992h-3.301V68.395z
		 M440.69,85.653v-1.526h5.42v1.526h11.782l-1.65,3.287H446.11v3.874h12.253l-1.534,3.288h-28.154v-3.288h12.016V88.94H429.5v-3.287
		H440.69z M439.865,77.436h-3.768v4.107l-4.829,2.233v-6.34h-2.355v-3.288h2.355v-3.522h-2.473v-3.287h18.14l-1.884,3.287h-0.355
		v3.522h2.006l-1.65,3.288h-0.355v4.226l-4.831,2.23V77.436z M439.865,70.625h-3.768v3.522h3.768V70.625z M447.172,67.221h4.71
		v8.922l-4.71,2.114V67.221z M452.59,66.987h4.831v12.209l-3.534,4.107h-6.01v-3.403h4.713V66.987z M313.351,137.661l-6.715,5.638
		l7.187,6.103h-6.95l-3.771-3.053l-3.886,3.288h-6.953l7.423-6.337l-4.83-4.11h6.95l1.295,1.172l3.181-2.7h-11.781v-3.403h18.85
		v3.286l0,0V137.661L313.351,137.661z M285.784,138.718h5.185v9.511l-5.185,1.996V138.718z M312.173,133.669h-5.301v-9.861h-7.187
		v7.63l-5.185,2.231v-13.149h17.434v9.746h1.767L312.173,133.669z M288.141,120.052c0.47,0,1.061,0.117,1.532,0.35
		c0.47,0.237,0.825,0.588,1.177,1.175c0.235,0.47,0.354,0.939,0.354,1.527c0,0.585-0.118,1.056-0.354,1.524
		c-0.352,0.472-0.707,0.822-1.177,1.176c-0.472,0.235-0.942,0.352-1.532,0.352c-0.472,0-1.062-0.117-1.532-0.352
		c-0.472-0.354-0.825-0.704-1.177-1.176c-0.236-0.468-0.355-0.938-0.355-1.524c0-0.588,0.119-1.057,0.355-1.527
		c0.352-0.468,0.706-0.938,1.177-1.175C287.08,120.169,287.669,120.052,288.141,120.052L288.141,120.052z M288.26,129.328
		c0.472,0,0.942,0.115,1.414,0.35c0.587,0.354,0.942,0.704,1.177,1.176c0.354,0.47,0.47,1.055,0.47,1.642
		c0,0.47-0.117,1.057-0.47,1.527c-0.235,0.469-0.59,0.82-1.06,1.174c-0.472,0.233-1.059,0.352-1.53,0.352
		c-0.59,0-1.18-0.119-1.65-0.352c-0.472-0.354-0.825-0.705-1.061-1.174c-0.353-0.47-0.472-1.057-0.472-1.527
		c0-0.587,0.119-1.172,0.472-1.642c0.235-0.472,0.589-0.822,1.179-1.057C287.199,129.443,287.669,129.328,288.26,129.328
		L288.26,129.328z M322.54,134.023h-2.709l4.593-8.337h-4.006v-3.521h5.891l1.297-2.348h5.888l-1.295,2.348h18.024l-1.767,3.521
		h-18.261l-1.295,2.35h20.261v17.609l-5.301,3.875h-9.304v-3.405h9.304v-14.558H327.84v2.701h15.549l-1.648,3.403h-13.9v2.818
		h15.313l-1.884,3.523H327.84v4.227l-5.421,1.996L322.54,134.023z M389.801,115.707v-4.226h-8.48v-6.457h8.48v-4.227h9.662v4.227
		h10.836l-3.18,6.457h-7.656v4.226h9.894v6.576l-9.541,15.378l11.425,15.85h-11.19l-5.418-7.631l-4.71,7.513h-10.958l10.016-15.732
		l-8.01-11.74h10.719l2.473,3.521l4.713-7.16H381.32v-6.576H389.801z M375.667,117.468h5.064l-5.064,9.041v20.545l-7.894,6.928
		h-8.127v-6.341h6.83v-8.333h-8.834l8.834-15.263v-11.859h-7.537v-6.457h7.537v-4.695h9.19v4.695h4.476l-2.945,6.457h-1.53V117.468z
		 M444.463,110.895v-10.683h9.069v10.683h21.439l-3.179,6.926h-18.261v33.224l-9.069,3.875v-37.099h-21.91v-6.926H444.463z
		 M441.399,119.934l-9.306,30.995h-9.896l9.307-30.995H441.399z M466.02,119.934l9.661,30.995h-9.777l-9.661-30.995H466.02z
		 M466.02,99.271c0.825,0.118,1.768,0.353,2.709,0.823c0.825,0.469,1.53,1.057,2.122,1.996c0.471,0.822,0.825,1.761,0.825,2.818
		c0,0.939-0.238,1.877-0.825,2.7c-0.472,0.939-1.18,1.527-2.005,1.996c-0.942,0.585-1.884,0.822-2.826,0.822
		c-1.059,0-2.005-0.236-2.947-0.706c-0.82-0.585-1.528-1.173-2.117-2.112c-0.47-0.823-0.708-1.761-0.708-2.7
		c0-1.057,0.238-1.996,0.708-2.818c0.589-0.938,1.297-1.526,2.239-2.114C464.136,99.506,464.961,99.271,466.02,99.271L466.02,99.271
		z"/>
	<polygon fill="none" stroke="#FFFFFF" stroke-width="0.5716" stroke-miterlimit="10" points="444.818,401.931 517.382,355.322 
		589.945,308.598 656.856,362.953 723.769,417.313 692.668,497.615 661.449,577.798 575.219,573.104 489.11,568.29 466.962,485.172 
			"/>
	<path fill="#FFFFFF" d="M503.835,420.129l14.726,10.8h-11.194l-9.07-6.693l-9.186,6.693h-11.546l14.96-10.917l-12.25-9.042h11.074
		l6.714,4.934l7.303-5.282h11.428L503.835,420.129z M479.095,398.646v-4.931h14.725c0.117-0.354,0.355-0.707,0.589-1.176
		c0.236-0.354,0.708-0.823,1.417-1.175c0.703-0.471,1.412-0.587,2.237-0.587c0.821,0,1.646,0.116,2.355,0.587
		c0.703,0.468,1.295,0.938,1.528,1.526l0.355,0.824h16.259l-1.768,4.931H479.095z M502.418,400.756h8.952l6.245,7.635h-8.599
		L502.418,400.756z M494.175,400.756l-6.481,7.515h-8.482l6.481-7.515H494.175z M557.314,408.739l-1.176-4.108h6.243l2.709,9.043
		h-6.364l-0.82-3.76l-1.65,3.521h-16.375v-4.343l5.654-10.331h-6.126v-4.697h8.835c0-0.471,0.354-1.173,0.825-1.994
		c0.472-0.822,1.413-1.292,3.063-1.292c1.531,0,2.59,0.47,3.06,1.292c0.475,0.707,0.709,1.175,0.709,1.292l0.116,0.702h9.308
		l-2.001,4.697h-10.016l-5.651,9.978H557.314z M557.906,415.783h6.477v9.981h2.239l-1.884,4.577h-6.832V415.783z M548.952,415.903
		h6.479v12.678l-6.479,2.816V415.903z M531.99,404.516c0.587,0,1.176,0.231,1.884,0.585c0.587,0.354,1.059,0.822,1.412,1.407
		c0.354,0.59,0.589,1.292,0.589,1.999c0,0.705-0.234,1.291-0.589,1.993c-0.354,0.59-0.825,1.06-1.412,1.412
		c-0.592,0.349-1.181,0.47-1.884,0.47c-0.709,0.117-1.417-0.121-2.006-0.47c-0.587-0.353-1.059-0.822-1.412-1.412
		c-0.354-0.702-0.472-1.288-0.472-1.993c0-0.707,0.117-1.409,0.472-1.999c0.354-0.585,0.825-1.171,1.529-1.407
		C530.693,404.747,531.281,404.516,531.99,404.516L531.99,404.516z M531.99,392.07c0.587,0,1.176,0.116,1.763,0.47
		c0.708,0.352,1.18,0.822,1.533,1.524c0.354,0.59,0.472,1.176,0.589,1.881c0,0.702-0.234,1.408-0.589,1.994
		c-0.354,0.585-0.825,1.059-1.412,1.409c-0.592,0.352-1.181,0.468-1.884,0.468c-0.709,0-1.417-0.116-2.006-0.468
		c-0.587-0.351-1.059-0.824-1.412-1.409c-0.354-0.586-0.472-1.292-0.472-1.994c0-0.705,0.234-1.291,0.472-1.998
		c0.354-0.585,0.942-1.056,1.529-1.407C530.693,392.304,531.281,392.07,531.99,392.07L531.99,392.07z M539.996,416.021h6.48v12.443
		l-6.359,2.816L539.996,416.021z M528.807,416.723h6.479v11.975l-6.597,2.7L528.807,416.723z M501.713,453.587l-0.941-3.287h4.831
		l2.117,7.161h-4.831l-0.82-2.933l-1.534,2.933H487.46v-3.169l3.179-6.928h-3.296v-3.872l20.26,0.116l-1.767,3.756h-9.661
		l-3.059,6.223H501.713z M487.343,438.795v-3.755h20.023l-1.647,3.755H487.343z M485.104,444.548v13.62l4.709,2.463h17.906
		l-1.646,3.639H487.46l-2.355-1.407l-4.946,2.351V448.07h-2.006v-3.522H485.104z M482.512,434.57c0.472,0,0.942,0.116,1.53,0.35
		c0.471,0.237,0.825,0.705,1.179,1.176c0.233,0.469,0.355,1.054,0.355,1.524c0,0.59-0.122,1.175-0.355,1.644
		c-0.354,0.47-0.708,0.823-1.179,1.061c-0.472,0.349-1.059,0.469-1.53,0.469c-0.587,0-1.179-0.12-1.65-0.354
		c-0.47-0.353-0.825-0.706-1.175-1.176c-0.237-0.469-0.354-1.054-0.354-1.644c0-0.471,0.116-1.056,0.47-1.524
		c0.233-0.471,0.705-0.938,1.176-1.176C481.45,434.687,481.925,434.57,482.512,434.57L482.512,434.57z M514.435,441.848h28.863
		v3.875l-5.42,0.939v-1.529h-18.025v0.59l-5.418,0.939V441.848z M514.788,456.291h28.154v4.46l-5.064,3.401h-23.09V456.291z
		 M520.207,461.336h17.317l0.117-2.229h-17.435V461.336z M515.26,447.016h27.213v4.34l-4.714,3.523H515.26V447.016z
		 M520.561,451.945h16.492l0.117-2.114h-16.609V451.945z M521.857,439.5v0.824l-5.064,1.17V439.5h-2.358v-3.289h2.358v-1.407h5.064
		v1.407h13.9v-1.407h5.064v1.407h3.301l-1.65,3.289h-1.65l0.12,0.824l-5.185,1.17V439.5H521.857z M560.023,434.45l-5.064,9.744
		h0.942l1.884-3.639h5.301l-7.068,13.384l5.89-0.116l-1.764,3.875h-9.777l0.116-3.644l3.534-6.221h-3.65v-4.579l4.239-8.805H560.023
		z M561.791,460.397l-1.768,3.755h-9.657v-3.755H561.791z M574.632,442.316l5.418,5.869h-5.772l-2.709-2.816l-2.826,2.816h-6.243
		l9.777-9.744h-8.952v-3.521h15.784v2.937L574.632,442.316z M579.934,450.417l-1.768,3.522h-4.123v6.812h6.124l-1.646,3.519h-16.022
		v-3.519h6.243v-6.812h-5.773v-3.522H579.934z M616.924,441.611h-5.423l-3.651-4.108l-3.65,4.108h-5.535l6.007-6.925h6.479
		L616.924,441.611z M599.489,464.39v-3.405h16.964l-1.417,3.405H599.489z M599.723,449.01h4.123l1.295,10.329h-4.239L599.723,449.01
		z M599.606,447.364v-3.519h16.964l-1.534,3.519H599.606z M586.765,455.348h7.186l-1.412,3.643h-5.773V455.348z M593.008,449.125
		v-10.8h-6.243v-3.639h10.603v14.438h1.059v11.859l-4.121,3.521h-5.536v-3.521h5.42v-8.337h-7.307v-12.445h4.242v8.923H593.008z
		 M605.141,449.01h4.123l1.295,10.329h-4.237L605.141,449.01z M612.093,449.01h4.006l-1.063,10.329h-4.122L612.093,449.01z
		 M517.265,499.963l-8.953,7.63l9.657,8.099h-9.308l-4.946-4.107l-5.181,4.461h-9.424l9.894-8.452l-6.479-5.516h9.306l1.885,1.524
		l4.243-3.639h-15.789v-4.579h25.213v4.462l0,0v0.117H517.265z M480.508,501.37h6.835v12.797l-6.835,2.585V501.37z M515.731,494.563
		h-6.948v-13.034h-9.662v10.215l-6.952,2.936v-17.728h23.329v13.029h2.237L515.731,494.563z M483.688,476.364
		c0.592,0,1.297,0.233,2.005,0.587c0.587,0.352,1.179,0.822,1.529,1.524c0.354,0.59,0.472,1.292,0.472,1.997
		c0,0.822-0.117,1.524-0.472,2.114c-0.351,0.586-0.942,1.173-1.529,1.524c-0.708,0.354-1.297,0.47-2.005,0.47
		c-0.82,0-1.412-0.116-2.117-0.47c-0.709-0.352-1.179-0.938-1.534-1.524c-0.35-0.59-0.47-1.292-0.47-2.114
		c0-0.705,0.12-1.407,0.47-1.997c0.355-0.702,0.942-1.173,1.534-1.524C482.275,476.598,482.983,476.364,483.688,476.364
		L483.688,476.364z M483.688,488.81c0.708,0,1.297,0.232,2.005,0.585c0.709,0.354,1.296,0.822,1.65,1.529
		c0.351,0.702,0.587,1.407,0.587,2.109c0,0.707-0.236,1.409-0.587,2.114c-0.354,0.587-0.941,1.176-1.533,1.524
		c-0.705,0.354-1.414,0.59-2.122,0.59c-0.704,0-1.412-0.236-2.117-0.59c-0.592-0.349-1.063-0.938-1.534-1.524
		c-0.35-0.705-0.47-1.291-0.47-2.114c0-0.702,0.12-1.407,0.47-2.109c0.472-0.59,0.942-1.176,1.65-1.529
		C482.396,489.042,482.983,488.81,483.688,488.81L483.688,488.81z M529.632,495.147h-3.536l6.128-11.269h-5.42v-4.581h7.896
		l1.767-3.17h7.891l-1.767,3.17h24.148l-2.355,4.581h-24.387l-1.885,3.285h27.214v23.481l-7.068,5.282h-12.488v-4.58h12.488v-19.485
		h-21.558v3.639h20.852l-2.236,4.577h-18.615v3.76h20.615l-2.592,4.577h-18.023v5.752l-7.185,2.7L529.632,495.147z M576.633,469.204
		h47.122v43.556l-4.831,5.046h-5.772v-5.753h2.477v-36.979h-30.985v42.731h-8.01V469.204z M587.474,516.752v-28.179h25.091v22.305
		l-7.068,5.752L587.474,516.752z M595.483,511.114h9.07v-17.021h-9.07V511.114z M586.293,479.065h28.271l-2.472,5.631h-25.8V479.065
		z M672.523,487.987h-18.963v-6.459h32.51l-2.356,6.459h-2.237v23.127l-9.07,6.691h-12.841v-6.458h12.958V487.987z M644.486,480.71
		H635.3l9.187-12.681h9.424L644.486,480.71z M635.888,496.086l7.186-14.438h8.365l-2.709,6.223v27.118l-8.603,3.872v-22.775H635.888
		z M654.147,475.542v-6.574h31.217l-2.945,6.574H654.147z"/>
	
		<line fill="none" stroke="#FFFFFF" stroke-width="0.5716" stroke-miterlimit="10" x1="171.872" y1="339.239" x2="295.445" y2="181.217"/>
	
		<line fill="none" stroke="#FFFFFF" stroke-width="0.5716" stroke-miterlimit="10" x1="454.829" y1="190.375" x2="541.414" y2="339.824"/>
	
		<line fill="none" stroke="#FFFFFF" stroke-width="0.5716" stroke-miterlimit="10" x1="475.21" y1="516.281" x2="242.434" y2="516.281"/>
	
		<line fill="none" stroke="#FFFFFF" stroke-width="0.5716" stroke-miterlimit="10" x1="186.007" y1="349.922" x2="309.581" y2="192.018"/>
	
		<line fill="none" stroke="#FFFFFF" stroke-width="0.5716" stroke-miterlimit="10" x1="439.749" y1="202.467" x2="526.217" y2="351.8"/>
	
		<line fill="none" stroke="#FFFFFF" stroke-width="0.5716" stroke-miterlimit="10" x1="470.729" y1="499.256" x2="246.203" y2="499.256"/>
</g>
</svg>
