<?xml version="1.0" encoding="utf-8"?>
<!-- Generator: Adobe Illustrator 18.0.0, SVG Export Plug-In . SVG Version: 6.00 Build 0)  -->
<!DOCTYPE svg PUBLIC "-//W3C//DTD SVG 1.1//EN" "http://www.w3.org/Graphics/SVG/1.1/DTD/svg11.dtd">
<svg version="1.1" id="图层_1" xmlns="http://www.w3.org/2000/svg" xmlns:xlink="http://www.w3.org/1999/xlink" x="0px" y="0px"
	 viewBox="417.6 -111.9 635.9 925.5" enable-background="new 417.6 -111.9 635.9 925.5" xml:space="preserve">
<path fill="#78D0F7" d="M650,158.4h352c9,0,16.4,9.5,16.4,21v133.1c0,11.5-7.4,21-16.4,21H715.8L678.3,360l4.9-26.5h-33.4
	c-9,0-16.3-9.5-16.3-21V179.4C633.7,167.9,641,158.4,650,158.4L650,158.4z"/>
<path fill="#FFFFFF" d="M668.2,201c0.7-0.1,1.5-0.1,2.3-0.2v-9H668v-1.4h23.9v1.4h-12.5v7.9c0.7-0.1,1.5-0.2,2.3-0.4
	c0,0.4,0,0.7,0,1.5c-0.7,0.1-1.5,0.2-2.3,0.4v3.1h-1.6v-2.7c-2.6,0.5-5.7,0.7-8.8,1.4L668.2,201z M671.7,181.6h16.6v7.7h-1.7v-0.6
	h-13.2v0.6h-1.6V181.6L671.7,181.6z M680.3,194.9v-1.4h9.5v1.4c-0.7,2-2,3.6-3.2,5.1c1.4,0.9,3.1,1.7,5.1,2.1
	c-0.5,0.7-0.7,1.2-1.2,1.7c-2-0.7-3.7-1.6-5.1-2.7c-1.4,1.2-3.1,2.1-4.9,3.1c-0.2-0.5-0.6-0.9-1.1-1.5c1.7-0.7,3.3-1.5,4.6-2.6
	c-1.4-1.4-2.3-3.1-3-5.1L680.3,194.9L680.3,194.9z M673.1,187.3h13.2v-1.5h-13.2V187.3z M686.4,183.1h-13.2v1.5h13.2V183.1z
	 M688.1,194.9H683c0.6,1.5,1.4,3,2.5,4C686.5,197.8,687.2,196.3,688.1,194.9L688.1,194.9z M677.5,199.9v-1.6h-5.3v2.3
	C674,200.4,675.7,200.2,677.5,199.9L677.5,199.9z M672.2,193.6h5.3v-2h-5.3V193.6z M672.2,196.8h5.3V195h-5.3V196.8z M705.9,204
	h-1.7v-12.1h12v9.4c0,1.7-0.9,2.6-2.6,2.6h-4c0-0.6-0.1-1.2-0.4-1.9c1.5,0,2.7,0.1,3.7,0.1c1.1,0,1.5-0.5,1.5-1.2v-1.2h-8.7
	L705.9,204L705.9,204z M703.1,189.1h6.2v-1.7h-5.2v-1.5h5.2v-1.5h-5.8v-1.5h5.8v-2.1h1.7v2.1h6.3v1.5H711v1.5h5.6v1.5H711v1.7h6.6
	v1.5h-14.5V189.1L703.1,189.1z M693.8,198.7c1.6-2.3,2.7-4.9,3.8-7.8h-3.5v-1.5h3.7v-8.8h1.5v8.8h3.1v1.5h-3.1v3.1l0.9-0.7
	c1.2,1.2,2.5,2.3,3.2,3.2l-1.2,1.2c-1.1-1.2-2-2.3-3-3.2v9.8h-1.5v-10.1c-0.9,2.5-2.1,4.6-3.2,6.6
	C694.2,199.9,693.9,199.3,693.8,198.7L693.8,198.7z M714.4,193.5h-8.7v1.6h8.7V193.5z M705.9,198.2h8.7v-1.6h-8.7V198.2z
	 M699.7,187.3c0.7-1.5,1.2-3.1,1.7-4.9l1.5,0.6c-0.6,1.7-1.2,3.3-1.9,4.9L699.7,187.3z M694,182.9l1.5-0.5c0.6,1.6,1.1,3.2,1.6,4.9
	l-1.5,0.6C695.2,186,694.5,184.4,694,182.9L694,182.9z M731,189.3c1.5-2.6,2.7-5.7,3.8-8.8l1.7,0.6c-0.5,1.2-0.9,2.6-1.5,3.8h8.3
	v1.6h-2.1c-0.1,5.1-1.2,9-3,11.6c1.5,1.7,3.3,3.1,5.6,4.1c-0.5,0.6-0.9,1.2-1.4,1.7c-2.3-1.2-4-2.7-5.3-4.3
	c-1.4,1.5-3.3,3.1-5.9,4.5c-0.4-0.5-0.7-0.9-1.2-1.6c2.7-1.4,4.8-3,6.1-4.5c-1.5-2.3-2.6-5.3-3-9.1c-0.4,0.5-0.6,0.9-0.7,1.4
	C731.9,190.2,731.5,189.8,731,189.3L731,189.3z M720.2,181.9h11.2v1.7h-5.4c-1.2,2.3-2.1,4.2-3,5.6c1.9-0.1,3.6-0.2,5.1-0.4
	c-0.5-0.9-0.7-1.9-1.4-2.7l1.5-0.7c1.2,2.1,2.1,4.1,3.1,6.3c-0.7,0.4-1.2,0.6-1.7,0.7c-0.2-0.6-0.5-1.2-0.7-1.9
	c-2.3,0.1-4.5,0.4-6.2,0.5c-0.7,0.1-1.2,0.2-1.7,0.5l-0.7-1.6c0.6-0.4,1.1-0.7,1.4-1.4c0.7-1.2,1.6-3,2.5-4.7h-3.8L720.2,181.9
	L720.2,181.9z M719.9,200.7c1.6-0.1,3.2-0.2,4.9-0.5v-4h-4.3v-1.6h4.3v-3.1h2v3.1h4.5v1.6h-4.5v3.8c1.5-0.1,3.1-0.4,4.8-0.6
	c0,0.4,0,0.9,0.1,1.7c-3.5,0.5-7.2,0.9-11.2,1.4L719.9,200.7z M737.1,196.7c1.4-2.3,2.1-5.7,2.1-10.1h-4.9
	C734.6,191,735.6,194.5,737.1,196.7L737.1,196.7z M747,184.6h2.3c0.6-1.4,1.2-2.7,1.5-4l2,0.6c-0.5,1.2-0.9,2.3-1.4,3.3h4.8v19h-1.9
	v-1.9h-5.4v2h-1.9v-19.2H747z M756.5,189.5c1.5-2.5,2.7-5.3,3.8-8.9l2,0.5c-0.4,1.2-0.7,2.5-1.2,3.5h7.7c-0.1,8.3-0.4,13.4-0.5,15.3
	c-0.1,2.6-1.4,3.8-4,3.8c-1.5,0-3-0.1-4.5-0.1c-0.1-0.7-0.2-1.5-0.5-2.1h0.1c1.6,0.2,3.1,0.4,4.5,0.4s2.1-0.7,2.3-2.3
	c0.2-2.3,0.4-6.7,0.4-13.2h-6.3c-0.7,1.5-1.4,3-2.1,4C757.7,190.2,757.1,189.8,756.5,189.5L756.5,189.5z M748.8,199.9h5.4V194h-5.4
	V199.9z M754.1,186.5h-5.4v5.8h5.4V186.5z M758.5,191.2l1.5-1.2c1.7,2.1,3.1,4,4.3,5.4l-1.9,1.2C761.3,194.9,759.9,193,758.5,191.2
	L758.5,191.2z M782.7,180.8h1.9v3.8c0.7,1.9,1.5,3.6,2.5,5.2c1.7-1.5,3.5-3.2,5.2-5.3l1.6,1.5c-1.9,2-3.8,3.7-5.9,5.4
	c2.1,3.3,4.8,5.9,7.8,8.2c-0.7,0.7-1.2,1.2-1.6,1.9c-4.2-3.3-7.4-7.4-9.5-12.2v11.1c0,2.5-1.1,3.6-3.3,3.6c-0.7,0-1.7,0-3.1,0
	c-0.1-0.6-0.2-1.2-0.4-2.1c1.2,0.2,2.3,0.2,3.1,0.2c1.2,0,1.9-0.6,1.9-1.7V180.8L782.7,180.8z M772.4,188.3v-1.9h8.3v1.7
	c-1.4,5.3-3.8,9.6-7.4,13.5c-0.6-0.7-1.1-1.2-1.5-1.5c3.6-3.8,5.9-7.8,6.9-12L772.4,188.3L772.4,188.3z M821.7,201.2
	c-0.7,0.6-1.2,1.2-1.5,1.7c-4-1.2-7-3.3-9.6-6.4v7.8h-1.9v-7.8c-2.1,2.6-5.4,4.9-9.6,6.8c-0.4-0.5-0.7-1.1-1.4-1.5
	c3.7-1.5,6.8-3.3,9.1-5.7h-8.8v-1.7h10.6v-2.6h-6.3v0.9h-1.7v-11h18.2v11h-1.7v-0.9h-6.4v2.6h10.6v1.7h-8.9
	C814.6,198.7,817.7,200.3,821.7,201.2L821.7,201.2z M810.6,190.2h6.3v-2.6h-6.3V190.2z M816.9,183.4h-6.3v2.6h6.3V183.4z
	 M802.3,190.2h6.3v-2.6h-6.3V190.2z M802.3,186h6.3v-2.6h-6.3V186z M825.7,188.3h5.8c-0.5-0.7-1.2-1.6-1.7-2.5l1.4-1.1
	c0.7,0.9,1.5,1.7,2.1,2.6l-1.2,0.9h5.4c0.7-1.1,1.6-2.1,2.1-3.3l1.9,1.1c-0.7,0.9-1.4,1.7-1.9,2.3h5.9v12.5c0,2-0.9,3.1-2.7,3.1
	c-0.9,0-2.1,0-3.3,0c-0.1-0.9-0.2-1.6-0.4-2c1.2,0.1,2.3,0.1,3.1,0.1c1.1,0,1.6-0.6,1.6-1.7v-10.4h-16.3v14.2h-1.9L825.7,188.3
	L825.7,188.3z M830.9,201.8v-7.7h9.6v6.3h-7.8v1.2h-1.9V201.8z M824,183.1h10.9c-0.2-0.6-0.6-1.2-1.1-1.9l1.9-0.7
	c0.5,0.7,0.9,1.7,1.5,2.6h10.3v1.7h-23.5L824,183.1L824,183.1z M838.8,199.1v-3.3h-6.2v3.3H838.8z M832.8,190.2l1.2,1.2
	c-1.9,1.6-3.6,3.1-5.2,4.1c-0.6-0.6-0.9-1.1-1.2-1.4C829.4,193,831.1,191.7,832.8,190.2L832.8,190.2z M837,191.5l1.1-1.2
	c2.5,1.5,4.2,2.6,5.3,3.6l-1.2,1.5C840.5,194,838.8,192.8,837,191.5L837,191.5z M862.2,202.5c1.7-1.2,3.3-3,4.9-4.7
	c-0.6-2.3-1.1-5.9-1.2-11.1h-6.2v3.8h4.9c-0.1,2.7-0.1,5.2-0.2,7.3c0,2-1.1,3-3,3c-0.6,0-1.2,0-1.7,0c-0.1-0.6-0.2-1.2-0.5-1.9
	c0.7,0,1.4,0.1,2,0.1c0.9,0,1.4-0.6,1.4-1.6c0.1-1.6,0.1-3.3,0.1-5.2h-3.1c-0.1,2.7-0.4,5.1-0.7,6.6c-0.6,2-1.5,3.7-2.7,5.6
	c-0.5-0.5-1.1-0.9-1.5-1.4c1.2-1.6,2.1-3.3,2.6-4.9c0.5-1.5,0.6-4,0.6-7.5v-5.4h8c0-1.2-0.1-2.7-0.1-4.3h1.9c0,1.5,0,3.1,0.1,4.3
	h5.9v1.7h-5.9c0.1,3.8,0.5,6.8,0.7,9c1.2-1.7,2.1-3.8,3-5.9l1.7,0.7c-1.2,3-2.6,5.6-4.2,7.7c0.4,1.2,0.7,2,1.2,2.6
	c0.4,0.7,0.7,0.9,1.1,0.9c0.4,0,0.6-0.1,0.6-0.6c0.1-0.7,0.2-1.9,0.4-3.3c0.7,0.2,1.2,0.5,1.7,0.6c-0.1,1.6-0.2,2.7-0.4,3.3
	c-0.4,1.5-0.9,2.1-2,2.1c-0.9,0-1.9-0.5-2.6-1.6c-0.5-0.6-0.7-1.2-1.2-2.1c-1.2,1.5-2.6,3-4.2,4C863,203.4,862.7,202.9,862.2,202.5
	L862.2,202.5z M849.6,197.3c0.9-0.2,1.9-0.5,3.1-0.7v-8.2h-2.7v-1.7h2.7v-5.9h1.7v5.9h2.6v1.7h-2.6v7.7c0.7-0.2,1.6-0.5,2.6-0.7
	c0,0.7,0,1.2,0,1.9c-2.6,0.7-4.9,1.4-6.9,2.1L849.6,197.3z M868.5,181.9l1.2-1.2c1,0.7,2,1.5,3,2.5l-1.2,1.2
	C870.5,183.5,869.5,182.6,868.5,181.9L868.5,181.9z"/>
<path fill="#FFFFFF" d="M665.1,248.3c0.7,0,1.5-0.1,2.3-0.2v-9.1h-2.6v-1.4h23.9v1.4h-12.5v7.9c0.7-0.1,1.6-0.2,2.3-0.4
	c0,0.4,0,0.7,0,1.6c-0.7,0-1.5,0.1-2.3,0.2v3.1h-1.6v-3c-2.6,0.5-5.7,0.9-8.8,1.4L665.1,248.3z M668.6,228.9h16.6v7.8h-1.7V236
	h-13.2v0.6h-1.6V228.9L668.6,228.9z M677.4,242.1v-1.4h9.5v1.4c-0.7,2-1.9,3.7-3.2,5.1c1.4,1.1,3.1,1.7,5.1,2.3
	c-0.5,0.6-0.7,1.2-1.1,1.6c-2.1-0.7-3.8-1.6-5.2-2.7c-1.4,1.2-3.1,2.3-4.9,3.1c-0.2-0.6-0.6-1.1-1.1-1.6c1.7-0.7,3.3-1.5,4.6-2.6
	c-1.2-1.5-2.3-3.2-2.7-5.2H677.4L677.4,242.1z M670.2,234.5h13.2v-1.5h-13.2V234.5z M683.4,230.2h-13.2v1.5h13.2V230.2z M685,242.1
	h-5.1c0.6,1.6,1.4,3,2.5,4C683.4,244.9,684.4,243.5,685,242.1L685,242.1z M674.5,247.2v-1.6h-5.3v2.3
	C671,247.8,672.7,247.4,674.5,247.2L674.5,247.2z M669.2,240.9h5.3v-2h-5.3V240.9z M669.2,244.1h5.3v-1.9h-5.3V244.1z M696.8,244.2
	c2.1,0.9,4.5,2,6.8,3.1l5.4-4.6h-13.2v-1.9l1.2-3h-5.7V236h6.3l1.2-3.2h-6.3v-1.7h7l1.2-3.1h2.1l-1.2,3.1h11.4v1.9h-12l-1.2,3.2h15
	v1.9h-15.7l-1.2,3h13.8v1.9l-6.3,5.4c1.2,0.6,2.1,1.1,3.3,1.6l-1.2,1.9c-4-2.1-8-4-11.9-5.8L696.8,244.2z M716.9,248h7.7v-19.8h2
	V248h4.3v-19.8h2V248h7.8v1.7H717V248H716.9z M719.8,233.1c1.2,3.1,2.6,6.3,3.8,9.6l-2,0.9c-1.2-3.3-2.3-6.7-3.6-10L719.8,233.1z
	 M733.7,243c1.6-3.3,3.1-6.6,4-9.8l2,0.7c-1.5,3.8-3,7-4.3,9.8L733.7,243z M743.9,231.8h2.5c0.6-1.5,1.1-2.7,1.4-4l2.1,0.6
	c-0.6,1.2-1.1,2.5-1.5,3.5h4.7v19h-1.9v-1.9h-5.4v2.1h-1.9L743.9,231.8L743.9,231.8z M753.4,236.7c1.5-2.5,2.7-5.3,3.8-8.9l2.1,0.6
	c-0.5,1.2-0.7,2.3-1.2,3.3h7.7c-0.1,8.3-0.4,13.4-0.5,15.5c-0.1,2.5-1.4,3.7-4,3.7c-1.4,0-3,0-4.5-0.1c-0.1-0.7-0.2-1.5-0.4-2.1l0,0
	c1.6,0.1,3.1,0.2,4.5,0.2c1.5,0,2.1-0.7,2.3-2.1c0.2-2.5,0.4-6.8,0.5-13.4h-6.4c-0.7,1.6-1.4,3-2.1,4.1
	C754.6,237.3,754.1,236.9,753.4,236.7L753.4,236.7z M745.7,247.3h5.4v-6.2h-5.4V247.3z M751.2,233.6h-5.4v5.8h5.4V233.6z
	 M755.6,238.3l1.4-1.1c1.7,2.1,3.2,3.8,4.3,5.4l-1.9,1.2C758.5,242.1,757,240.2,755.6,238.3L755.6,238.3z M779.6,228h2v3.8
	c0.7,1.9,1.4,3.6,2.3,5.2c1.7-1.4,3.6-3.2,5.3-5.2l1.5,1.4c-1.9,2-3.8,3.8-5.9,5.4c2.1,3.3,4.8,6.2,7.8,8.3
	c-0.7,0.6-1.2,1.2-1.6,1.7c-4.2-3.2-7.3-7.4-9.4-12.2v11.3c0,2.3-1.2,3.6-3.5,3.6c-0.7,0-1.7,0-3.1-0.1c-0.1-0.6-0.2-1.2-0.4-2.1
	c1.2,0.1,2.3,0.1,3.1,0.1c1.2,0,1.9-0.6,1.9-1.7L779.6,228L779.6,228z M769.5,235.5v-1.7h8.3v1.7c-1.4,5.2-3.8,9.6-7.4,13.5
	c-0.6-0.7-1.1-1.2-1.5-1.5c3.6-3.8,5.9-7.8,6.9-12H769.5L769.5,235.5z M818.8,248.4c-0.6,0.7-1.2,1.2-1.5,1.9c-4-1.2-7-3.5-9.6-6.6
	v7.8h-1.9v-7.8c-2.1,2.6-5.4,4.9-9.6,6.8c-0.4-0.5-0.7-0.9-1.4-1.5c3.7-1.4,6.8-3.3,9.1-5.6h-8.8v-1.7h10.6v-2.6h-6.3v1.1h-1.9
	v-11.1h18v11.1H814v-1.1h-6.3v2.6h10.6v1.7h-8.9C811.6,245.9,814.7,247.4,818.8,248.4L818.8,248.4z M807.7,237.4h6.3v-2.6h-6.3
	V237.4z M814.1,230.6h-6.3v2.6h6.3V230.6z M799.5,237.4h6.3v-2.6h-6.3V237.4z M799.5,233.2h6.3v-2.6h-6.3V233.2z M882.3,237.6
	c2.1,1.7,4.2,3.5,6.3,5.4c-0.5,0.6-1.1,1.1-1.4,1.5c-0.7-0.7-1.4-1.2-2.1-2c-2.1,0.1-4.3,0.2-6.4,0.4v5.3c0,1.9-0.9,2.7-3,2.7
	c-0.7,0-1.9,0-3.1-0.1c0-0.6-0.1-1.2-0.2-2c1.2,0.2,2.3,0.2,3.1,0.2c1,0,1.4-0.4,1.4-1.2V243c-2,0-4,0.1-5.9,0.2
	c-0.9,0.1-1.9,0.2-2.7,0.4l-0.7-2.1c1.2-0.1,2.1-0.5,3.1-0.9c2.5-1.2,4.8-2.3,6.8-3.6c-2.7,0.2-5.1,0.5-6.9,0.6
	c-1,0.1-1.5,0.1-2,0.2l-0.7-2c0.7-0.2,1.5-0.5,2.1-0.7c2.1-1.2,4-2.5,6.1-4c-2.6,0.2-5.4,0.4-8.3,0.5c-0.1-0.5-0.2-1.1-0.4-1.6
	c7.5-0.4,14.3-0.7,20.3-1.4l0.4,1.7c-3.6,0.4-6.9,0.6-10.6,0.7l0.9,0.7c-2.5,1.6-4.8,3.1-6.9,4.1c3.6-0.1,6.6-0.4,8.9-0.6
	c1.6-0.9,3.1-2,4.5-3.1l1.6,1.2c-4,2.7-8.8,5.4-14,7.9c3.2-0.1,7-0.2,11.5-0.5c-0.7-0.7-1.6-1.5-2.5-2.1L882.3,237.6z M880.8,245.4
	l1.2-1.2c2.1,1.4,4.3,3.1,6.8,4.9l-1.5,1.5C885,248.6,882.9,246.9,880.8,245.4L880.8,245.4z M871.4,244.2l1.5,1.2
	c-2,1.9-4.2,3.6-6.3,5.3c-0.4-0.5-0.7-0.9-1.4-1.5C867.4,247.9,869.3,246.2,871.4,244.2L871.4,244.2z M910.5,234.3
	c1.4,1.7,2.7,3.8,4.2,6.2c-0.6,0.2-1.2,0.6-1.7,1.1c-0.5-0.7-0.7-1.4-1.2-2c-0.7,0-1.5,0.1-2.3,0.1v8.2c0,1.1,0.4,1.5,1.1,1.5h1.2
	c0.7,0,1.2-0.5,1.4-1.2c0.1-1.1,0.2-2.1,0.2-3.1c0.5,0.2,1.2,0.5,1.9,0.7c-0.1,1.4-0.2,2.5-0.4,3.2c-0.2,1.4-1.1,2.1-2.6,2.1h-2.1
	c-1.7,0-2.6-1.1-2.6-3.1v-8.3c-0.9,0.1-1.9,0.1-2.7,0.2c-0.1,3.5-0.6,5.8-1.4,7.2c-0.9,1.7-2.6,3.2-5.1,4.5
	c-0.4-0.5-0.7-1.1-1.2-1.6c2.3-0.9,3.8-2.1,4.6-3.7c0.7-1.2,1.1-3.2,1.2-6.2c-0.4,0-0.7,0-1.1,0c-0.7,0.1-1.2,0.2-1.9,0.4l-0.7-1.9
	c0.7-0.4,1.2-0.7,1.6-1.2c1.2-1.5,2.3-3.1,3.3-4.7H899v-1.5h7.7c-0.6-0.9-1.2-1.7-1.7-2.5l1.6-1.1c0.6,0.7,1.2,1.6,2.1,2.6l-1.2,0.7
	h7.3v1.6h-9.6l1.2,0.6c-1.2,1.9-2.6,3.5-4,4.9c3.1-0.1,5.8-0.2,8.3-0.4c-0.6-0.9-1.2-1.9-1.7-2.6L910.5,234.3z M894.4,242.3
	c1.2-0.2,3-0.5,4.9-0.7c-0.1,0.7-0.2,1.2-0.4,1.9c-2,0.2-4.2,0.6-6.8,1.1l-0.4-1.7c1.1-1.1,2.1-2.7,3.6-4.9c-1.7,0.1-3,0.1-3.6,0.2
	l-0.5-1.6c1.4-1.9,3-4.7,4.5-8.4l1.9,0.7c-1.5,3.1-3.1,5.6-4.3,7.5c1.1,0,2,0,3,0c0.5-0.9,0.9-1.9,1.5-2.7l1.7,0.7
	C897.9,237.3,896,240.1,894.4,242.3L894.4,242.3z M891.3,247.3c2.6-0.5,5.4-1.1,8.3-1.7c0,0.7-0.1,1.4-0.1,1.7
	c-3,0.6-5.3,1.2-7.5,1.9L891.3,247.3z M820,239.2c0-3.2,0.6-5.7,1.6-7.4c1.2-1.6,2.6-2.5,4.8-2.5c4,0,5.9,3.1,5.9,9.5
	c0,3.1-0.6,5.4-1.6,7.2c-1.2,1.6-2.6,2.5-4.6,2.5c-2,0-3.3-0.7-4.5-2.3C820.6,244.6,820,242.2,820,239.2L820,239.2z M822.5,239.1
	c0,4.9,1.2,7.4,3.7,7.4c2.6,0,3.7-2.5,3.7-7.5c0-5.1-1.2-7.8-3.6-7.8C823.7,231.2,822.5,233.9,822.5,239.1L822.5,239.1z
	 M847.3,248.1h-11.2v-2l5.3-5.4c1.5-1.4,2.5-2.6,3.1-3.5c0.5-0.9,0.7-1.7,0.7-2.6c0-1.1-0.2-1.9-0.7-2.5s-1.5-0.9-2.6-0.9
	c-1.7,0-3.2,0.7-4.8,2.1V231c1.4-1.2,3.1-1.6,5.1-1.6c1.6,0,3.1,0.4,4,1.2c0.9,0.9,1.4,2.1,1.4,3.7c0,1.2-0.2,2.1-0.9,3.3
	c-0.6,1.1-1.7,2.6-3.6,4.1l-4.2,4.1l0,0h8.4L847.3,248.1L847.3,248.1z M851.8,239.2c0-3.2,0.5-5.7,1.6-7.4c1.1-1.6,2.6-2.5,4.6-2.5
	c4,0,5.9,3.1,5.9,9.5c0,3.1-0.5,5.4-1.6,7.2c-1.2,1.6-2.6,2.5-4.6,2.5c-1.9,0-3.3-0.7-4.5-2.3C852.3,244.6,851.8,242.2,851.8,239.2
	L851.8,239.2z M854.1,239.1c0,4.9,1.2,7.4,3.8,7.4c2.5,0,3.7-2.5,3.7-7.5c0-5.1-1.2-7.8-3.7-7.8
	C855.4,231.2,854.1,233.9,854.1,239.1L854.1,239.1z"/>
<path fill="#FFFFFF" d="M609.9,8.1c4.8,0,8.8,3.1,10.4,7h-20.9C601.1,11,605,8.1,609.9,8.1L609.9,8.1z M643.4,15.1h1.4h12.5h83.2
	c0.1-0.7,0.2-1.6,0.2-2.6c0-10.1-8.3-18.4-18.5-18.4c-4.5,0-8.8,1.6-12,4.3c-4.5-12.2-17.2-21.1-32.1-21.1
	c-16.7,0-30.4,11.1-33.4,25.7c-2-5.2-6.9-8.9-12.9-8.9c-7.5,0-13.7,6.2-13.7,13.6c0,2.6,0.7,5.2,2.1,7.3h16.7
	C637,15.1,643.4,15.1,643.4,15.1z"/>
<path fill="#FC928A" d="M701,568.3h77.8c8.3,0,15.3,6.8,15.3,15.3l0,0c0,8.4-6.9,15.3-15.3,15.3H701c-8.3,0-15.3-6.8-15.3-15.3l0,0
	C685.6,575.1,692.6,568.3,701,568.3L701,568.3z"/>
<path fill="#FC928A" d="M733.7,598.9h77.6c8.4,0,15.3,6.9,15.3,15.3l0,0c0,8.3-6.8,15.3-15.3,15.3h-77.6c-8.4,0-15.3-6.9-15.3-15.3
	l0,0C718.4,605.8,725.3,598.9,733.7,598.9L733.7,598.9z"/>
<path fill="#FC928A" d="M790,640.7h23.5c8.3,0,15.3,6.9,15.3,15.3l0,0c0,8.4-6.9,15.3-15.3,15.3H790c-8.4,0-15.3-6.9-15.3-15.3l0,0
	C774.5,647.6,781.6,640.7,790,640.7L790,640.7z"/>
<path fill="#FC928A" d="M655.1,598.9h77.6c8.4,0,15.3,6.9,15.3,15.3l0,0c0,8.3-6.8,15.3-15.3,15.3h-77.6c-8.4,0-15.3-6.9-15.3-15.3
	l0,0C639.6,605.8,646.7,598.9,655.1,598.9L655.1,598.9z"/>
<path fill="#FC928A" d="M614.2,568.3h77.6c8.4,0,15.3,6.8,15.3,15.3l0,0c0,8.4-6.8,15.3-15.3,15.3h-77.6c-8.4,0-15.3-6.8-15.3-15.3
	l0,0C598.7,575.1,605.6,568.3,614.2,568.3L614.2,568.3z"/>
<path fill="#FC928A" d="M517,568.3h77.6c8.4,0,15.3,6.8,15.3,15.3l0,0c0,8.4-6.8,15.3-15.3,15.3H517c-8.4,0-15.3-6.8-15.3-15.3l0,0
	C501.8,575.1,508.6,568.3,517,568.3L517,568.3z"/>
<path fill="#FC928A" d="M564.1,598.9h77.6c8.4,0,15.3,6.9,15.3,15.3l0,0c0,8.3-6.8,15.3-15.3,15.3h-77.6c-8.4,0-15.3-6.9-15.3-15.3
	l0,0C548.7,605.8,555.7,598.9,564.1,598.9L564.1,598.9z"/>
<path fill="#FC928A" d="M468.9,598.9h77.8c8.3,0,15.3,6.9,15.3,15.3l0,0c0,8.3-6.9,15.3-15.3,15.3h-77.8c-8.3,0-15.3-6.9-15.3-15.3
	l0,0C453.7,605.8,460.6,598.9,468.9,598.9L468.9,598.9z"/>
<path fill="#FC928A" d="M468.9,661.1h77.8c8.3,0,15.3,6.9,15.3,15.3l0,0c0,8.3-6.9,15.3-15.3,15.3h-77.8c-8.3,0-15.3-6.9-15.3-15.3
	l0,0C453.7,668,460.6,661.1,468.9,661.1L468.9,661.1z"/>
<path fill="#FC928A" d="M699.5,520.4H723c8.4,0,15.3,6.9,15.3,15.3l0,0c0,8.3-6.8,15.3-15.3,15.3h-23.5c-8.4,0-15.3-6.9-15.3-15.3
	l0,0C684.2,527.3,691,520.4,699.5,520.4L699.5,520.4z"/>
<path fill="#FC928A" d="M647.9,628.4h77.6c8.4,0,15.3,6.9,15.3,15.3l0,0c0,8.4-6.8,15.3-15.3,15.3h-77.6c-8.4,0-15.3-6.9-15.3-15.3
	l0,0C632.5,635.3,639.4,628.4,647.9,628.4L647.9,628.4z"/>
<path fill="#FC928A" d="M583.5,646.8h77.6c8.4,0,15.3,6.8,15.3,15.3l0,0c0,8.4-6.9,15.3-15.3,15.3h-77.6c-8.4,0-15.3-6.9-15.3-15.3
	l0,0C568.1,653.6,575,646.8,583.5,646.8L583.5,646.8z"/>
<g>
	<path fill="#FEF671" d="M577.7,331.2c32.5,0,60.1,43.1,61.2,89.6c28.2,18.5,40.4,37.3,44.1,82.2c3.6,44.9-44.5,103.1-100.6,103.1
		c-56.4,0-101.9-46.5-101.9-103.8c0-32.6,14.7-61.7,38-80.9c0-1.1-0.1-2.1-0.1-3.3C518.1,370.2,545.3,331.2,577.7,331.2L577.7,331.2
		z"/>
	<path fill="#693D16" d="M575,335.2c2.3-13,6.4-26.6,13.7-38.3c2.3-0.1,4,1.1,5.3,2.6c-6.9,11.7-16.7,27.1-16.3,36.6L575,335.2z"/>
	<path d="M570.2,420.1c0,29.3-18.5,53-41.5,53c-22.9,0-41.3-23.7-41.3-53H570.2L570.2,420.1z"/>
	<path d="M668.7,420.1c0,29.3-18.5,53-41.3,53c-22.9,0-41.3-23.7-41.3-53H668.7L668.7,420.1z"/>
	<polygon fill="#FEFEFE" points="525.9,454.7 551.6,429.4 549.3,427.2 523.7,452.3 	"/>
	<polygon fill="#FEFEFE" points="510.7,452.9 536.8,428 532.2,423.3 506.3,448.3 	"/>
	<path d="M568.2,421h20.2l1.2,12.7c-4.5-3.3-19.5-4.5-23.4,0L568.2,421z"/>
	<path d="M582.2,525.1c10.1-0.2,17.9-0.4,23.9-1.4c8.8-1.5,12.9-6.8,12.9-5.6c0,1.4-1.2,9.1-12.2,12c-5.4,1.4-13.2,2.3-24.2,2.5
		c-33,0.6-36.2-13-36.2-15C545.9,515.6,554.8,525.8,582.2,525.1L582.2,525.1z"/>
	<path fill="#FEFEFE" d="M602.3,524c1.9-0.1,3.8-0.4,5.6-0.6v5.9h-5.6V524z"/>
	<polygon fill="#FEFEFE" points="627.8,454.7 653.6,429.4 651.3,427.2 625.6,452.3 	"/>
	<polygon fill="#FEFEFE" points="612.7,452.9 638.8,428 634.3,423.3 608.2,448.3 	"/>
	<path fill="#181818" d="M502.9,619.9l73.6-20.5l0.2-25.2l-73.3-20c-4.9,0.2-9.1,2.6-10.4,6.3c-3.1,9.6-2.7,47.3-0.4,55.6
		C494,619.3,499,620.6,502.9,619.9L502.9,619.9z"/>
	<path fill="#181818" d="M661,619.9l-73.6-20.5l-0.2-25.2l73.3-20c4.9,0.2,9.1,2.6,10.4,6.3c3.1,9.6,2.7,47.3,0.4,55.6
		C669.8,619.3,665,620.6,661,619.9L661,619.9z"/>
	<path fill="#181818" d="M573.9,571.3h15.8c1.6,0,3.1,1.2,3.1,3v25.1c0,1.6-1.4,3.1-3.1,3.1h-15.8c-1.6,0-3-1.4-3-3.1v-25.1
		C571,572.5,572.3,571.3,573.9,571.3L573.9,571.3z"/>
	<polygon points="592.7,583.4 643.8,586.8 592.7,589.5 	"/>
	<polygon points="570.5,583.4 519.4,586.8 570.5,589.5 	"/>
</g>
<path fill="#FC928A" d="M528.9,671.9h77.6c8.4,0,15.3,6.8,15.3,15.3l0,0c0,8.4-6.9,15.3-15.3,15.3h-77.6c-8.4,0-15.3-6.8-15.3-15.3
	l0,0C513.5,678.7,520.3,671.9,528.9,671.9L528.9,671.9z"/>
<path fill="#FC928A" d="M449,725.6h23.5c8.4,0,15.3,6.8,15.3,15.3l0,0c0,8.4-6.9,15.3-15.3,15.3H449c-8.3,0-15.3-6.8-15.3-15.3l0,0
	C433.7,732.4,440.6,725.6,449,725.6L449,725.6z"/>
<path fill="#FC928A" d="M805.2,567.8h77.6c8.4,0,15.3,6.9,15.3,15.3l0,0c0,8.3-6.9,15.3-15.3,15.3h-77.6c-8.4,0-15.3-6.9-15.3-15.3
	l0,0C790,574.6,796.8,567.8,805.2,567.8L805.2,567.8z"/>
<path fill="#FC928A" d="M765.9,544.4h77.8c8.3,0,15.3,6.8,15.3,15.3l0,0c0,8.4-6.9,15.3-15.3,15.3h-77.8c-8.3,0-15.3-6.8-15.3-15.3
	l0,0C750.5,551.3,757.5,544.4,765.9,544.4L765.9,544.4z"/>
<path fill="#FC928A" d="M858.8,591.8h77.6c8.4,0,15.3,6.8,15.3,15.3l0,0c0,8.4-6.9,15.3-15.3,15.3h-77.6c-8.4,0-15.3-6.8-15.3-15.3
	l0,0C843.6,598.6,850.4,591.8,858.8,591.8L858.8,591.8z"/>
<path fill="#3BB16A" d="M470.3,641.7c-1.6,5.4,0.4,5.2,0.1,8.9c-0.1,2.1-1.7,5.2-2.7,7.8c1.1,6.3-1.4,0.4,1.1,3.1
	c1.4-3.6-0.9-0.5,2.5-3.2c2-1.6,0.4,0.7,2.6-1.5c10,3.7,4.5,4.5,18.2,2.7c1.2,5.4,4.5,4,7.4,6.8c1.7-9.8-3.7-5.7-11.5-11
	c-6.2-4.2-5.4-0.1-18.4,2.8c1.5-11.1,3.8-5.7,11-11c3.6-2.6,6.3-6.6,6.9-13C480,634.2,473.2,636.5,470.3,641.7L470.3,641.7z"/>
<path fill="#3BB16A" d="M746.6,623l-4.3-1.1c-6.9,2.1-14,3-19.2,6.9c-7.5,5.9-4,11.1-2.5,19.8C735.5,644.5,745,639.7,746.6,623
	L746.6,623z"/>
<path fill="#3BB16A" d="M846.1,562.4c0.2,0.5,0.2,0.9,1.6,1.7c0.9,0.5,1.7,0.6,3,0.9c-1.1,1.7-1.1,0.5-0.7,1.5
	c3-1.2,5.2-0.5,8.3-0.1c0,2.6-0.7,5.7,1.6,6.6c1.5-1.5,0.6,0.2,0.7-2l-0.7-7.3c2.7,0.2,4.8,0.9,6.3,1.7l1.2-1.9l-7.4-0.9
	c0.1-2.8-0.1-7.2,1.6-8.8c1.9-1.7,5.4-2.7,7.4-1.7c3,1.5,2.6,2.7,7.5,3c3.2,0.2,6.2-0.5,9-1.4c-6.3-10.4-13-5.4-16.8-3.6
	c-1.6,0.9-5.1,1.2-7.4,2c0.6-2.5,1.2-6.4,3.6-7.5c2.7-1.2,5.1-1.4,7.8-3.1c4.8-3,7.2-7.8,7.7-14.7c-26.6,2.5-16.3,14.5-18.4,19.4
	c-1.7,4-2.3,6.2-3.3,10.4c0.5-1.2,0.9,1.2-0.2-0.5l-3.1-3.7c-1.1-1.9,2.6-13.2-14.3-10.6c1.6,5.2,9,9.1,14.3,10.6
	c0.9,1.6,1.1,4.3,1.1,6.3c0,0.7,1.6,2.5,1.4,2.8c-0.7,1.5-3,3-5.3,0.2c-0.6-0.6,0.4,1.7-0.4,1.9c-0.7,0.1-3.1-1.7-3.2-0.5
	L846.1,562.4z"/>
<path fill="#FC928A" d="M888.1,667.9h5.7c6.8,0,12.2,5.4,12.2,12.1l0,0c0,6.8-5.6,12.2-12.2,12.2h-5.7c-6.8,0-12.2-5.4-12.2-12.2
	l0,0C875.8,673.2,881.5,667.9,888.1,667.9L888.1,667.9z"/>
<path fill="#FC928A" d="M994.3,696.3h17.9c3.3,0,6.2,2.6,6.2,6.2l0,0c0,3.3-2.7,5.9-6.2,5.9h-17.9c-3.3,0-6.2-2.6-6.2-5.9l0,0
	C988.1,699,990.9,696.3,994.3,696.3L994.3,696.3z"/>
<path fill="#FC928A" d="M1031.3,618.8h3c3.3,0,6.2,2.7,6.2,6.2l0,0c0,3.3-2.7,6.2-6.2,6.2h-3c-3.3,0-6.2-2.7-6.2-6.2l0,0
	C1025.1,621.6,1028,618.8,1031.3,618.8L1031.3,618.8z"/>
<path fill="#FC928A" d="M609,702.5h17.9c3.3,0,6.2,2.6,6.2,5.9l0,0c0,3.5-2.7,6.2-6.2,6.2H609c-3.3,0-6.2-2.6-6.2-6.2l0,0
	C602.8,705.1,605.6,702.5,609,702.5L609,702.5z"/>
<path fill="#FC928A" d="M526.2,712.4h3c3.3,0,6.2,2.7,6.2,6.2l0,0c0,3.3-2.7,6.2-6.2,6.2h-3c-3.3,0-6.2-2.7-6.2-6.2l0,0
	C520,715.2,522.7,712.4,526.2,712.4L526.2,712.4z"/>
<path fill="#FFFFFF" d="M665.1,290.2c0.7-0.1,1.5-0.2,2.3-0.2v-9.1h-2.6v-1.4h23.9v1.4h-12.5v7.9c0.7-0.1,1.6-0.2,2.3-0.4
	c0,0.2,0,0.7,0,1.5c-0.7,0.1-1.5,0.2-2.3,0.4v3.1h-1.6v-2.7c-2.6,0.4-5.7,0.7-8.8,1.2L665.1,290.2z M668.6,270.6h16.6v7.7h-1.7v-0.6
	h-13.2v0.6h-1.6V270.6L668.6,270.6z M677.4,283.9v-1.4h9.5v1.4c-0.7,2-1.9,3.6-3.2,5.1c1.4,0.9,3.1,1.7,5.1,2.1
	c-0.5,0.7-0.7,1.2-1.1,1.7c-2.1-0.7-3.8-1.6-5.2-2.7c-1.4,1.2-3.1,2.1-4.9,3.1c-0.2-0.5-0.6-0.9-1.1-1.5c1.7-0.7,3.3-1.6,4.6-2.6
	c-1.2-1.4-2.3-3.1-2.7-5.1L677.4,283.9L677.4,283.9z M670.2,276.3h13.2v-1.5h-13.2V276.3z M683.4,272.1h-13.2v1.5h13.2V272.1z
	 M685,283.9h-5.1c0.6,1.5,1.4,3,2.5,4C683.4,286.6,684.4,285.4,685,283.9L685,283.9z M674.5,288.9v-1.6h-5.3v2.3
	C671,289.4,672.7,289.2,674.5,288.9L674.5,288.9z M669.2,282.6h5.3v-1.9h-5.3V282.6z M669.2,286h5.3v-1.9h-5.3V286z M690.8,291.3
	c6.6-3,10.1-7.3,10.6-13.2h-10.1v-1.9h10.3c0.1-2.1,0.1-4.3,0.1-6.4h2.1c0,2.1,0,4.3-0.1,6.4h10.6v1.9h-10.6
	c1.2,6.3,4.9,10.6,11.1,12.6c-0.7,0.7-1.4,1.5-1.9,2c-5.1-2.1-8.7-5.8-10.1-11.1c-1.2,4.7-4.8,8.8-10.6,11.5
	C692.1,292.7,691.4,292,690.8,291.3L690.8,291.3z M717.9,273.6h2.3c0.7-1.4,1.2-2.7,1.5-4l2,0.6c-0.5,1.2-0.9,2.3-1.4,3.3h4.8v19
	h-1.9v-1.9h-5.4v2H718v-19.2H717.9z M727.4,278.6c1.5-2.5,2.7-5.4,3.8-8.9l2,0.5c-0.4,1.2-0.7,2.3-1.2,3.5h7.7
	c-0.1,8.2-0.4,13.4-0.5,15.3c-0.1,2.6-1.4,3.8-4,3.8c-1.5,0-3-0.1-4.5-0.1c-0.1-0.7-0.2-1.5-0.5-2.1h0.1c1.6,0.2,3.1,0.4,4.5,0.4
	s2.1-0.7,2.3-2.3c0.2-2.3,0.4-6.7,0.4-13.2h-6.3c-0.7,1.5-1.4,3-2.1,4C728.8,279.2,728.2,278.8,727.4,278.6L727.4,278.6z
	 M719.8,288.9h5.4V283h-5.4V288.9z M725.2,275.5h-5.4v5.8h5.4V275.5z M729.5,280.2l1.5-1.2c1.7,2.1,3.2,4,4.3,5.4l-1.9,1.2
	C732.5,283.9,731,282,729.5,280.2L729.5,280.2z M753.8,269.8h1.9v3.8c0.7,1.9,1.5,3.6,2.5,5.2c1.7-1.5,3.5-3.2,5.2-5.3l1.6,1.5
	c-1.9,2-3.8,3.7-5.9,5.4c2.1,3.3,4.8,5.9,7.8,8.2c-0.7,0.7-1.2,1.2-1.6,1.9c-4.2-3.3-7.4-7.4-9.5-12.2v11.1c0,2.5-1.1,3.6-3.3,3.6
	c-0.7,0-1.7,0-3.1,0c-0.1-0.6-0.2-1.2-0.4-2.1c1.2,0.1,2.3,0.2,3.1,0.2c1.2,0,1.9-0.6,1.9-1.7V269.8L753.8,269.8z M743.4,277.4v-1.9
	h8.3v1.7c-1.4,5.2-3.8,9.6-7.4,13.5c-0.6-0.6-1.1-1.1-1.5-1.4c3.6-3.8,5.9-7.8,6.9-12L743.4,277.4L743.4,277.4z M792.8,290.2
	c-0.7,0.6-1.2,1.2-1.5,1.7c-4-1.2-7-3.3-9.6-6.4v7.8h-1.9v-7.8c-2.1,2.6-5.4,4.9-9.6,6.8c-0.4-0.5-0.7-1.1-1.4-1.5
	c3.7-1.5,6.8-3.3,9.1-5.7h-8.8v-1.7h10.6v-2.6h-6.3v0.9h-1.7v-10.8H790v11h-1.7V281h-6.3v2.6h10.5v1.7h-8.9
	C785.6,287.7,788.7,289.3,792.8,290.2L792.8,290.2z M781.7,279.3h6.3v-2.6h-6.3V279.3z M788.1,272.4h-6.3v2.6h6.3V272.4z
	 M773.5,279.3h6.3v-2.6h-6.3V279.3z M773.5,275.1h6.3v-2.6h-6.3V275.1z M796,273.7h9.6v-1.5h-8.9v-1.4h19.5v1.5h-8.8v1.5h10v4.5
	h-1.9v-3h-8.3v3.3h-1.9v-3.3h-7.8v3H796V273.7L796,273.7z M800.9,290.1l0.7-1.5c1.7,0.6,3.5,1.1,5.2,1.6l4.5-2.7h-12V286h7.8
	c-0.7-0.7-1.4-1.6-2.1-2.6l1.4-1.1c0.7,0.9,1.5,1.7,2.3,2.6l-1.5,0.9h6.6v1.9l-4.9,3.1c0.9,0.4,2,0.7,3,1.1l-0.7,1.6
	C806.9,292,803.6,290.9,800.9,290.1L800.9,290.1z M807.9,279.2l-0.2,0.5c2.6,2.6,6.3,4.3,11,5.1c-0.5,0.7-0.7,1.2-1.2,1.9
	c-4.5-1.2-8.2-3.2-10.9-5.8c-2.6,2.3-6.2,4.5-11,6.2c-0.4-0.5-0.7-1.1-1.1-1.6c4.9-1.5,8.8-3.6,11.5-6.2H807.9L807.9,279.2z
	 M798.5,278.9h5.3v1.4h-5.3V278.9z M809.4,278.9h5.2v1.4h-5.2V278.9z M798.9,276.5h5.1v1.4h-5.1V276.5z M809.4,276.5h4.9v1.4h-4.9
	V276.5z M832.4,270.4l1.5-0.9c0.7,0.9,1.4,1.7,2,2.6l-1,0.6h8.8v1.5h-8.4v1.7h7.8v1.5h-7.8v1.7h7.8v1.4h-7.8v1.9h8.9v1.4h-18.5v1.1
	h-1.7v-8.3c-0.7,0.7-1.4,1.5-2.1,2.1c-0.2-0.5-0.7-0.9-1.1-1.5c2.3-2.1,4.2-4.7,5.6-7.7l1.7,0.7c-0.5,0.7-0.9,1.6-1.4,2.3h7.3
	C833.4,271.8,832.9,271,832.4,270.4L832.4,270.4z M823.7,285.6h18.2v7.7h-1.7V292h-14.6v1.2h-1.9V285.6L823.7,285.6z M840,287.1
	h-14.5v3.3H840V287.1z M825.5,282.3h7.8v-1.9h-7.8V282.3z M825.5,278.9h7.8v-1.7h-7.8V278.9z M825.5,275.7h7.8V274h-7.7l-0.1,0.2
	V275.7z M848.8,277.3h5.8c-0.6-0.7-1.2-1.5-1.9-2.3l1.5-1.1c0.7,0.9,1.4,1.7,2.1,2.6l-1.2,0.7h5.4c0.7-0.9,1.5-2.1,2.1-3.2l1.9,1.1
	c-0.7,0.9-1.5,1.6-2,2.1h5.9v12.6c0,2-0.7,3.1-2.6,3.1c-1.1,0-2.1,0-3.3,0c-0.1-0.9-0.2-1.6-0.4-2.1c1.2,0.2,2.1,0.2,3.1,0.2
	c1,0,1.5-0.6,1.5-1.7v-10.3h-16.4v14.1h-1.7L848.8,277.3L848.8,277.3z M853.9,290.8V283h9.6v6.4h-7.8v1.2h-1.9V290.8z M847,272.3h11
	c-0.4-0.6-0.7-1.2-1.2-1.9l1.9-0.7c0.5,0.7,1.1,1.7,1.5,2.6h10.3v1.7h-23.5L847,272.3L847,272.3z M861.7,288.1v-3.3h-6.2v3.3H861.7z
	 M855.7,279.3l1.2,1.2c-1.9,1.6-3.6,3.1-5.2,4.1c-0.5-0.7-0.7-1.2-1.2-1.4C852.3,282.1,854.1,280.8,855.7,279.3L855.7,279.3z
	 M859.8,280.5l1.2-1.2c2.3,1.5,4,2.6,5.3,3.6l-1.2,1.5C863.5,283.1,861.8,281.8,859.8,280.5L859.8,280.5z M873.1,290.8
	c4.9-1.4,8.8-3.7,11.5-6.8c-0.2-0.5-0.5-0.7-0.7-1.2c-2.5,2.5-5.7,4.5-9.9,5.7c-0.2-0.6-0.6-1.1-0.9-1.6c4.2-1.2,7.4-3,9.6-5.4
	c-0.2-0.2-0.6-0.5-0.7-0.7c-2.1,1.5-4.7,2.6-7.8,3.6c-0.4-0.5-0.7-1.1-1.2-1.6c3.8-0.9,6.8-2.3,9.1-4.3H876v-1.7h17.2v1.7h-8.8
	c-0.5,0.5-1,0.7-1.4,1.2c1.2,0.9,2.1,2.1,3,3.3c2.6-1.2,4.8-2.5,6.8-3.7l1.2,1.5c-1.4,0.7-2.7,1.5-4.2,2.3c1.4,3.1,3.7,5.2,6.8,6.3
	c-0.5,0.7-1.1,1.2-1.5,1.9c-3.1-1.5-5.4-4-6.9-7.4c-0.4,0.2-0.7,0.5-1.4,0.7c0.9,3.3,0.7,5.8-0.4,7.4c-0.6,0.6-1.7,0.9-3.3,0.9
	c-0.6,0-1.6,0-3.1,0c-0.1-0.7-0.2-1.2-0.4-2c1.2,0.1,2.3,0.2,3.3,0.2c1.7,0,2.6-1.1,2.6-3.1c-0.1-0.7-0.1-1.5-0.4-2.1
	c-2.7,2.7-6.6,4.9-11.2,6.4C873.8,292,873.4,291.4,873.1,290.8L873.1,290.8z M873.7,272.7h10.8c-0.5-0.7-1.1-1.5-1.6-2.1l1.6-1.2
	c0.7,0.9,1.4,1.7,2,2.6l-1.2,0.7h10.3v4.1h-1.9v-2.5h-18.2v2.5h-1.9L873.7,272.7L873.7,272.7z M910,270.4l1.4-0.7
	c0.7,0.7,1.4,1.6,1.9,2.5l-1.1,0.7h9.1v1.5h-9v1.6h8v1.4h-8v1.7h8v1.4h-8v1.7h9v1.5H904v0.9h-1.7V276c-0.7,0.9-1.6,1.9-2.5,2.6
	c-0.4-0.5-0.7-0.9-1.2-1.5c2.3-2,4.3-4.3,5.8-7.2l1.7,0.7c-0.5,0.7-0.9,1.4-1.4,2.1h6.8C911.1,271.8,910.6,271.1,910,270.4
	L910,270.4z M899.5,285.6h10.3V284h1.6v1.6h10.3v1.5h-8.3c2.7,2,5.9,3.3,9.4,4c-0.5,0.7-0.7,1.2-1.2,1.7c-4-1.2-7.3-3-10.1-5.3v5.6
	h-1.6v-5.6c-3,2.5-6.3,4.1-10.1,5.4c-0.4-0.6-0.7-1.1-1.2-1.5c3.5-0.9,6.4-2.3,9.3-4.5h-8.3L899.5,285.6L899.5,285.6z M904.1,282
	h6.6v-1.7h-6.6V282z M904.1,278.8h6.6v-1.7h-6.6V278.8z M904.1,275.7h6.6v-1.6h-6.6V275.7z M925.1,270.5h11.5v1.5h-1.4v6.6
	c0.5,0,1.1-0.1,1.5-0.2c0,0.7,0,1.2,0,1.5c-0.5,0.1-1.1,0.1-1.5,0.2v1.7h-1.6v-1.5c-2.6,0.2-5.6,0.7-8.7,1.2l-0.2-1.6
	c0.7-0.1,1.2-0.2,2-0.2V272H925L925.1,270.5L925.1,270.5z M945.1,284.2l1.2,1.5c-1.6,0.9-3.1,1.7-4.5,2.6c1.9,1.2,4,2.1,6.6,2.6
	c-0.4,0.4-0.7,0.9-1.2,1.6c-4.3-1.1-7.5-3.1-9.9-6.2v6.8h-1.7V284c-3,0.1-5.7,0.2-8.8,0.4c0-0.6-0.1-1.1-0.4-1.6
	c6.3,0,12.2-0.4,17.7-1.1l0.4,1.6c-2.3,0.2-4.8,0.5-7.2,0.6v0.1c0.7,1.2,1.9,2.3,3.1,3.2C942.2,286.3,943.8,285.2,945.1,284.2
	L945.1,284.2z M937.1,274.7l1.1-1.2c1.5,0.9,3.1,2,4.5,3.1c1.2-1.2,2.1-2.6,2.6-4h-7.7v-1.5h9.5v1.2c-0.6,2-1.6,3.7-3.1,5.2
	c1.2,0.9,2.6,1.9,3.8,2.7l-1.2,1.5c-1.2-1.2-2.6-2.1-3.8-3.1c-1.4,1.2-3.1,2.1-5.2,3.1c-0.4-0.6-0.6-1.1-0.9-1.5
	c1.9-0.7,3.6-1.6,4.8-2.6C939.9,276.7,938.5,275.6,937.1,274.7L937.1,274.7z M924.9,291.3c3.6-0.9,6.6-2.3,9.3-4l0.9,1.2
	c-3.1,1.7-6.2,3.1-9.5,4.1C925.2,292.3,925,291.9,924.9,291.3L924.9,291.3z M924.9,287.3c2.7-0.7,5.4-1.6,7.8-3.1l0.7,1.4
	c-2.6,1.4-5.3,2.5-8,3.1C925.6,288.6,925.2,288.1,924.9,287.3L924.9,287.3z M933.8,278.8v-1.2h-5.4v1.9
	C930.2,279.3,932,279.2,933.8,278.8L933.8,278.8z M928.3,276.3h5.3v-1.5h-5.3V276.3z M928.3,273.5h5.3v-1.4h-5.3V273.5z
	 M965.5,269.8h1.9v6.2l5.8-1.7c-0.1,3.1-0.1,5.7-0.2,7.7c-0.1,2.1-1.1,3.2-2.6,3.2c-0.7,0.1-1.4,0.1-2.1,0c-0.1-0.6-0.2-1.2-0.4-2
	c0.7,0.1,1.4,0.2,2,0.2c0.7,0,1.2-0.7,1.2-1.9c0.1-1.5,0.1-3.1,0.1-4.9l-3.8,1.2v10.4h-1.9v-9.8l-3.6,1.2v9.1c0,1.2,0.6,1.9,2,1.9
	h5.9c1.5,0,2.3-0.6,2.5-1.7c0.2-1.1,0.4-2.1,0.5-3.6c0.7,0.2,1.2,0.5,2,0.7c-0.2,1.5-0.5,2.7-0.6,3.7c-0.5,1.9-1.6,2.7-3.8,2.7h-6.8
	c-2.3,0-3.3-1.2-3.3-3.3v-9l-1.9,0.6l-0.4-1.7l2.1-0.7v-5.6h1.9v4.9l3.6-1.1V269.8L965.5,269.8z M950.4,288.8
	c1.2-0.4,2.3-0.7,3.6-1.2v-9.5h-3.1v-1.7h3.1v-6.6h1.7v6.6h2.7v1.7h-2.7v8.9c1.1-0.4,2-0.7,3.1-1.1c0.1,0.6,0.1,1.2,0.2,1.7
	c-2.6,0.9-5.2,1.9-7.8,3L950.4,288.8z"/>
<path opacity="0.2" fill="#FFFFFF" enable-background="new    " d="M968.1,37.6c37.7,0,68.6-30.7,68.6-68.5s-30.9-68.6-68.6-68.6
	c-37.7,0-68.6,30.9-68.6,68.6C899.6,7.1,930.4,37.6,968.1,37.6L968.1,37.6z"/>
<path opacity="0.3" fill="#FFFFFF" enable-background="new    " d="M968.1,18c27,0,49-21.9,49-48.8s-22-49.1-49-49.1
	c-27,0-49,22-49,49.1S941.2,18,968.1,18L968.1,18z"/>
<path fill="#FBDE56" d="M968.1-6.5c13.5,0,24.5-11,24.5-24.4c0-13.5-11-24.6-24.5-24.6c-13.5,0-24.5,11.1-24.5,24.6
	S954.8-6.5,968.1-6.5L968.1-6.5z"/>
<path opacity="0.84" fill="#FFFFFF" enable-background="new    " d="M769.1,70.5c3.2,0,6.1,2.1,7.2,4.9h-14.3
	C763.1,72.6,765.9,70.5,769.1,70.5L769.1,70.5z M792.3,75.3h1h8.5h57.2c0.1-0.6,0.2-1.1,0.2-1.7c0-7-5.8-12.6-12.7-12.6
	c-3.1,0-5.9,1.1-8.3,3c-3.1-8.4-11.9-14.6-22.1-14.6c-11.5,0-21,7.7-23,17.7c-1.4-3.6-4.8-6.2-8.9-6.2c-5.2,0-9.4,4.2-9.4,9.4
	c0,1.9,0.6,3.6,1.5,4.9h11.5C787.9,75.3,792.3,75.3,792.3,75.3z"/>
</svg>
