<?xml version="1.0" encoding="utf-8"?>
<!-- Generator: Adobe Illustrator 18.0.0, SVG Export Plug-In . SVG Version: 6.00 Build 0)  -->
<!DOCTYPE svg PUBLIC "-//W3C//DTD SVG 1.1//EN" "http://www.w3.org/Graphics/SVG/1.1/DTD/svg11.dtd">
<svg version="1.1" id="图层_1" xmlns="http://www.w3.org/2000/svg" xmlns:xlink="http://www.w3.org/1999/xlink" x="0px" y="0px"
	 viewBox="21 -178.5 640 1136" enable-background="new 21 -178.5 640 1136" xml:space="preserve">
<path fill="#78D0F7" d="M248.8,200.8h359.3c9.2,0,16.8,9.7,16.8,21.5v135.9c0,11.8-7.6,21.5-16.8,21.5H316l-38.2,27l5.1-27h-34.1
	c-9.2,0-16.7-9.7-16.7-21.5V222.3C232.2,210.5,239.6,200.8,248.8,200.8L248.8,200.8z"/>
<path fill="#FFFFFF" d="M267.4,244.4c0.8-0.1,1.5-0.1,2.4-0.2v-9.3h-2.7v-1.4h24.3v1.4h-12.8v8.1c0.8-0.1,1.5-0.2,2.4-0.4
	c0,0.4,0,0.8,0,1.5c-0.7,0.1-1.5,0.2-2.4,0.4v3.1h-1.7v-2.8c-2.7,0.5-5.8,0.8-9,1.4L267.4,244.4z M270.9,224.5h16.9v7.8H286v-0.6
	h-13.5v0.6h-1.7L270.9,224.5L270.9,224.5z M279.8,238v-1.4h9.7v1.4c-0.8,2-2,3.7-3.3,5.2c1.4,0.9,3.1,1.8,5.2,2.2
	c-0.5,0.7-0.8,1.2-1.2,1.8c-2-0.7-3.8-1.7-5.2-2.8c-1.4,1.3-3.1,2.2-5,3.1c-0.2-0.5-0.6-0.9-1.1-1.5c1.8-0.7,3.4-1.5,4.7-2.7
	c-1.4-1.4-2.4-3.2-3-5.2H279.8z M272.5,230.3H286v-1.5h-13.5V230.3z M286,226h-13.5v1.5H286V226z M287.7,238h-5.2
	c0.6,1.5,1.4,3,2.5,4.1C286.1,241,286.9,239.5,287.7,238L287.7,238z M276.9,243.2v-1.7h-5.4v2.4
	C273.3,243.7,275.1,243.4,276.9,243.2L276.9,243.2z M271.4,236.8h5.4v-2h-5.4V236.8z M271.4,240.1h5.4v-1.9h-5.4V240.1z
	 M305.9,247.4h-1.8v-12.4h12.3v9.6c0,1.8-0.9,2.7-2.7,2.7h-4c0-0.6-0.1-1.2-0.4-1.9c1.5,0,2.8,0.1,3.8,0.1c1.1,0,1.5-0.5,1.5-1.3
	v-1.2h-8.8L305.9,247.4L305.9,247.4z M303,232.1h6.3v-1.8H304v-1.5h5.3v-1.5h-5.9v-1.5h5.9v-2.2h1.8v2.2h6.4v1.5h-6.4v1.5h5.7v1.5
	h-5.7v1.8h6.7v1.5H303L303,232.1L303,232.1z M293.5,242c1.7-2.4,2.8-5.1,3.9-8h-3.5v-1.5h3.8v-8.9h1.5v8.9h3.2v1.5h-3.2v3.1l0.9-0.7
	c1.3,1.3,2.5,2.4,3.3,3.3l-1.3,1.2c-1.1-1.2-2-2.4-3-3.3v10h-1.5v-10.3c-0.9,2.5-2.1,4.7-3.3,6.7C293.9,243.2,293.7,242.6,293.5,242
	L293.5,242z M314.6,236.7h-8.8v1.7h8.8V236.7z M305.9,241.5h8.8v-1.7h-8.8V241.5z M299.6,230.3c0.7-1.5,1.3-3.2,1.8-5l1.5,0.6
	c-0.6,1.8-1.2,3.4-1.9,5.1L299.6,230.3z M293.8,225.8l1.5-0.5c0.6,1.7,1.1,3.3,1.7,5l-1.5,0.6C294.9,228.9,294.3,227.3,293.8,225.8
	L293.8,225.8z M331.5,232.3c1.5-2.7,2.8-5.8,3.9-9l1.8,0.6c-0.5,1.3-0.9,2.6-1.5,3.9h8.4v1.7h-2.2c-0.1,5.2-1.2,9.2-3,11.9
	c1.5,1.8,3.4,3.2,5.7,4.2c-0.5,0.6-0.9,1.2-1.4,1.8c-2.4-1.3-4.1-2.8-5.4-4.4c-1.4,1.5-3.4,3.1-6,4.6c-0.4-0.5-0.7-0.9-1.3-1.7
	c2.8-1.4,4.9-3,6.2-4.5c-1.5-2.4-2.6-5.4-3-9.3c-0.4,0.5-0.6,0.9-0.8,1.4C332.4,233.3,332,232.8,331.5,232.3L331.5,232.3z
	 M320.5,224.8H332v1.8h-5.6c-1.2,2.4-2.1,4.3-3,5.7c1.9-0.1,3.7-0.2,5.2-0.4c-0.5-0.9-0.8-1.9-1.4-2.8l1.5-0.8
	c1.2,2.2,2.2,4.2,3.2,6.4c-0.7,0.4-1.3,0.6-1.8,0.8c-0.2-0.6-0.5-1.3-0.8-1.9c-2.4,0.1-4.5,0.4-6.3,0.5c-0.7,0.1-1.3,0.2-1.8,0.5
	l-0.8-1.7c0.6-0.4,1.1-0.8,1.4-1.4c0.8-1.3,1.7-3,2.5-4.8h-3.9L320.5,224.8L320.5,224.8z M320.2,244c1.7-0.1,3.3-0.2,5-0.5v-4.1
	h-4.4v-1.7h4.4v-3.1h2v3.1h4.6v1.7h-4.6v3.9c1.5-0.1,3.2-0.4,4.9-0.6c0,0.4,0,0.9,0.1,1.8c-3.5,0.5-7.3,0.9-11.5,1.4L320.2,244z
	 M337.7,239.9c1.4-2.4,2.1-5.8,2.2-10.4h-5C335.2,234.1,336.2,237.6,337.7,239.9L337.7,239.9z M347.8,227.5h2.4
	c0.6-1.4,1.2-2.8,1.5-4l2,0.6c-0.5,1.2-0.9,2.4-1.4,3.4h4.9V247h-1.9v-1.9h-5.6v2h-1.9L347.8,227.5L347.8,227.5z M357.5,232.6
	c1.5-2.5,2.8-5.4,3.9-9.1l2,0.5c-0.4,1.3-0.8,2.5-1.2,3.5h7.8c-0.1,8.4-0.4,13.6-0.5,15.7c-0.1,2.6-1.4,3.9-4,3.9
	c-1.5,0-3-0.1-4.5-0.1c-0.1-0.8-0.2-1.5-0.5-2.2h0.1c1.7,0.2,3.1,0.4,4.5,0.4c1.4,0,2.2-0.7,2.4-2.4c0.2-2.4,0.4-6.8,0.4-13.5h-6.5
	c-0.7,1.5-1.4,3-2.2,4.1C358.8,233.2,358.2,232.8,357.5,232.6L357.5,232.6z M349.7,243.2h5.6v-6.1h-5.6V243.2z M355.2,229.4h-5.6
	v5.9h5.6V229.4z M359.6,234.2l1.5-1.2c1.8,2.1,3.2,4,4.4,5.5l-1.9,1.3C362.5,238,361.1,236.1,359.6,234.2L359.6,234.2z M384.3,223.6
	h1.9v3.9c0.7,1.9,1.5,3.7,2.5,5.3c1.8-1.5,3.5-3.3,5.3-5.4l1.7,1.5c-1.9,2-3.9,3.8-6,5.5c2.1,3.4,4.9,6.1,7.9,8.3
	c-0.7,0.7-1.3,1.3-1.7,1.9c-4.3-3.4-7.6-7.6-9.7-12.5v11.3c0,2.5-1.1,3.7-3.4,3.7c-0.7,0-1.8,0-3.2,0c-0.1-0.6-0.2-1.3-0.4-2.2
	c1.3,0.2,2.4,0.2,3.2,0.2c1.2,0,1.9-0.6,1.9-1.8L384.3,223.6L384.3,223.6z M373.8,231.4v-1.9h8.5v1.8c-1.4,5.4-3.9,9.9-7.6,13.8
	c-0.6-0.7-1.1-1.2-1.5-1.5c3.7-3.9,6-7.9,7.1-12.2H373.8z M424.2,244.5c-0.7,0.6-1.2,1.3-1.5,1.8c-4-1.2-7.2-3.4-9.8-6.6v7.9h-1.9
	v-7.9c-2.2,2.6-5.6,5-9.8,7c-0.4-0.5-0.8-1.1-1.4-1.5c3.8-1.5,7-3.4,9.3-5.8h-8.9v-1.8h10.8v-2.6h-6.5v0.9h-1.8v-11.2h18.5v11.2
	h-1.8v-0.9h-6.5v2.6h10.8v1.8h-9.1C416.9,241.9,420,243.6,424.2,244.5L424.2,244.5z M412.8,233.3h6.5v-2.7h-6.5V233.3z M419.3,226.3
	h-6.5v2.7h6.5V226.3z M404.4,233.3h6.5v-2.7h-6.5V233.3z M404.4,229h6.5v-2.7h-6.5V229z M428.2,231.4h5.9c-0.5-0.8-1.2-1.7-1.8-2.5
	l1.4-1.1c0.8,0.9,1.5,1.8,2.1,2.6l-1.3,0.9h5.6c0.8-1.1,1.7-2.2,2.2-3.4l1.9,1.1c-0.7,0.9-1.4,1.8-1.9,2.4h6v12.8
	c0,2-0.9,3.1-2.8,3.1c-0.9,0-2.1,0-3.4,0c-0.1-0.9-0.2-1.7-0.4-2c1.3,0.1,2.4,0.1,3.2,0.1c1.1,0,1.7-0.6,1.7-1.8V233h-16.6v14.5
	h-1.9L428.2,231.4L428.2,231.4z M433.5,245.1v-7.8h9.8v6.5h-8v1.3L433.5,245.1L433.5,245.1z M426.4,226.1h11.1
	c-0.2-0.6-0.6-1.2-1.1-1.9l1.9-0.8c0.5,0.8,0.9,1.8,1.5,2.7h10.5v1.8h-24V226.1z M441.6,242.3v-3.4h-6.3v3.4H441.6z M435.4,233.3
	l1.3,1.3c-1.9,1.7-3.7,3.1-5.3,4.2c-0.6-0.6-0.9-1.1-1.2-1.4C432,236.2,433.8,234.8,435.4,233.3L435.4,233.3z M439.7,234.6l1.1-1.3
	c2.5,1.5,4.3,2.7,5.4,3.7l-1.2,1.5C443.4,237.2,441.6,235.9,439.7,234.6L439.7,234.6z M465.5,245.8c1.8-1.3,3.4-3,5-4.8
	c-0.6-2.4-1.1-6.1-1.3-11.3h-6.3v3.9h5c-0.1,2.8-0.1,5.3-0.2,7.4c0,2-1.1,3-3,3c-0.6,0-1.2,0-1.8,0c-0.1-0.6-0.2-1.2-0.5-1.9
	c0.7,0,1.4,0.1,2,0.1c0.9,0,1.4-0.6,1.4-1.7c0.1-1.7,0.1-3.4,0.1-5.3h-3.1c-0.1,2.8-0.4,5.2-0.7,6.7c-0.6,2-1.5,3.8-2.8,5.7
	c-0.5-0.5-1.1-0.9-1.5-1.4c1.3-1.7,2.2-3.4,2.6-5.1c0.5-1.5,0.6-4.1,0.6-7.7v-5.5h8.2c0-1.3-0.1-2.8-0.1-4.4h1.9
	c0,1.5,0,3.1,0.1,4.4h6v1.8h-6c0.1,3.9,0.5,7,0.8,9.2c1.2-1.8,2.1-3.9,3-6.1l1.8,0.8c-1.3,3-2.7,5.7-4.3,7.8c0.4,1.2,0.7,2,1.2,2.6
	c0.4,0.7,0.8,0.9,1.1,0.9c0.4,0,0.6-0.1,0.6-0.6c0.1-0.7,0.2-1.9,0.4-3.4c0.7,0.2,1.3,0.5,1.8,0.6c-0.1,1.7-0.2,2.8-0.4,3.4
	c-0.4,1.5-0.9,2.2-2,2.2c-0.9,0-1.9-0.5-2.7-1.7c-0.5-0.6-0.8-1.3-1.2-2.2c-1.3,1.5-2.7,3-4.3,4C466.4,246.7,466,246.3,465.5,245.8
	L465.5,245.8z M452.6,240.6c0.9-0.2,1.9-0.5,3.1-0.8v-8.3h-2.8v-1.8h2.8v-6h1.8v6h2.6v1.8h-2.6v7.8c0.8-0.2,1.7-0.5,2.6-0.7
	c0,0.7,0,1.3,0,1.9c-2.6,0.7-5,1.4-7.1,2.1L452.6,240.6z M471.9,224.8l1.2-1.2c1,0.7,2,1.5,3,2.5l-1.2,1.3
	C473.9,226.4,472.9,225.6,471.9,224.8L471.9,224.8z"/>
<path fill="#FFFFFF" d="M264.3,292.5c0.8,0,1.5-0.1,2.4-0.2V283H264v-1.4h24.3v1.4h-12.8v8.1c0.8-0.1,1.7-0.2,2.4-0.4
	c0,0.4,0,0.8,0,1.7c-0.7,0-1.5,0.1-2.4,0.2v3.2h-1.7v-3c-2.7,0.5-5.8,0.9-9,1.4L264.3,292.5z M267.8,272.7h16.9v7.9h-1.8V280h-13.5
	v0.6h-1.7L267.8,272.7L267.8,272.7z M276.8,286.2v-1.4h9.7v1.4c-0.8,2-1.9,3.8-3.3,5.2c1.4,1.1,3.2,1.8,5.2,2.4
	c-0.5,0.6-0.8,1.2-1.1,1.7c-2.1-0.7-3.9-1.7-5.3-2.8c-1.4,1.3-3.1,2.4-5,3.2c-0.2-0.6-0.6-1.1-1.1-1.7c1.8-0.7,3.4-1.5,4.7-2.6
	c-1.3-1.5-2.4-3.3-2.8-5.3L276.8,286.2L276.8,286.2z M269.4,278.6h13.5v-1.5h-13.5V278.6z M282.9,274.1h-13.5v1.5h13.5V274.1z
	 M284.6,286.2h-5.2c0.6,1.7,1.4,3,2.5,4.1C283,289.1,284,287.7,284.6,286.2L284.6,286.2z M273.8,291.4v-1.7h-5.4v2.4
	C270.3,292,272,291.7,273.8,291.4L273.8,291.4z M268.4,285h5.4v-2h-5.4V285z M268.4,288.3h5.4v-1.9h-5.4V288.3z M296.6,288.4
	c2.1,0.9,4.5,2,7,3.2l5.6-4.7h-13.7V285l1.2-3h-5.8v-1.9h6.5l1.3-3.3h-6.4V275h7.2l1.2-3.2h2.2l-1.3,3.2h11.6v1.9h-12.3l-1.3,3.3
	h15.3v1.9h-16l-1.2,3h14.2v1.9l-6.5,5.5c1.2,0.6,2.2,1.1,3.4,1.7l-1.2,1.9c-4.1-2.1-8.2-4.1-12.1-5.9L296.6,288.4z M317.2,292.3h7.8
	v-20.2h2v20.2h4.4v-20.2h2v20.2h7.9v1.8h-24.1L317.2,292.3L317.2,292.3z M320.1,277c1.3,3.1,2.6,6.4,3.9,9.9l-2,0.9
	c-1.2-3.4-2.4-6.8-3.7-10.2L320.1,277z M334.3,287.1c1.7-3.4,3.1-6.7,4.1-10l2,0.8c-1.5,3.9-3,7.2-4.4,10L334.3,287.1z M344.7,275.8
	h2.5c0.6-1.5,1.1-2.8,1.4-4.1l2.1,0.6c-0.6,1.3-1.1,2.5-1.5,3.5h4.8v19.4h-1.9v-1.9h-5.6v2.1h-1.9L344.7,275.8L344.7,275.8z
	 M354.4,280.7c1.5-2.5,2.8-5.4,3.9-9.1l2.1,0.6c-0.5,1.2-0.8,2.4-1.3,3.4h7.8c-0.1,8.4-0.4,13.6-0.5,15.8c-0.1,2.5-1.4,3.8-4,3.8
	c-1.4,0-3,0-4.5-0.1c-0.1-0.8-0.2-1.5-0.4-2.1l0,0c1.7,0.1,3.2,0.2,4.5,0.2c1.5,0,2.2-0.7,2.4-2.2c0.2-2.5,0.4-7,0.5-13.6h-6.6
	c-0.7,1.7-1.4,3-2.1,4.2C355.7,281.3,355.1,281,354.4,280.7L354.4,280.7z M346.6,291.5h5.6v-6.3h-5.6V291.5z M352.1,277.6h-5.6v5.9
	h5.6V277.6z M356.6,282.4l1.4-1.1c1.8,2.1,3.3,3.9,4.4,5.5l-1.9,1.2C359.5,286.2,358,284.3,356.6,282.4L356.6,282.4z M381.2,271.8h2
	v3.9c0.7,1.9,1.4,3.7,2.4,5.3c1.8-1.4,3.6-3.3,5.4-5.3l1.5,1.4c-1.9,2-3.9,3.9-6,5.5c2.2,3.4,4.9,6.3,7.9,8.4
	c-0.7,0.6-1.2,1.3-1.7,1.8c-4.3-3.3-7.5-7.6-9.6-12.5v11.5c0,2.4-1.2,3.7-3.5,3.7c-0.7,0-1.8,0-3.2-0.1c-0.1-0.6-0.2-1.3-0.4-2.1
	c1.3,0.1,2.4,0.1,3.2,0.1c1.2,0,1.9-0.6,1.9-1.8V271.8z M370.8,279.6v-1.8h8.4v1.8c-1.4,5.3-3.9,9.9-7.6,13.7
	c-0.6-0.7-1.1-1.2-1.5-1.5c3.7-3.9,6-7.9,7.1-12.2L370.8,279.6L370.8,279.6z M421.1,292.7c-0.6,0.7-1.2,1.3-1.5,1.9
	c-4-1.3-7.2-3.5-9.8-6.7v7.9h-1.9v-7.9c-2.2,2.6-5.6,5-9.8,7c-0.4-0.5-0.8-0.9-1.4-1.5c3.8-1.4,7-3.4,9.3-5.7h-8.9v-1.8h10.8v-2.7
	h-6.4v1.1h-1.9v-11.3H418v11.3h-1.8v-1.1h-6.5v2.7h10.8v1.8h-9.1C413.8,290.1,417,291.7,421.1,292.7L421.1,292.7z M409.8,281.4h6.5
	v-2.6h-6.5V281.4z M416.3,274.5h-6.5v2.7h6.5V274.5z M401.5,281.4h6.4v-2.6h-6.4V281.4z M401.5,277.2h6.4v-2.7h-6.4V277.2z
	 M486,281.7c2.1,1.8,4.3,3.5,6.4,5.5c-0.5,0.6-1.1,1.1-1.4,1.5c-0.7-0.7-1.4-1.3-2.1-2c-2.1,0.1-4.4,0.2-6.6,0.4v5.4
	c0,1.9-0.9,2.8-3,2.8c-0.8,0-1.9,0-3.2-0.1c0-0.6-0.1-1.2-0.2-2c1.3,0.2,2.4,0.2,3.1,0.2c1,0,1.4-0.4,1.4-1.3v-5c-2,0-4,0.1-6,0.2
	c-0.9,0.1-1.9,0.2-2.8,0.4l-0.8-2.1c1.2-0.1,2.1-0.5,3.1-0.9c2.5-1.2,4.9-2.4,7-3.7c-2.8,0.2-5.2,0.5-7.1,0.6c-1,0.1-1.5,0.1-2,0.2
	l-0.7-2c0.7-0.2,1.5-0.5,2.1-0.8c2.1-1.2,4.1-2.5,6.2-4.1c-2.7,0.2-5.6,0.4-8.5,0.5c-0.1-0.5-0.2-1.1-0.4-1.7
	c7.7-0.4,14.7-0.7,20.7-1.4l0.4,1.8c-3.6,0.4-7.1,0.6-10.8,0.8l0.9,0.7c-2.5,1.7-4.9,3.1-7.1,4.2c3.7-0.1,6.7-0.4,9.1-0.6
	c1.7-0.9,3.1-2,4.5-3.1l1.7,1.3c-4.1,2.8-8.9,5.5-14.3,8.1c3.3-0.1,7.2-0.2,11.8-0.5c-0.8-0.8-1.7-1.5-2.5-2.2L486,281.7z
	 M484.5,289.7l1.2-1.3c2.1,1.4,4.4,3.1,6.9,5l-1.5,1.5C488.8,293,486.7,291.2,484.5,289.7L484.5,289.7z M474.9,288.4l1.5,1.3
	c-2,1.9-4.3,3.7-6.5,5.4c-0.4-0.5-0.8-0.9-1.4-1.5C470.7,292.2,472.8,290.4,474.9,288.4L474.9,288.4z M514.8,278.3
	c1.4,1.8,2.8,3.9,4.3,6.3c-0.6,0.2-1.2,0.6-1.8,1.1c-0.5-0.7-0.8-1.4-1.2-2c-0.8,0-1.5,0.1-2.4,0.1v8.3c0,1.1,0.4,1.5,1.1,1.5h1.2
	c0.8,0,1.3-0.5,1.4-1.2c0.1-1.1,0.2-2.1,0.2-3.2c0.5,0.2,1.2,0.5,1.9,0.7c-0.1,1.4-0.2,2.5-0.4,3.3c-0.2,1.4-1.1,2.1-2.6,2.1h-2.1
	c-1.8,0-2.6-1.1-2.6-3.1v-8.4c-0.9,0.1-1.9,0.1-2.8,0.2c-0.1,3.5-0.6,5.9-1.4,7.3c-0.9,1.8-2.6,3.3-5.2,4.5
	c-0.4-0.5-0.7-1.1-1.2-1.7c2.4-0.9,3.9-2.2,4.7-3.8c0.7-1.2,1.1-3.3,1.2-6.3c-0.4,0-0.7,0-1.1,0c-0.7,0.1-1.3,0.2-1.9,0.4l-0.8-1.9
	c0.7-0.4,1.2-0.7,1.7-1.2c1.2-1.5,2.4-3.1,3.4-4.8h-5.3V275h7.8c-0.6-0.9-1.2-1.8-1.8-2.5l1.7-1.1c0.6,0.8,1.3,1.7,2.1,2.7l-1.2,0.8
	h7.4v1.7h-9.9l1.3,0.6c-1.3,1.9-2.7,3.5-4,5.1c3.1-0.1,5.9-0.2,8.5-0.4c-0.6-0.9-1.2-1.9-1.8-2.7L514.8,278.3z M498.4,286.5
	c1.3-0.2,3-0.5,5.1-0.8c-0.1,0.7-0.2,1.3-0.4,1.9c-2,0.2-4.3,0.6-7,1.1l-0.4-1.8c1.1-1.1,2.2-2.8,3.7-5.1c-1.8,0.1-3,0.1-3.7,0.2
	l-0.5-1.7c1.4-1.9,3-4.8,4.6-8.6l1.9,0.7c-1.5,3.1-3.1,5.7-4.4,7.7c1.1,0,2,0,3,0c0.5-0.9,0.9-1.9,1.5-2.8l1.8,0.8
	C501.9,281.3,500,284.2,498.4,286.5L498.4,286.5z M495.2,291.6c2.7-0.5,5.6-1.1,8.4-1.8c0,0.8-0.1,1.4-0.1,1.8
	c-3,0.6-5.4,1.3-7.7,1.9L495.2,291.6z M422.4,283.3c0-3.3,0.6-5.8,1.7-7.6c1.2-1.7,2.7-2.5,4.9-2.5c4,0,6,3.2,6,9.7
	c0,3.2-0.6,5.5-1.7,7.3c-1.2,1.7-2.7,2.5-4.7,2.5c-2,0-3.4-0.8-4.5-2.4C423,288.8,422.4,286.4,422.4,283.3L422.4,283.3z
	 M424.9,283.2c0,5.1,1.3,7.6,3.8,7.6c2.6,0,3.8-2.5,3.8-7.7c0-5.2-1.2-7.9-3.7-7.9C426.2,275.2,424.9,277.9,424.9,283.2L424.9,283.2
	z M450.3,292.4h-11.5v-2l5.4-5.5c1.5-1.4,2.5-2.7,3.1-3.5c0.5-0.9,0.7-1.8,0.7-2.7c0-1.1-0.2-1.9-0.8-2.5c-0.6-0.6-1.5-0.9-2.6-0.9
	c-1.8,0-3.3,0.8-4.9,2.2V275c1.4-1.2,3.2-1.7,5.2-1.7c1.7,0,3.1,0.4,4,1.3c0.9,0.9,1.4,2.1,1.4,3.8c0,1.2-0.2,2.2-0.9,3.4
	c-0.6,1.1-1.8,2.6-3.6,4.2l-4.3,4.2l0,0h8.6L450.3,292.4L450.3,292.4z M454.8,283.3c0-3.3,0.5-5.8,1.7-7.6c1.1-1.7,2.7-2.5,4.7-2.5
	c4,0,6,3.2,6,9.7c0,3.2-0.5,5.5-1.7,7.3c-1.2,1.7-2.7,2.5-4.7,2.5c-1.9,0-3.4-0.8-4.5-2.4C455.3,288.8,454.8,286.4,454.8,283.3
	L454.8,283.3z M457.2,283.2c0,5.1,1.3,7.6,3.9,7.6c2.5,0,3.8-2.5,3.8-7.7c0-5.2-1.3-7.9-3.8-7.9
	C458.5,275.2,457.2,277.9,457.2,283.2L457.2,283.2z"/>
<path fill="#FFFFFF" d="M207.8,47.3c4.9,0,9,3.1,10.6,7.2h-21.3C198.9,50.4,202.9,47.3,207.8,47.3L207.8,47.3z M242.1,54.5h1.4h12.7
	h85c0.1-0.8,0.2-1.7,0.2-2.6c0-10.4-8.5-18.8-18.9-18.8c-4.6,0-8.9,1.7-12.2,4.4c-4.6-12.5-17.5-21.6-32.8-21.6
	c-17,0-31.1,11.3-34.1,26.3c-2-5.3-7.1-9.1-13.1-9.1c-7.7,0-14,6.3-14,13.9c0,2.7,0.8,5.3,2.2,7.4h17
	C235.6,54.5,242.1,54.5,242.1,54.5z"/>
<path fill="#FC928A" d="M300.8,619.3h79.4c8.5,0,15.6,7,15.6,15.6l0,0c0,8.6-7.1,15.6-15.6,15.6h-79.4c-8.5,0-15.6-7-15.6-15.6l0,0
	C285.2,626.3,292.3,619.3,300.8,619.3L300.8,619.3z"/>
<path fill="#FC928A" d="M334.3,650.5h79.3c8.6,0,15.6,7.1,15.6,15.7l0,0c0,8.5-7,15.6-15.6,15.6h-79.3c-8.6,0-15.7-7.1-15.7-15.6
	l0,0C318.6,657.6,325.7,650.5,334.3,650.5L334.3,650.5z"/>
<path fill="#FC928A" d="M391.7,693.2h24c8.5,0,15.6,7.1,15.6,15.6l0,0c0,8.6-7.1,15.7-15.6,15.7h-24c-8.6,0-15.7-7.1-15.7-15.7l0,0
	C376,700.3,383.1,693.2,391.7,693.2L391.7,693.2z"/>
<path fill="#FC928A" d="M254,650.5h79.3c8.6,0,15.6,7.1,15.6,15.7l0,0c0,8.5-7,15.6-15.6,15.6H254c-8.6,0-15.7-7.1-15.7-15.6l0,0
	C238.2,657.6,245.4,650.5,254,650.5L254,650.5z"/>
<path fill="#FC928A" d="M212.2,619.3h79.3c8.6,0,15.6,7,15.6,15.6l0,0c0,8.6-7,15.6-15.6,15.6h-79.3c-8.6,0-15.7-7-15.7-15.6l0,0
	C196.5,626.3,203.6,619.3,212.2,619.3L212.2,619.3z"/>
<path fill="#FC928A" d="M113.1,619.3h79.3c8.6,0,15.6,7,15.6,15.6l0,0c0,8.6-7,15.6-15.6,15.6h-79.3c-8.6,0-15.6-7-15.6-15.6l0,0
	C97.5,626.3,104.4,619.3,113.1,619.3L113.1,619.3z"/>
<path fill="#FC928A" d="M161.1,650.5h79.3c8.6,0,15.6,7.1,15.6,15.7l0,0c0,8.5-7,15.6-15.6,15.6h-79.3c-8.6,0-15.7-7.1-15.7-15.6
	l0,0C145.4,657.6,152.5,650.5,161.1,650.5L161.1,650.5z"/>
<path fill="#FC928A" d="M64,650.5h79.4c8.5,0,15.6,7.1,15.6,15.7l0,0c0,8.5-7.1,15.6-15.6,15.6H64c-8.5,0-15.6-7.1-15.6-15.6l0,0
	C48.4,657.6,55.5,650.5,64,650.5L64,650.5z"/>
<path fill="#FC928A" d="M64,714h79.4c8.5,0,15.6,7.1,15.6,15.7l0,0c0,8.5-7.1,15.6-15.6,15.6H64c-8.5,0-15.6-7.1-15.6-15.6l0,0
	C48.4,721.1,55.5,714,64,714L64,714z"/>
<path fill="#FC928A" d="M299.3,570.4h24c8.6,0,15.6,7.1,15.6,15.7l0,0c0,8.5-7,15.6-15.6,15.6h-24c-8.6,0-15.6-7.1-15.6-15.6l0,0
	C283.7,577.4,290.7,570.4,299.3,570.4L299.3,570.4z"/>
<path fill="#FC928A" d="M246.7,680.7h79.3c8.6,0,15.6,7.1,15.6,15.6l0,0c0,8.6-7,15.7-15.6,15.7h-79.3c-8.6,0-15.7-7.1-15.7-15.7
	l0,0C230.9,687.8,238,680.7,246.7,680.7L246.7,680.7z"/>
<path fill="#FC928A" d="M180.9,699.5h79.3c8.6,0,15.7,7,15.7,15.6l0,0c0,8.6-7.1,15.7-15.7,15.7h-79.3c-8.6,0-15.6-7.1-15.6-15.7
	l0,0C165.2,706.5,172.2,699.5,180.9,699.5L180.9,699.5z"/>
<g>
	<path fill="#FEF671" d="M175,377.2c33.2,0,61.3,44,62.5,91.5c28.8,18.9,41.3,38.1,45,83.9c3.6,45.8-45.4,105.3-102.8,105.3
		c-57.5,0-104-47.5-104-106c0-33.3,15-63,38.7-82.5c0-1.1-0.1-2.2-0.1-3.4C114.2,417,141.9,377.2,175,377.2L175,377.2z"/>
	<path fill="#693D16" d="M172.3,381.3c2.4-13.3,6.6-27.2,14-39.1c2.4-0.1,4,1.1,5.4,2.7c-7.1,12-17,27.6-16.6,37.4L172.3,381.3z"/>
	<path d="M167.3,468c0,29.9-18.9,54.1-42.4,54.1c-23.3,0-42.2-24.2-42.2-54.1H167.3z"/>
	<path d="M267.9,468c0,29.9-18.9,54.1-42.2,54.1c-23.3,0-42.2-24.2-42.2-54.1H267.9z"/>
	<polygon fill="#FEFEFE" points="122.1,503.3 148.4,477.5 146,475.2 119.8,500.8 	"/>
	<polygon fill="#FEFEFE" points="106.6,501.5 133.2,476.1 128.6,471.3 102,496.8 	"/>
	<path d="M165.3,468.9h20.6l1.3,13c-4.5-3.4-20-4.6-23.9,0L165.3,468.9z"/>
	<path d="M179.6,575.2c10.3-0.2,18.3-0.4,24.3-1.4c9-1.5,13.1-7,13.1-5.7c0,1.4-1.3,9.3-12.5,12.3c-5.6,1.4-13.5,2.4-24.8,2.5
		c-33.7,0.6-37-13.2-37-15.3C142.6,565.4,151.7,575.9,179.6,575.2L179.6,575.2z"/>
	<path fill="#FEFEFE" d="M200.1,574c1.9-0.1,3.9-0.4,5.7-0.6v6.1h-5.7V574z"/>
	<polygon fill="#FEFEFE" points="226.2,503.3 252.5,477.5 250.1,475.2 223.9,500.8 	"/>
	<polygon fill="#FEFEFE" points="210.7,501.5 237.4,476.1 232.8,471.3 206.2,496.8 	"/>
	<path fill="#181818" d="M98.6,672l75.1-21l0.2-25.7l-74.8-20.4c-5,0.2-9.3,2.6-10.6,6.4c-3.2,9.9-2.8,48.4-0.4,56.8
		C89.6,671.4,94.6,672.7,98.6,672L98.6,672z"/>
	<path fill="#181818" d="M260.1,672L185,651l-0.2-25.7l74.8-20.4c5,0.2,9.3,2.6,10.6,6.4c3.2,9.9,2.8,48.4,0.4,56.8
		C269.1,671.4,264.1,672.7,260.1,672L260.1,672z"/>
	<path fill="#181818" d="M171.1,622.4h16.1c1.7,0,3.1,1.3,3.1,3V651c0,1.7-1.4,3.1-3.1,3.1h-16.1c-1.7,0-3-1.4-3-3.1v-25.6
		C168.2,623.7,169.5,622.4,171.1,622.4L171.1,622.4z"/>
	<polygon points="190.3,634.7 242.6,638.1 190.3,640.9 	"/>
	<polygon points="167.7,634.7 115.4,638.1 167.7,640.9 	"/>
</g>
<path fill="#FC928A" d="M125.1,725.1h79.3c8.6,0,15.7,7,15.7,15.6l0,0c0,8.6-7.1,15.6-15.7,15.6h-79.3c-8.6,0-15.6-7-15.6-15.6l0,0
	C109.5,732.1,116.5,725.1,125.1,725.1L125.1,725.1z"/>
<path fill="#FC928A" d="M43.6,779.9h24c8.6,0,15.7,7,15.7,15.6l0,0c0,8.6-7.1,15.6-15.7,15.6h-24c-8.5,0-15.6-7-15.6-15.6l0,0
	C28,786.9,35.1,779.9,43.6,779.9L43.6,779.9z"/>
<path fill="#FC928A" d="M407.3,618.8h79.3c8.6,0,15.7,7.1,15.7,15.7l0,0c0,8.5-7.1,15.6-15.7,15.6h-79.3c-8.6,0-15.6-7.1-15.6-15.6
	l0,0C391.7,625.8,398.7,618.8,407.3,618.8L407.3,618.8z"/>
<path fill="#FC928A" d="M367.1,594.9h79.4c8.5,0,15.6,7,15.6,15.6l0,0c0,8.6-7.1,15.6-15.6,15.6h-79.4c-8.5,0-15.6-7-15.6-15.6l0,0
	C351.5,601.9,358.6,594.9,367.1,594.9L367.1,594.9z"/>
<path fill="#FC928A" d="M462.1,643.3h79.3c8.6,0,15.7,7,15.7,15.6l0,0c0,8.6-7.1,15.6-15.7,15.6h-79.3c-8.6,0-15.6-7-15.6-15.6l0,0
	C446.5,650.3,453.5,643.3,462.1,643.3L462.1,643.3z"/>
<path fill="#3BB16A" d="M65.3,694.2c-1.7,5.5,0.4,5.3,0.1,9.1c-0.1,2.2-1.8,5.3-2.8,7.9c1.1,6.5-1.4,0.4,1.1,3.2
	c1.4-3.7-0.9-0.5,2.5-3.3c2-1.6,0.4,0.7,2.7-1.5c10.2,3.8,4.5,4.6,18.6,2.8c1.3,5.6,4.6,4,7.6,6.9c1.8-10-3.8-5.8-11.8-11.2
	c-6.3-4.3-5.6-0.1-18.8,2.9c1.5-11.3,3.9-5.8,11.2-11.2c3.6-2.6,6.5-6.7,7.1-13.2C75.3,686.6,68.3,688.9,65.3,694.2L65.3,694.2z"/>
<path fill="#3BB16A" d="M347.5,675.1l-4.4-1.1c-7.1,2.2-14.3,3-19.6,7.1c-7.7,6.1-4,11.3-2.5,20.2
	C336.1,697.1,345.8,692.2,347.5,675.1L347.5,675.1z"/>
<path fill="#3BB16A" d="M449.1,613.3c0.2,0.5,0.2,0.9,1.7,1.8c0.9,0.5,1.8,0.6,3,0.9c-1.1,1.8-1.1,0.5-0.8,1.5
	c3-1.2,5.3-0.5,8.4-0.1c0,2.7-0.7,5.8,1.7,6.7c1.5-1.5,0.6,0.2,0.8-2l-0.7-7.4c2.8,0.2,4.9,0.9,6.4,1.8l1.2-1.9l-7.6-0.9
	c0.1-2.9-0.1-7.3,1.7-9c1.9-1.8,5.6-2.8,7.6-1.8c3,1.5,2.7,2.8,7.7,3c3.3,0.2,6.3-0.5,9.2-1.4c-6.5-10.6-13.2-5.6-17.2-3.7
	c-1.7,0.9-5.2,1.3-7.6,2c0.6-2.5,1.3-6.6,3.7-7.7c2.8-1.3,5.2-1.4,8-3.1c4.9-3,7.3-7.9,7.8-15c-27.2,2.5-16.7,14.8-18.8,19.8
	c-1.8,4-2.4,6.3-3.4,10.6c0.5-1.2,0.9,1.3-0.2-0.5l-3.2-3.8c-1.1-1.9,2.7-13.5-14.7-10.9c1.7,5.3,9.2,9.3,14.7,10.9
	c0.9,1.7,1.1,4.4,1.1,6.5c0,0.7,1.7,2.5,1.4,2.9c-0.7,1.5-3,3-5.4,0.2c-0.6-0.6,0.4,1.8-0.4,1.9c-0.8,0.1-3.2-1.8-3.3-0.5
	L449.1,613.3z"/>
<path fill="#FC928A" d="M491.9,720.9h5.8c6.9,0,12.5,5.6,12.5,12.4l0,0c0,7-5.7,12.5-12.5,12.5h-5.8c-6.9,0-12.5-5.5-12.5-12.5l0,0
	C479.4,726.4,485.1,720.9,491.9,720.9L491.9,720.9z"/>
<path fill="#FC928A" d="M600.4,750h18.3c3.4,0,6.3,2.7,6.3,6.3l0,0c0,3.4-2.8,6.1-6.3,6.1h-18.3c-3.4,0-6.3-2.7-6.3-6.1l0,0
	C594.1,752.8,596.9,750,600.4,750L600.4,750z"/>
<path fill="#FC928A" d="M638.1,670.8h3c3.4,0,6.3,2.8,6.3,6.3l0,0c0,3.4-2.8,6.3-6.3,6.3h-3c-3.4,0-6.3-2.8-6.3-6.3l0,0
	C631.8,673.7,634.7,670.8,638.1,670.8L638.1,670.8z"/>
<path fill="#FC928A" d="M207,756.3h18.3c3.4,0,6.3,2.7,6.3,6.1l0,0c0,3.5-2.8,6.3-6.3,6.3H207c-3.4,0-6.3-2.7-6.3-6.3l0,0
	C200.7,759,203.6,756.3,207,756.3L207,756.3z"/>
<path fill="#FC928A" d="M122.4,766.4h3c3.4,0,6.3,2.8,6.3,6.3l0,0c0,3.4-2.8,6.3-6.3,6.3h-3c-3.4,0-6.3-2.8-6.3-6.3l0,0
	C116.1,769.3,118.9,766.4,122.4,766.4L122.4,766.4z"/>
<path fill="#FFFFFF" d="M264.3,335.3c0.8-0.1,1.5-0.2,2.4-0.2v-9.3H264v-1.4h24.3v1.4h-12.8v8.1c0.8-0.1,1.7-0.2,2.4-0.4
	c0,0.2,0,0.8,0,1.5c-0.7,0.1-1.5,0.2-2.4,0.4v3.1h-1.7v-2.8c-2.7,0.4-5.8,0.8-9,1.3L264.3,335.3z M267.8,315.4h16.9v7.8h-1.8v-0.6
	h-13.5v0.6h-1.7L267.8,315.4L267.8,315.4z M276.8,328.9v-1.4h9.7v1.4c-0.8,2-1.9,3.7-3.3,5.2c1.4,0.9,3.2,1.8,5.2,2.2
	c-0.5,0.7-0.8,1.2-1.1,1.8c-2.1-0.7-3.9-1.7-5.3-2.8c-1.4,1.3-3.1,2.2-5,3.1c-0.2-0.5-0.6-0.9-1.1-1.5c1.8-0.7,3.4-1.7,4.7-2.7
	c-1.3-1.4-2.4-3.2-2.8-5.2L276.8,328.9L276.8,328.9z M269.4,321.2h13.5v-1.5h-13.5V321.2z M282.9,316.9h-13.5v1.5h13.5V316.9z
	 M284.6,328.9h-5.2c0.6,1.5,1.4,3,2.5,4C283,331.7,284,330.4,284.6,328.9L284.6,328.9z M273.8,334.1v-1.7h-5.4v2.4
	C270.3,334.6,272,334.3,273.8,334.1L273.8,334.1z M268.4,327.7h5.4v-2h-5.4V327.7z M268.4,331h5.4v-1.9h-5.4V331z M290.5,336.5
	c6.7-3,10.4-7.4,10.9-13.5H291v-1.9h10.5c0.1-2.1,0.1-4.4,0.1-6.6h2.1c0,2.2,0,4.4-0.1,6.6h10.9v1.9h-10.9c1.2,6.5,5,10.9,11.4,12.9
	c-0.8,0.8-1.4,1.5-1.9,2c-5.2-2.1-8.8-5.9-10.3-11.3c-1.3,4.8-4.9,8.9-10.8,11.8C291.8,337.9,291.2,337.3,290.5,336.5L290.5,336.5z
	 M318.2,318.4h2.4c0.7-1.4,1.2-2.8,1.5-4l2,0.6c-0.5,1.2-0.9,2.4-1.4,3.4h4.9v19.5h-1.9V336h-5.6v2h-1.9L318.2,318.4L318.2,318.4z
	 M327.9,323.5c1.5-2.5,2.8-5.5,3.9-9.1l2,0.5c-0.4,1.3-0.8,2.4-1.2,3.5h7.8c-0.1,8.3-0.4,13.6-0.5,15.7c-0.1,2.6-1.4,3.9-4,3.9
	c-1.5,0-3-0.1-4.5-0.1c-0.1-0.8-0.2-1.5-0.5-2.2h0.1c1.7,0.2,3.1,0.4,4.5,0.4c1.4,0,2.2-0.8,2.4-2.4c0.2-2.4,0.4-6.8,0.4-13.5h-6.5
	c-0.7,1.5-1.4,3-2.2,4.1C329.2,324.1,328.6,323.7,327.9,323.5L327.9,323.5z M320.1,334.1h5.6V328h-5.6V334.1z M325.6,320.3h-5.6v5.9
	h5.6V320.3z M330,325.1l1.5-1.2c1.8,2.1,3.3,4,4.4,5.5l-1.9,1.3C333,328.9,331.5,327,330,325.1L330,325.1z M354.7,314.5h1.9v3.9
	c0.7,1.9,1.5,3.7,2.5,5.3c1.8-1.5,3.5-3.3,5.3-5.4l1.7,1.5c-1.9,2-3.9,3.8-6,5.5c2.1,3.4,4.9,6.1,7.9,8.3c-0.7,0.7-1.3,1.3-1.7,1.9
	c-4.3-3.4-7.6-7.6-9.7-12.5v11.3c0,2.5-1.1,3.7-3.4,3.7c-0.7,0-1.8,0-3.2,0c-0.1-0.6-0.2-1.3-0.4-2.2c1.3,0.1,2.4,0.2,3.2,0.2
	c1.2,0,1.9-0.6,1.9-1.8L354.7,314.5L354.7,314.5z M344.2,322.3v-1.9h8.5v1.8c-1.4,5.3-3.9,9.9-7.6,13.7c-0.6-0.6-1.1-1.1-1.5-1.4
	c3.7-3.9,6-7.9,7.1-12.2H344.2z M394.6,335.4c-0.7,0.6-1.2,1.2-1.5,1.8c-4-1.2-7.2-3.4-9.8-6.6v7.9h-1.9v-7.9c-2.2,2.6-5.6,5-9.8,7
	c-0.4-0.5-0.8-1.1-1.4-1.5c3.8-1.5,7-3.4,9.3-5.8h-8.9v-1.8h10.8v-2.6h-6.5v0.9h-1.8v-11.2h18.5v11.2h-1.8v-0.9h-6.5v2.6H394v1.8
	h-9.1C387.3,332.8,390.5,334.5,394.6,335.4L394.6,335.4z M383.3,324.2h6.5v-2.7h-6.5V324.2z M389.8,317.2h-6.5v2.7h6.5V317.2z
	 M374.9,324.2h6.5v-2.7h-6.5V324.2z M374.9,319.9h6.5v-2.7h-6.5V319.9z M397.9,318.6h9.8v-1.5h-9.1v-1.5h20v1.5h-9v1.5h10.2v4.5H418
	v-3h-8.4v3.4h-1.9v-3.4h-8v3h-1.8L397.9,318.6L397.9,318.6z M402.8,335.2l0.7-1.5c1.8,0.6,3.5,1.1,5.3,1.7l4.5-2.8h-12.2v-1.5h7.9
	c-0.7-0.8-1.4-1.7-2.2-2.6l1.4-1.1c0.8,0.9,1.5,1.8,2.4,2.7l-1.5,0.9h6.7v1.9l-5.1,3.2c0.9,0.4,2,0.7,3,1.1l-0.7,1.7
	C409,337.3,405.6,336.1,402.8,335.2L402.8,335.2z M410.1,324.1l-0.2,0.5c2.7,2.6,6.5,4.4,11.2,5.2c-0.5,0.7-0.8,1.3-1.2,1.9
	c-4.6-1.3-8.3-3.3-11.1-5.9c-2.6,2.4-6.3,4.5-11.2,6.3c-0.4-0.5-0.7-1.1-1.1-1.7c5.1-1.5,9-3.7,11.7-6.3L410.1,324.1L410.1,324.1z
	 M400.5,323.9h5.4v1.4h-5.4V323.9z M411.5,323.9h5.3v1.4h-5.3V323.9z M400.8,321.4h5.2v1.4h-5.2V321.4z M411.5,321.4h5.1v1.4h-5.1
	V321.4z M435,315.1l1.5-0.9c0.7,0.9,1.4,1.8,2,2.6l-1,0.6h8.9v1.5h-8.6v1.8h7.9v1.5h-7.9v1.8h7.9v1.4h-7.9v1.9h9.1v1.4H428v1.1h-1.8
	v-8.4c-0.7,0.8-1.4,1.5-2.1,2.2c-0.2-0.5-0.7-0.9-1.1-1.5c2.4-2.2,4.3-4.8,5.7-7.8l1.8,0.7c-0.5,0.8-0.9,1.7-1.4,2.4h7.5
	C436,316.6,435.5,315.8,435,315.1L435,315.1z M426.2,330.7h18.5v7.8h-1.8v-1.2h-14.8v1.2h-1.9V330.7z M442.9,332.2h-14.8v3.4h14.8
	V332.2z M428,327.3h8v-1.9h-8V327.3z M428,323.9h8v-1.8h-8V323.9z M428,320.6h8v-1.8h-7.9L428,319V320.6z M451.8,322.2h5.9
	c-0.6-0.8-1.2-1.5-1.9-2.4l1.5-1.1c0.7,0.9,1.4,1.8,2.1,2.6l-1.3,0.8h5.6c0.8-0.9,1.5-2.1,2.2-3.3l1.9,1.1c-0.8,0.9-1.5,1.7-2,2.2h6
	V335c0,2-0.8,3.1-2.7,3.1c-1.1,0-2.2,0-3.4,0c-0.1-0.9-0.2-1.7-0.4-2.1c1.3,0.2,2.2,0.2,3.2,0.2c1,0,1.5-0.6,1.5-1.8v-10.5h-16.6
	v14.4h-1.8L451.8,322.2L451.8,322.2z M457,336v-7.9h9.8v6.6h-8v1.3H457z M449.9,317h11.2c-0.4-0.6-0.7-1.2-1.2-1.9l1.9-0.8
	c0.5,0.8,1.1,1.8,1.5,2.7h10.5v1.8h-24L449.9,317L449.9,317z M465,333.2v-3.4h-6.3v3.4H465z M458.9,324.2l1.3,1.3
	c-1.9,1.7-3.7,3.1-5.3,4.2c-0.5-0.7-0.8-1.2-1.2-1.4C455.4,327.1,457.2,325.7,458.9,324.2L458.9,324.2z M463.1,325.5l1.2-1.3
	c2.4,1.5,4.1,2.7,5.4,3.7l-1.2,1.5C466.9,328.1,465.1,326.8,463.1,325.5L463.1,325.5z M476.6,336c5-1.4,8.9-3.8,11.8-7
	c-0.2-0.5-0.5-0.8-0.8-1.3c-2.5,2.5-5.8,4.5-10.1,5.8c-0.2-0.6-0.6-1.1-0.9-1.7c4.3-1.2,7.6-3,9.8-5.5c-0.2-0.2-0.6-0.5-0.8-0.7
	c-2.1,1.5-4.8,2.7-7.9,3.7c-0.4-0.5-0.7-1.1-1.2-1.7c3.9-0.9,7-2.4,9.3-4.4h-6.2v-1.8h17.5v1.8h-8.9c-0.5,0.5-1,0.8-1.4,1.3
	c1.3,0.9,2.2,2.1,3,3.4c2.6-1.2,4.9-2.5,6.9-3.8l1.2,1.5c-1.4,0.8-2.8,1.5-4.3,2.4c1.4,3.1,3.8,5.3,7,6.5c-0.5,0.7-1.1,1.3-1.5,1.9
	c-3.2-1.5-5.6-4.1-7.1-7.6c-0.4,0.2-0.8,0.5-1.4,0.7c0.9,3.4,0.8,5.9-0.4,7.6c-0.6,0.6-1.8,0.9-3.4,0.9c-0.6,0-1.7,0-3.1,0
	c-0.1-0.7-0.2-1.3-0.4-2c1.3,0.1,2.4,0.2,3.4,0.2c1.8,0,2.6-1.1,2.6-3.2c-0.1-0.8-0.1-1.5-0.4-2.1c-2.8,2.8-6.7,5.1-11.5,6.6
	C477.3,337.2,477,336.6,476.6,336L476.6,336z M477.2,317.5h11c-0.5-0.7-1.1-1.5-1.7-2.2l1.7-1.2c0.8,0.9,1.4,1.8,2,2.7l-1.2,0.7
	h10.5v4.2h-1.9v-2.5h-18.6v2.5h-1.9V317.5z M514.3,315.1l1.4-0.8c0.8,0.8,1.4,1.7,1.9,2.5l-1.1,0.7h9.3v1.5h-9.2v1.7h8.2v1.4h-8.2
	v1.8h8.2v1.4h-8.2v1.8h9.2v1.5h-17.7v0.9h-1.8v-8.7c-0.8,0.9-1.7,1.9-2.5,2.6c-0.4-0.5-0.7-0.9-1.2-1.5c2.4-2,4.4-4.4,5.9-7.3
	l1.8,0.8c-0.5,0.7-0.9,1.4-1.4,2.1h6.9C515.5,316.6,514.9,315.9,514.3,315.1L514.3,315.1z M503.6,330.7h10.5V329h1.7v1.7h10.5v1.5
	h-8.6c2.8,2,6,3.4,9.6,4.1c-0.5,0.7-0.8,1.3-1.2,1.8c-4-1.2-7.5-3-10.3-5.4v5.7h-1.7v-5.7c-3,2.5-6.4,4.2-10.3,5.5
	c-0.4-0.6-0.7-1.1-1.2-1.5c3.5-0.9,6.6-2.4,9.5-4.5h-8.5L503.6,330.7L503.6,330.7z M508.2,327h6.7v-1.8h-6.7V327z M508.2,323.8h6.7
	v-1.8h-6.7V323.8z M508.2,320.6h6.7V319h-6.7V320.6z M529.7,315.3h11.8v1.5h-1.4v6.7c0.5,0,1.1-0.1,1.5-0.2c0,0.7,0,1.2,0,1.5
	c-0.5,0.1-1.1,0.1-1.5,0.2v1.8h-1.7v-1.5c-2.7,0.2-5.7,0.7-8.8,1.2l-0.2-1.7c0.7-0.1,1.3-0.2,2-0.2v-7.8h-1.8L529.7,315.3
	L529.7,315.3z M550.2,329.3l1.2,1.5c-1.7,0.9-3.2,1.8-4.6,2.6c1.9,1.2,4.1,2.1,6.7,2.6c-0.4,0.4-0.7,0.9-1.2,1.7
	c-4.4-1.1-7.7-3.2-10.1-6.3v7h-1.8V329c-3,0.1-5.8,0.2-8.9,0.4c0-0.6-0.1-1.1-0.4-1.7c6.5,0,12.5-0.4,18-1.1l0.4,1.7
	c-2.4,0.2-4.9,0.5-7.3,0.6v0.1c0.8,1.3,1.9,2.4,3.1,3.3C547.1,331.4,548.7,330.3,550.2,329.3L550.2,329.3z M541.9,319.6l1.1-1.2
	c1.5,0.9,3.1,2,4.6,3.2c1.2-1.2,2.1-2.6,2.7-4.1h-7.8v-1.5h9.7v1.3c-0.6,2-1.7,3.8-3.2,5.3c1.3,0.9,2.6,1.9,3.9,2.8l-1.3,1.5
	c-1.3-1.2-2.6-2.1-3.9-3.1c-1.4,1.2-3.2,2.2-5.3,3.1c-0.4-0.6-0.6-1.1-0.9-1.5c1.9-0.7,3.6-1.7,4.9-2.7
	C544.8,321.6,543.3,320.5,541.9,319.6L541.9,319.6z M529.4,336.5c3.6-0.9,6.7-2.4,9.5-4l0.9,1.3c-3.1,1.8-6.3,3.2-9.7,4.2
	C529.8,337.5,529.6,337.1,529.4,336.5L529.4,336.5z M529.5,332.4c2.8-0.7,5.6-1.7,8-3.1l0.8,1.4c-2.7,1.4-5.4,2.5-8.2,3.2
	C530.2,333.7,529.8,333.2,529.5,332.4L529.5,332.4z M538.5,323.8v-1.3H533v1.9C534.9,324.2,536.8,324.1,538.5,323.8L538.5,323.8z
	 M533,321.2h5.4v-1.5H533V321.2z M533,318.3h5.4v-1.4H533V318.3z M571,314.5h1.9v6.3l5.9-1.8c-0.1,3.2-0.1,5.8-0.2,7.8
	c-0.1,2.2-1.1,3.3-2.7,3.3c-0.7,0.1-1.4,0.1-2.1,0c-0.1-0.6-0.2-1.2-0.4-2c0.7,0.1,1.4,0.2,2,0.2c0.8,0,1.3-0.7,1.3-1.9
	c0.1-1.5,0.1-3.2,0.1-5.1l-3.9,1.2v10.6H571v-10l-3.7,1.2v9.4c0,1.3,0.6,1.9,2,1.9h6c1.5,0,2.4-0.6,2.5-1.8c0.2-1.1,0.4-2.2,0.5-3.7
	c0.7,0.2,1.3,0.5,2,0.7c-0.2,1.5-0.5,2.8-0.6,3.8c-0.5,1.9-1.7,2.8-3.9,2.8h-7c-2.4,0-3.4-1.2-3.4-3.4v-9.2l-1.9,0.6l-0.4-1.8
	l2.2-0.7v-5.7h1.9v5.1l3.7-1.1L571,314.5L571,314.5z M555.6,334c1.2-0.4,2.4-0.8,3.6-1.2v-9.7H556v-1.8h3.2v-6.7h1.8v6.7h2.8v1.8
	H561v9.1c1.1-0.4,2-0.7,3.1-1.1c0.1,0.6,0.1,1.3,0.2,1.8c-2.7,0.9-5.3,1.9-7.9,3L555.6,334z"/>
<path opacity="0.2" fill="#FFFFFF" d="M571.5,78.8c38.5,0,70-31.3,70-69.9c0-38.6-31.5-70.1-70-70.1c-38.5,0-70,31.5-70,70.1
	C501.5,47.6,533,78.8,571.5,78.8L571.5,78.8z"/>
<path opacity="0.3" fill="#FFFFFF" d="M571.5,58.8c27.5,0,50-22.3,50-49.9c0-27.6-22.5-50.1-50-50.1c-27.5,0-50,22.5-50,50.1
	C521.5,36.5,544,58.8,571.5,58.8L571.5,58.8z"/>
<path fill="#FBDE56" d="M571.5,33.8c13.8,0,25-11.2,25-24.9c0-13.8-11.2-25.1-25-25.1c-13.8,0-25,11.3-25,25.1
	C546.5,22.7,557.8,33.8,571.5,33.8L571.5,33.8z"/>
<path opacity="0.84" fill="#FFFFFF" d="M370.4,111.1c3.3,0,6.2,2.1,7.3,5h-14.7C364.3,113.2,367.1,111.1,370.4,111.1L370.4,111.1z
	 M394.1,116h1h8.7h58.5c0.1-0.6,0.2-1.1,0.2-1.8c0-7.2-5.9-12.9-13-12.9c-3.2,0-6.1,1.1-8.4,3c-3.2-8.6-12.1-14.9-22.6-14.9
	c-11.7,0-21.4,7.8-23.5,18.1c-1.4-3.7-4.9-6.3-9.1-6.3c-5.3,0-9.6,4.3-9.6,9.6c0,1.9,0.6,3.7,1.5,5.1h11.7
	C389.6,116,394.1,116,394.1,116z"/>
</svg>
