<?xml version="1.0" encoding="utf-8"?>
<svg version="1.1" xmlns="http://www.w3.org/2000/svg" xmlns:xlink="http://www.w3.org/1999/xlink" x="0" y="0"
	 width="211.631px" height="298.977px" viewBox="0 0 211.631 298.977" enable-background="new 0 0 211.631 298.977"
	 xml:space="preserve">
<g>
	<path fill-rule="evenodd" clip-rule="evenodd" fill="#FFF76F" d="M95.674,27.092c25.711,0,47.422,34.171,48.338,71.085
		c22.311,14.629,32.053,29.572,34.852,65.172c2.771,35.571-35.166,81.714-79.675,81.714c-44.48,0-80.562-36.857-80.562-82.285
		c0-25.857,11.684-48.943,29.996-64.029c-0.029-0.886-0.057-1.8-0.057-2.686C48.565,57.978,69.963,27.092,95.674,27.092
		L95.674,27.092z"/>
	<path fill-rule="evenodd" clip-rule="evenodd" fill="#6A3E17" d="M93.531,30.349c1.829-10.4,5.142-21.143,10.799-30.343
		c1.828-0.085,3.143,0.8,4.256,2.057c-5.484,9.4-13.198,21.486-12.826,29.029L93.531,30.349z"/>
	<polygon fill-rule="evenodd" clip-rule="evenodd" fill="#231915" points="108.957,131.806 152.695,136.463 152.438,139.006 
		108.701,134.349 	"/>
	<polygon fill-rule="evenodd" clip-rule="evenodd" fill="#231915" points="44.137,139.406 87.789,133.949 87.475,131.406 
		43.823,136.834 	"/>
	<path fill-rule="evenodd" clip-rule="evenodd" fill="#A4DAF5" d="M46.223,139.12c-3.171,5.743-4.628,12-4.342,19.115
		c1.372,8.114-1.085,17.628-7.685,20.514c-5.885,1.229-10.77,8.429-9.685,14.972c3.885,10.8,11.227,19.771,17.426,26.943
		c7.256,8.313,15.084,11.6,22.654,16.428c-3.399-7.686,8.742-11.313,6.057-21.771c-2.2-11.515,4.313-21.886,8.256-25.915
		c6.885-12.229,8.056-21.257,3.857-30.8c-3.971-10.686-4.542-12.943-0.171-24L46.223,139.12z"/>
	<path fill-rule="evenodd" clip-rule="evenodd" fill="#A4DAF5" d="M150.439,138.806c3.17,5.714,4.598,12.314,4.313,19.429
		c-1.371,8.114,1.115,17.628,7.713,20.514c5.887,1.229,11.17,8.743,10.113,15.286c-5.313,10.714-11.342,19.028-17.969,25.771
		c-7.229,7.543-15.627,13.343-23.168,17.171c3.371-7.686-8.143-11.199-5.457-21.656c2.229-11.515-4.285-21.886-8.256-25.915
		c-6.857-12.229-8.057-21.257-3.857-30.8c3.971-10.686,3.857-12.714-0.514-23.771L150.439,138.806z"/>
	<path fill="#FA6253" d="M31.71,285.121c-5,4.285-6.171,7.571-3.457,9.856c1.343,1.144,2.028,2,2.028,2.601
		c0,0.543-0.628,0.828-1.914,0.828c-2.628,0-4.599-0.571-5.999-1.742c-1.371-1.2-2.8-1.144-4.257,0.114
		c-1.485,1.229-3.514,1.856-6.142,1.856c-2.6,0-2.514-1.171,0.257-3.514c2.771-2.372,3.228-4.314,1.428-5.857
		c-1.828-1.543-1.428-2.343,1.171-2.343c2.628,0,4.171,0.229,4.685,0.657s1.343,0.143,2.542-0.886
		c1.229-1.028-0.4-1.543-4.799-1.543c-4.428,0-6.627-0.657-6.627-1.943c0-1.285,3.514-1.942,10.542-1.942
		c7.056,0,10.57,0.657,10.57,1.914c0,1.258,0,1.886,0.029,1.886l0,0v0.028C31.739,285.121,31.71,285.121,31.71,285.121
		L31.71,285.121z M31.225,278.72c-0.571,1.257-1.828,1.914-3.799,1.914c-1.943,0-2.914-1.856-2.914-5.514
		c0-3.686-1.343-5.543-4.057-5.543c-2.686,0-4.057,1.457-4.057,4.314c0,2.886-0.971,4.742-2.885,5.571
		c-1.943,0.828-2.885-1.258-2.885-6.229c0-4.972,3.256-7.429,9.77-7.429s9.799,1.828,9.799,5.485s0.343,5.486,0.971,5.486
		c0.314,0,0.486,0.171,0.486,0.514C31.653,277.606,31.51,278.091,31.225,278.72L31.225,278.72z M0.8,292.806
		c0.029-4.314,1-6.485,2.914-6.485s2.857,1.8,2.857,5.371s-0.972,5.714-2.886,6.457c-0.286,0.114-0.542,0.172-0.8,0.172
		C1.485,298.321,0.8,296.492,0.8,292.806L0.8,292.806z M3.085,275.806c0.286-0.028,0.571-0.028,0.828-0.028
		c0.286,0,0.714,0.143,1.286,0.457s1.028,0.742,1.343,1.285c0.314,0.571,0.486,1,0.486,1.314s0,0.629,0,0.943
		c-0.029,0.313-0.171,0.742-0.486,1.285s-0.743,0.972-1.286,1.286c-0.542,0.343-0.971,0.485-1.286,0.485c-0.314,0-0.628,0-0.942,0
		c-0.286,0-0.714-0.171-1.286-0.485c-0.543-0.314-0.971-0.743-1.286-1.286C0.171,280.52,0,279.92,0,279.292
		c0-0.628,0.085-1.057,0.229-1.343c0.171-0.285,0.314-0.543,0.486-0.828c0.171-0.286,0.514-0.571,1.085-0.886
		C2.371,275.949,2.8,275.806,3.085,275.806L3.085,275.806z M3.028,265.292h0.828c0.286,0,0.714,0.172,1.286,0.457
		c0.543,0.286,0.971,0.687,1.286,1.258c0.314,0.543,0.486,0.971,0.486,1.285s0,0.629-0.029,0.943c0,0.314-0.143,0.742-0.457,1.257
		c-0.286,0.543-0.714,0.943-1.257,1.257c-0.543,0.314-0.972,0.457-1.257,0.457H3c-0.314,0-0.743-0.143-1.286-0.457
		c-0.542-0.313-0.971-0.714-1.257-1.257C0.143,269.977,0,269.377,0,268.749c0-0.628,0.085-1.057,0.229-1.343
		c0.143-0.257,0.314-0.543,0.457-0.828c0.171-0.257,0.514-0.543,1.057-0.829C2.314,265.463,2.743,265.292,3.028,265.292
		L3.028,265.292z M42.395,290.235c0.029-6.086-0.457-9.114-1.457-9.144c-0.372,0-0.543-0.199-0.543-0.628
		c0-0.743,0.543-2.114,1.6-4.114c1.714-3.144,1.829-4.715,0.314-4.715s-2.257-0.657-2.257-1.971c0-1.286,1.114-1.943,3.314-1.943
		c2.228,0,3.571-0.429,4.057-1.314c0.514-0.914,1.857-1.343,4.057-1.343s3.057,0.429,2.542,1.343
		c-0.514,0.886,2.628,1.314,9.37,1.314c6.171,0,9.228,0.543,9.228,1.629c0,0.114,0,0.229-0.057,0.314
		c-0.657,1.313-4.399,1.971-11.227,1.971c-6.828,0-10.513,0.457-11.027,1.343c-0.514,0.915,3.057,1.372,10.656,1.372
		c7.627,0,11.427,3.285,11.427,9.856c0,6.601-1,10.629-3,12.115c-1.971,1.485-4.714,2.229-8.17,2.229c-3.457,0-5.2-0.629-5.2-1.915
		c0-1.313,1.743-1.942,5.2-1.942c3.457,0,5.199-2.743,5.199-8.2c0-5.485-3-8.229-8.999-8.229c-6.028,0-9.027,0.543-9.027,1.571
		s2.914,1.543,8.742,1.543c5.799,0,8.399,0.629,7.771,1.914c-0.628,1.258-3.514,1.914-8.713,1.914c-5.199,0-7.799,0.515-7.799,1.601
		c0,1.057,2.885,1.6,8.599,1.6c5.742,0,8.256,0.657,7.57,1.943c-0.686,1.285-3.542,1.942-8.599,1.942c-5.056,0-7.57,0.8-7.57,2.4
		c0,1.629-1,2.8-3,3.543c-0.229,0.086-0.429,0.114-0.628,0.114C43.166,298.349,42.366,295.664,42.395,290.235L42.395,290.235z
		 M80.504,269.121c0-1.457,0.971-2.172,2.942-2.172c2,0,3.085-0.229,3.342-0.686c0.229-0.457,1.429-0.686,3.571-0.686
		s3.085,0.229,2.857,0.686c-0.229,0.457,3.171,0.686,10.199,0.686c6.457,0,9.656,0.601,9.656,1.829c0,0.114-0.029,0.229-0.059,0.343
		c-0.686,1.485-4.541,2.2-11.598,2.2c-7.056,0-11.17,1.199-12.341,3.628s-0.514,3.629,1.942,3.629c2.457,0,3.714-0.8,3.714-2.4
		c0-1.6,0.972-2.399,2.971-2.399c2,0,2.971,0.8,2.971,2.399c0,1.601,2.228,2.4,6.684,2.4c3.857,0,5.771,0.543,5.771,1.628
		c0,0.172-0.029,0.344-0.115,0.515c-0.656,1.429-2.885,2.143-6.656,2.143c-3.77,0-5.684,1.972-5.656,5.915
		c0,3.942-0.971,6.628-2.942,8.057c-1.942,1.429-3.542,2.143-4.742,2.143h-0.029c-1.2,0-1.799-0.686-1.799-2.057
		s0.571-2.058,1.742-2.058c1.2,0,1.771-2,1.771-6c0.028-4-2.314-6-7.028-6c-4.685,0-7.028-0.657-7.028-1.942
		c0-1.314,0.629-3.257,1.829-5.8c1.229-2.515,1.2-3.8-0.086-3.8C81.133,271.321,80.504,270.606,80.504,269.121L80.504,269.121z
		 M83.361,292.149c2.114-4.543,4.256-6.828,6.399-6.828c2.171,0,2.2,2.285,0.057,6.828c-2.143,4.571-4.256,6.828-6.399,6.828H83.39
		c-1.085,0-1.628-0.571-1.628-1.742C81.761,296.121,82.275,294.406,83.361,292.149L83.361,292.149z M105.559,285.321
		c2.172,0,4.17,2.257,6,6.742c0.828,2.058,1.256,3.657,1.256,4.771c0,1.314-0.6,1.972-1.742,1.972c-2.172,0-4.172-2.257-6-6.743
		C103.245,287.578,103.416,285.321,105.559,285.321L105.559,285.321z M148.152,269.606c-2.656,0.028-3.998,0.657-3.998,1.886
		c0,1.257,1.514,1.857,4.514,1.857c3.027,0,4.541,1.914,4.57,5.771v4.485c0,6.8-0.914,11-2.715,12.515
		c-1.77,1.514-6.998,2.257-15.625,2.257c-8.629,0-12.941-4.172-12.941-12.485c0-8.314,1.457-12.457,4.371-12.457
		c2.912,0,4.369-0.629,4.369-1.886c0-1.286-1.57-1.915-4.684-1.915c-3.143,0-4.715-0.628-4.715-1.886l0.029-0.028
		c0-1.257,5.398-1.886,16.256-1.886c10.283,0,15.426,0.571,15.426,1.715c0,0.057,0,0.114-0.029,0.171
		C152.41,268.977,150.811,269.606,148.152,269.606L148.152,269.606z M127.355,285.892c0,5.771,3.428,8.686,10.229,8.686
		c6.799,0,10.197-2.914,10.197-8.686c0-5.801-0.6-8.687-1.799-8.687c-1.229,0-1.828,1.687-1.828,5.058s0.57,5.058,1.686,5.058
		c1.113,0,1.342,0.656,0.713,1.942c-0.656,1.314-2.113,1.972-4.398,1.972s-3.4-2.314-3.4-7s-0.457-7.029-1.342-7.029
		c-0.887,0-1.314,2.144-1.314,6.4s-0.914,6.8-2.715,7.6c-1.799,0.801-2.686-1.343-2.686-6.399c0-5.058-0.57-7.601-1.656-7.601
		C127.928,277.206,127.355,280.091,127.355,285.892L127.355,285.892z M138.754,271.492c0-1.229-0.457-1.857-1.342-1.857
		c-0.887,0-1.314,0.629-1.314,1.857c0,1.257,0.428,1.857,1.314,1.857C138.297,273.349,138.754,272.749,138.754,271.492
		L138.754,271.492z M190.463,281.634c-2.4,3.915-2.344,7.743,0.143,11.486c1.342,2.057,2,3.514,2,4.457
		c0,0.771-0.457,1.171-1.4,1.171c-2.086,0-3.828-1.057-5.229-3.199c-1.398-2.114-2.771-2.114-4.084,0
		c-1.314,2.143-3,3.199-5.057,3.199c-2.086,0-1.973-1.856,0.342-5.628c2.344-3.743,2.314-7.4-0.057-11.029
		c-2.371-3.6-2.514-5.399-0.428-5.399c2.084,0,3.77,1,5.055,3c1.287,2,2.629,1.857,4.057-0.457c1.43-2.314,3.172-3.457,5.201-3.457
		C193.063,275.778,192.861,277.72,190.463,281.634L190.463,281.634z M173.779,269.806c0-1.343,0.285-2,0.855-2
		c0.602,0,0.887-0.371,0.887-1.114s0.885-1.114,2.686-1.114c1.799,0,2.686,0.371,2.686,1.114s0.885,1.114,2.656,1.114
		s2.686-0.371,2.686-1.114s0.885-1.114,2.713-1.114c1.801,0,2.715,0.371,2.715,1.114s0.514,1.114,1.543,1.114
		c0.686,0,1.027,0.285,1.027,0.886c0,0.285-0.084,0.657-0.256,1.114c-0.543,1.343-1.057,2.028-1.572,2.028
		c-0.484,0-0.742,0.286-0.742,0.829c0,0.571-0.914,1.171-2.715,1.828c-1.799,0.657-2.713,0.371-2.713-0.857
		c0-1.199-0.914-1.8-2.686-1.8s-2.656,0.286-2.656,0.914c0,0.601-0.887,1.229-2.686,1.857c-1.801,0.657-2.686,0.343-2.686-0.914
		c0-1.229-0.285-1.857-0.887-1.857C174.064,271.834,173.779,271.149,173.779,269.806L173.779,269.806z M161.266,282.177
		c0-10.886,2-16.343,6-16.343c3.971,0,5.971,4.686,5.971,14.058c0,9.371-0.771,14.828-2.344,16.343
		c-1.6,1.514-3.6,2.285-5.998,2.285C162.465,298.52,161.266,293.091,161.266,282.177L161.266,282.177z M168.064,282.091
		c-0.027-8-0.285-12-0.828-12c-0.514,0-0.799,4-0.799,12s0.285,12,0.828,12C167.836,294.091,168.094,290.091,168.064,282.091
		L168.064,282.091z M205.117,268.806c0.086-0.857,0.371-1.543,0.887-2.028c0.514-0.515,1.256-0.743,2.199-0.771h0.057
		c0.943,0,1.742,0.229,2.344,0.714c0.6,0.485,0.941,1.058,0.998,1.743c0,0.2,0,0.399,0,0.6c0,0.457-0.027,0.914-0.113,1.372
		c-0.115,0.742-0.285,2.171-0.572,4.343c-0.256,2.143-0.428,3.514-0.514,4.057l-0.742,5.2c-0.115,0.886-0.229,1.686-0.314,2.429
		c-0.086,0.714-0.172,1.285-0.314,1.714c-0.113,0.457-0.285,0.686-0.486,0.715c-0.199,0.028-0.398-0.086-0.57-0.343
		c-0.057-0.114-0.115-0.286-0.143-0.543c0-0.229-0.059-0.629-0.143-1.144c-0.086-0.542-0.229-1.428-0.4-2.657
		c-0.172-1.257-0.43-3.085-0.771-5.542c-0.344-2.458-0.658-4.372-0.914-5.743c-0.258-1.4-0.4-2.4-0.43-3.028
		c-0.057-0.486-0.057-0.801-0.057-0.972V268.806z M208.375,292.377c0.514,0,1.057,0.143,1.57,0.4
		c0.514,0.285,0.943,0.686,1.229,1.199c0.314,0.543,0.457,1.086,0.457,1.657s-0.172,1.114-0.457,1.629
		c-0.285,0.485-0.686,0.886-1.172,1.172c-0.484,0.285-1.027,0.428-1.57,0.428h-0.057c-0.602,0-1.143-0.143-1.629-0.428
		c-0.514-0.286-0.914-0.687-1.172-1.172c-0.314-0.515-0.457-1.058-0.457-1.629s0.143-1.114,0.457-1.657
		c0.285-0.514,0.686-0.914,1.201-1.171C207.289,292.52,207.803,292.377,208.375,292.377L208.375,292.377z"/>
</g>
</svg>