<?xml version="1.0" encoding="utf-8"?>
<!-- Generator: Adobe Illustrator 16.0.0, SVG Export Plug-In . SVG Version: 6.00 Build 0)  -->
<!DOCTYPE svg PUBLIC "-//W3C//DTD SVG 1.1//EN" "http://www.w3.org/Graphics/SVG/1.1/DTD/svg11.dtd">
<svg version="1.1" id="图层_1" xmlns="http://www.w3.org/2000/svg" xmlns:xlink="http://www.w3.org/1999/xlink" x="0px" y="0px"
	 width="16.073px" height="19.256px" viewBox="0 0 16.073 19.256" enable-background="new 0 0 16.073 19.256" xml:space="preserve">
<g>
	<g>
		<path fill="#79B865" d="M14.555,0.504c-0.194,2.352-1.375,2.613-3.253,3.027C10.8,3.641,10.28,3.756,9.729,3.924
			C9.011,4.153,8.794,4.222,8.602,4.581C8.561,4.657,8.498,4.774,8.18,5.053L8.131,5.096l0.234-0.882
			C9.218,0.994,11.836,0.546,14.555,0.504 M6.763,1.776c0.2,0.19,0.209,0.424,0.225,0.829C7.006,3.091,7.03,3.695,7.462,4.359
			l0.549,0.842L7.184,5.929H8.51c0.482,0,0.914-0.009,1.304-0.017C10.132,5.906,10.423,5.9,10.692,5.9
			c1.322,0,2.063,0.121,3.144,1.22c1.789,1.845,2.227,4.437,1.17,6.931c-1.191,2.814-3.952,4.706-6.867,4.706
			c-3.728,0-6.487-2.03-7.38-5.432c-0.761-2.899,0.199-5.856,2.278-7.029c0.637-0.35,1.291-0.52,2-0.52
			c0.439,0,0.824,0.065,1.132,0.117c0.23,0.039,0.413,0.07,0.578,0.07c0.53,0,0.734-0.353,0.748-0.655l0.006-0.136l-0.063-0.12
			C6.738,3.723,6.38,2.949,6.763,1.776 M15.081,0c-2.771,0-6.17,0.2-7.199,4.086C7.025,2.771,8.11,1.714,6.511,1.057
			C5.739,2.743,6.168,3.714,6.996,5.286C6.99,5.419,6.903,5.463,6.748,5.463c-0.318,0-0.923-0.187-1.71-0.187
			c-0.644,0-1.41,0.125-2.241,0.581c-4.914,2.771-3.485,13.399,5.342,13.399c6.313,0,10.57-7.828,6.057-12.485
			C13.017,5.573,12.17,5.4,10.692,5.4c-0.601,0-1.307,0.029-2.182,0.029C9.454,4.6,8.625,4.8,9.881,4.4
			C12.596,3.572,14.995,4,15.081,0L15.081,0z"/>
	</g>
</g>
</svg>
