<?xml version="1.0" encoding="utf-8"?>
<!-- Generator: Adobe Illustrator 16.0.0, SVG Export Plug-In . SVG Version: 6.00 Build 0)  -->
<!DOCTYPE svg PUBLIC "-//W3C//DTD SVG 1.1//EN" "http://www.w3.org/Graphics/SVG/1.1/DTD/svg11.dtd">
<svg version="1.1" id="图层_1" xmlns="http://www.w3.org/2000/svg" xmlns:xlink="http://www.w3.org/1999/xlink" x="0px" y="0px"
	 width="16.073px" height="19.183px" viewBox="0 0 16.073 19.183" enable-background="new 0 0 16.073 19.183" xml:space="preserve">
<g>
	<g>
		<path fill="#898889" d="M14.556,0.467c-0.194,2.352-1.375,2.612-3.253,3.027C10.8,3.604,10.281,3.719,9.73,3.887
			c-0.72,0.229-0.937,0.298-1.129,0.657C8.56,4.621,8.498,4.737,8.181,5.016L8.132,5.059l0.233-0.882
			C9.217,0.957,11.836,0.509,14.556,0.467 M6.763,1.739c0.2,0.189,0.209,0.423,0.225,0.829c0.019,0.486,0.042,1.09,0.475,1.754
			l0.549,0.842L7.185,5.892h1.326c0.482,0,0.913-0.009,1.304-0.017c0.318-0.006,0.608-0.012,0.878-0.012
			c1.322,0,2.063,0.121,3.143,1.22c1.789,1.846,2.227,4.438,1.17,6.933c-1.191,2.814-3.952,4.705-6.867,4.705
			c-3.728,0-6.486-2.03-7.379-5.433c-0.761-2.899,0.199-5.856,2.278-7.029c0.637-0.35,1.291-0.52,2-0.52
			c0.439,0,0.824,0.065,1.132,0.117c0.23,0.039,0.413,0.07,0.578,0.07c0.53,0,0.734-0.353,0.748-0.655l0.006-0.136l-0.063-0.12
			C6.738,3.686,6.38,2.912,6.763,1.739 M15.081-0.037c-2.771,0-6.171,0.2-7.199,4.086C7.025,2.734,8.11,1.677,6.511,1.02
			C5.739,2.706,6.168,3.677,6.996,5.249C6.99,5.382,6.903,5.426,6.748,5.426c-0.318,0-0.923-0.187-1.71-0.187
			c-0.644,0-1.41,0.125-2.241,0.581c-4.914,2.771-3.485,13.4,5.342,13.4c6.313,0,10.57-7.828,6.057-12.486
			c-1.178-1.198-2.024-1.372-3.502-1.372c-0.601,0-1.307,0.029-2.182,0.029c0.942-0.829,0.114-0.628,1.371-1.028
			C12.596,3.535,14.995,3.963,15.081-0.037L15.081-0.037z"/>
	</g>
</g>
</svg>
