<?xml version="1.0" encoding="utf-8"?>
<svg version="1.1" xmlns="http://www.w3.org/2000/svg" xmlns:xlink="http://www.w3.org/1999/xlink" x="0" y="0"
	 width="39.795px" height="48.654px" viewBox="0 0 39.795 48.654" enable-background="new 0 0 39.795 48.654" xml:space="preserve">
<g>
	<path fill-rule="evenodd" clip-rule="evenodd" fill="#FFF76F" d="M3.314,7.028c3.514-5.485,10.713-2.057,18.684,2.8
		c5.941-2.657,10.341-2.771,17.798,1.057v35.286c-6.399,3.485-14.541,3.399-21.198-0.886c-5.514-3.543-8.799-9.172-9.513-15.114
		c-0.2-0.115,3.571,2.285-0.571-0.372C4.371,27.143-0.2,12.486,3.314,7.028L3.314,7.028z"/>
	<path fill-rule="evenodd" clip-rule="evenodd" fill="#6A3E17" d="M4.971,7.057C3.028,5.257,1.171,3.085,0,0.628
		C0.229,0.229,0.6,0.057,1.028,0c1.229,2.457,2.743,5.743,4.399,6.686L4.971,7.057z"/>
	<path fill-rule="evenodd" clip-rule="evenodd" d="M10.17,27.714c2.514-3.885,7.685-5,11.599-2.514
		c1.828,1.2,3.028,2.972,3.542,4.914c-2.057,0.972-3.914,2.515-5.257,4.6c-1.171,1.829-1.799,3.857-1.942,5.886
		c-1.828,0.172-3.742-0.229-5.428-1.285C8.799,36.8,7.685,31.629,10.17,27.714L10.17,27.714z"/>
	<path fill-rule="evenodd" clip-rule="evenodd" fill="#FEFEFE" d="M18.112,30.629c0.515-0.829,1.6-1.058,2.4-0.515
		c0.828,0.515,1.057,1.6,0.542,2.4c-0.542,0.828-1.628,1.057-2.428,0.542C17.826,32.515,17.569,31.429,18.112,30.629L18.112,30.629z
		"/>
	<path fill-rule="evenodd" clip-rule="evenodd" fill="#FEFEFE" d="M10.685,28.942c1.028-1.571,3.142-2.057,4.742-1.028
		c1.6,1.028,2.057,3.143,1.028,4.743c-1.028,1.6-3.143,2.057-4.742,1.028C10.142,32.657,9.685,30.543,10.685,28.942L10.685,28.942z"
		/>
	<path fill-rule="evenodd" clip-rule="evenodd" fill="#FEFEFE" d="M13.627,35.457c0.743-1.171,2.314-1.515,3.485-0.771
		c1.143,0.743,1.485,2.314,0.743,3.486c-0.743,1.171-2.314,1.514-3.485,0.742C13.198,38.172,12.855,36.6,13.627,35.457
		L13.627,35.457z"/>
	<path fill-rule="evenodd" clip-rule="evenodd" d="M21.083,10.8c2.485-3.914,7.685-5.028,11.569-2.514
		c1.828,1.171,3.057,2.943,3.571,4.886c-2.086,0.972-3.942,2.514-5.257,4.6c-1.199,1.829-1.828,3.857-1.971,5.886
		c-1.828,0.2-3.742-0.229-5.399-1.286C19.683,19.857,18.569,14.686,21.083,10.8L21.083,10.8z"/>
	<path fill-rule="evenodd" clip-rule="evenodd" fill="#FEFEFE" d="M26.654,17.314c-0.515,0.8-0.286,1.886,0.543,2.4
		c0.8,0.543,1.886,0.286,2.399-0.514c0.543-0.8,0.286-1.886-0.514-2.429C28.282,16.257,27.197,16.486,26.654,17.314L26.654,17.314z"
		/>
	<path fill-rule="evenodd" clip-rule="evenodd" fill="#FEFEFE" d="M22.083,11.257c-1.028,1.6-0.571,3.714,1.029,4.743
		c1.571,1.028,3.685,0.571,4.713-1.029c1.029-1.6,0.571-3.714-1.028-4.743C25.197,9.229,23.083,9.686,22.083,11.257L22.083,11.257z"
		/>
	<path fill-rule="evenodd" clip-rule="evenodd" fill="#FEFEFE" d="M29.197,11.229c-0.771,1.171-0.429,2.743,0.742,3.486
		c1.172,0.743,2.743,0.4,3.485-0.771c0.743-1.171,0.4-2.714-0.742-3.457C31.51,9.714,29.939,10.057,29.197,11.229L29.197,11.229z"/>
	<path fill-rule="evenodd" clip-rule="evenodd" fill="#FE7474" d="M30.368,35.114c3.542-2.114,5.057-5.028,5.714-8.857
		c1.714,2.286,2.971,5.686,2.171,7.571C36.853,35.629,33.424,35.771,30.368,35.114L30.368,35.114z"/>
	<path fill-rule="evenodd" clip-rule="evenodd" fill="#FEFEFE" d="M35.338,29.172c0.086-0.229,0.229-0.687,0.314-1.029l1.143,0.715
		l-0.571,0.886L35.338,29.172z"/>
	<path fill-rule="evenodd" clip-rule="evenodd" fill="#FFCFCF" d="M35.082,16.343c2.143-3.343,4.257-5.829,4.714-5.543l0,0v0.686
		c-0.286,1.114-1.486,3.4-3.086,5.914c-2.171,3.343-4.285,5.829-4.714,5.543C31.539,22.657,32.911,19.714,35.082,16.343
		L35.082,16.343z"/>
	<path fill-rule="evenodd" clip-rule="evenodd" fill="#FFCFCF" d="M21.112,38.086c2.143-3.372,4.257-5.857,4.714-5.571
		c0.457,0.285-0.943,3.257-3.114,6.6c-2.143,3.371-4.256,5.857-4.685,5.571C17.569,44.371,18.94,41.429,21.112,38.086L21.112,38.086
		z"/>
</g>
</svg>