<?xml version="1.0" encoding="utf-8"?>
<svg version="1.1" xmlns="http://www.w3.org/2000/svg" xmlns:xlink="http://www.w3.org/1999/xlink" x="0px" y="0px"
	 viewBox="0 0 34 16" enable-background="new 0 0 34 16" xml:space="preserve">
<g>
	<path fill="#999999" d="M11.4,1c2,0,3.6,1.9,3.6,4.3c0,1.2-0.4,2.4-1.2,3.2l-1.6,1.7h0.1l-3.5,4.1C8.5,14.4,8.2,14.8,8,15
		c-0.2-0.1-0.5-0.5-0.7-0.8l-3.5-4.1h0.2L2.2,8.4C1.4,7.6,1,6.5,1,5.3C1,2.9,2.6,1,4.6,1c1,0,1.9,0.5,2.6,1.3l0.8,1l0.8-1
		C9.5,1.5,10.4,1,11.4,1 M11.4,0C10.1,0,8.8,0.7,8,1.7C7.2,0.7,5.9,0,4.6,0C2.1,0,0,2.4,0,5.3c0,1.5,0.6,2.9,1.5,3.9h0l5,5.7
		C7,15.4,7.5,16,8,16s1-0.6,1.5-1.1l5-5.7h0c0.9-1,1.5-2.3,1.5-3.9C16,2.4,13.9,0,11.4,0L11.4,0z"/>
</g>
<g>
	<path fill="#FD5757" d="M34,5.3c0,1.5-0.6,2.9-1.5,3.9h0l-5,5.7C27,15.4,26.5,16,26,16s-1-0.6-1.5-1.1l-5-5.7h0
		c-0.9-1-1.5-2.3-1.5-3.9C18,2.4,20.1,0,22.6,0c1.3,0,2.6,0.7,3.4,1.7C26.8,0.7,28.1,0,29.4,0C31.9,0,34,2.4,34,5.3z"/>
</g>
</svg>