<?xml version="1.0" encoding="utf-8"?>
<!-- Generator: Adobe Illustrator 16.0.0, SVG Export Plug-In . SVG Version: 6.00 Build 0)  -->
<!DOCTYPE svg PUBLIC "-//W3C//DTD SVG 1.1//EN" "http://www.w3.org/Graphics/SVG/1.1/DTD/svg11.dtd">
<svg version="1.1" id="图层_1" xmlns="http://www.w3.org/2000/svg" xmlns:xlink="http://www.w3.org/1999/xlink" x="0px" y="0px"
	 width="19.368px" height="19.183px" viewBox="0 0 19.368 19.183" enable-background="new 0 0 19.368 19.183" xml:space="preserve">
<g>
	<g>
		<path fill="#898889" d="M9.676,0.508c0.048,0.025,0.159,0.104,0.396,0.341l6.67,6.698c0.425,0.397,0.792,0.764,1.217,1.192
			l0.177,0.172c0.204,0.196,0.681,0.657,0.732,0.787c0,0.03,0,0.1-0.186,0.1h-1.971h-0.5v0.5v8.258c0,0.065-0.011,0.092-0.011,0.093
			c-0.006,0.005-0.057,0.034-0.204,0.034H3.371c-0.125,0-0.168-0.025-0.171-0.025l0,0c-0.001-0.003-0.015-0.03-0.015-0.102v-8.258
			v-0.5h-0.5H0.6c-0.037,0-0.095-0.057-0.104-0.057c0,0-0.001,0-0.001,0c0.054-0.169,0.516-0.601,0.713-0.786
			c0.098-0.091,0.188-0.176,0.259-0.248l7.26-7.263c0.131-0.134,0.248-0.257,0.354-0.369C9.319,0.829,9.563,0.572,9.676,0.508
			 M9.674,0C9.358,0,9.064,0.385,8.37,1.097L1.114,8.355C0.771,8.699,0,9.328,0,9.699c0,0.314,0.286,0.6,0.6,0.6h2.085v8.258
			c0,0.428,0.257,0.627,0.686,0.627h12.626c0.457,0,0.715-0.199,0.715-0.627v-8.258h1.971c0.4,0,0.686-0.229,0.686-0.6
			c0-0.343-0.713-0.972-1.057-1.314c-0.428-0.43-0.799-0.801-1.229-1.203l-6.657-6.686C10.091,0.161,9.878,0,9.674,0L9.674,0z"/>
	</g>
</g>
</svg>
