<?xml version="1.0" encoding="utf-8"?>
<!-- Generator: Adobe Illustrator 16.0.0, SVG Export Plug-In . SVG Version: 6.00 Build 0)  -->
<!DOCTYPE svg PUBLIC "-//W3C//DTD SVG 1.1//EN" "http://www.w3.org/Graphics/SVG/1.1/DTD/svg11.dtd">
<svg version="1.1" id="图层_1" xmlns="http://www.w3.org/2000/svg" xmlns:xlink="http://www.w3.org/1999/xlink" x="0px" y="0px"
	 width="19.369px" height="19.182px" viewBox="0 0 19.369 19.182" enable-background="new 0 0 19.369 19.182" xml:space="preserve">
<g>
	<g>
		<path fill="#79B865" d="M9.676,0.508c0.049,0.025,0.159,0.104,0.396,0.341l6.669,6.698c0.424,0.396,0.792,0.764,1.216,1.188
			l0.185,0.181c0.202,0.195,0.674,0.652,0.725,0.78c0,0.03,0,0.1-0.186,0.1h-1.971h-0.5v0.5v8.258c0,0.066-0.012,0.093-0.011,0.094
			c-0.006,0.004-0.056,0.034-0.204,0.034H3.371c-0.125,0-0.168-0.026-0.17-0.026l0,0c-0.002-0.002-0.015-0.029-0.015-0.102v-8.258
			v-0.5h-0.5H0.6c-0.037,0-0.095-0.057-0.104-0.057c0,0-0.001,0-0.001,0C0.549,9.57,1.013,9.137,1.211,8.952
			c0.097-0.091,0.186-0.174,0.257-0.245l7.26-7.261c0.131-0.135,0.249-0.259,0.354-0.369C9.319,0.828,9.563,0.571,9.676,0.508
			 M9.674,0C9.358,0,9.065,0.385,8.37,1.097L1.114,8.354C0.771,8.696,0,9.325,0,9.696c0,0.314,0.286,0.6,0.6,0.6h2.085v8.258
			c0,0.428,0.257,0.628,0.686,0.628h12.626c0.457,0,0.715-0.2,0.715-0.628v-8.258h1.971c0.4,0,0.686-0.229,0.686-0.6
			c0-0.343-0.714-0.972-1.057-1.314c-0.429-0.429-0.8-0.8-1.229-1.2l-6.656-6.686C10.091,0.16,9.878,0,9.674,0L9.674,0z"/>
	</g>
</g>
</svg>
