<?xml version="1.0" encoding="utf-8"?>
<!-- Generator: Adobe Illustrator 16.0.0, SVG Export Plug-In . SVG Version: 6.00 Build 0)  -->
<!DOCTYPE svg PUBLIC "-//W3C//DTD SVG 1.1//EN" "http://www.w3.org/Graphics/SVG/1.1/DTD/svg11.dtd">
<svg version="1.1" id="图层_1" xmlns="http://www.w3.org/2000/svg" xmlns:xlink="http://www.w3.org/1999/xlink" x="0px" y="0px"
	 width="40.499px" height="40.428px" viewBox="0 0 40.499 40.428" enable-background="new 0 0 40.499 40.428" xml:space="preserve">
<g>
	<g>
		<path fill-rule="evenodd" clip-rule="evenodd" fill="#4EB564" d="M10.199,40.329c-5.468,0-9.985-5.198-10.07-11.587L0.1,0.1
			l20.111-0.029l0.059,28.671C20.185,35.13,15.667,40.329,10.199,40.329z"/>
		<path fill="#45AB61" d="M20.112,0.171l0.058,28.568c-0.084,6.335-4.557,11.488-9.971,11.488s-9.886-5.153-9.97-11.485L0.2,0.2
			L20.112,0.171 M20.311-0.029L0,0l0.029,28.743c0.085,6.457,4.599,11.686,10.17,11.686S20.284,35.2,20.37,28.743L20.311-0.029
			L20.311-0.029z"/>
	</g>
	<g>
		<path fill-rule="evenodd" clip-rule="evenodd" fill="#FFFFFF" d="M30.338,40.329c-5.48,0-9.984-5.198-10.041-11.587L20.242,0.1
			l20.14-0.029l0.029,28.671C40.326,35.13,35.807,40.329,30.338,40.329z"/>
		<path fill="#45AB61" d="M40.281,0.171L40.31,28.74c-0.084,6.335-4.558,11.488-9.972,11.488c-5.426,0-9.885-5.153-9.94-11.485
			L20.341,0.2L40.281,0.171 M40.481-0.029L20.141,0l0.057,28.743c0.057,6.457,4.57,11.686,10.141,11.686
			c5.572,0,10.086-5.229,10.172-11.686L40.481-0.029L40.481-0.029z"/>
	</g>
</g>
</svg>
