<?xml version="1.0" encoding="utf-8"?>
<!-- Generator: Adobe Illustrator 16.0.0, SVG Export Plug-In . SVG Version: 6.00 Build 0)  -->
<!DOCTYPE svg PUBLIC "-//W3C//DTD SVG 1.1//EN" "http://www.w3.org/Graphics/SVG/1.1/DTD/svg11.dtd">
<svg version="1.1" id="图层_1" xmlns="http://www.w3.org/2000/svg" xmlns:xlink="http://www.w3.org/1999/xlink" x="0px" y="0px"
	 width="200px" height="200px" viewBox="0 0 200 200" enable-background="new 0 0 200 200" xml:space="preserve">
<g>
	<polygon fill-rule="evenodd" clip-rule="evenodd" fill="#E95655" points="23.193,0 38.648,0 0.648,38 0.648,22.527 	"/>
	
		<text transform="matrix(0.7086 -0.7056 0.7061 0.7081 5.5215 29.6641)" fill="#FFFFFF" font-family="'FZHTJW--GB1-0'" font-size="7.9373">今</text>
	
		<text transform="matrix(0.7086 -0.7056 0.7061 0.7081 11.479 23.7207)" fill="#FFFFFF" font-family="'FZHTJW--GB1-0'" font-size="7.9373">日</text>
	
		<text transform="matrix(0.7086 -0.7056 0.7061 0.7081 18.4229 17.7573)" fill="#FFFFFF" font-family="'FZHTJW--GB1-0'" font-size="7.9373">特</text>
	
		<text transform="matrix(0.7086 -0.7056 0.7061 0.7081 24.377 10.8223)" fill="#FFFFFF" font-family="'FZHTJW--GB1-0'" font-size="7.9373">价</text>
</g>
<g>
	<path fill-rule="evenodd" clip-rule="evenodd" fill="#E95655" stroke="#E95655" stroke-width="0.7143" stroke-miterlimit="10" d="
		M43.5,2.336v0.028c0,0.255,0,0.397,0.084,0.68c0.057,0.227,0.17,0.397,0.284,0.624c0.085,0.113,0.369,0.425,0.482,0.595
		c0.34,0.425,0.708,0.935,1.077,1.36l1.787,2.324c0.057,0.057,0.085,0.113,0.142,0.17c0.028,0.028,0.113,0.142,0.142,0.169
		c0-0.028,0.113-0.141,0.142-0.169l0.397-0.51c0.028-0.056,0.085-0.114,0.142-0.17c0.028-0.057,0.085-0.113,0.113-0.17
		c0.057-0.056,0.085-0.113,0.142-0.169c0.057-0.057,0.085-0.113,0.143-0.17l1.984-2.579c0.029-0.029,0.058-0.057,0.085-0.085
		l0.312-0.425c0.028-0.028,0.057-0.057,0.085-0.084c0,0,0-0.029,0.028-0.029c0.142-0.198,0.255-0.453,0.34-0.68
		c0.141-0.453,0.113-1.077-0.085-1.474c-0.113-0.199-0.142-0.284-0.255-0.454c-0.114-0.142-0.227-0.283-0.34-0.397
		c-0.284-0.198-0.625-0.397-0.993-0.425c-0.595-0.057-1.049,0.227-1.389,0.482c-0.227,0.198-0.483,0.481-0.652,0.736
		c-0.057,0.057-0.17,0.255-0.199,0.312l0,0C47.47,1.798,47.47,1.77,47.441,1.741c0-0.028-0.028-0.028-0.028-0.057
		c-0.142-0.199-0.199-0.284-0.341-0.454c-0.084-0.113-0.198-0.227-0.283-0.312c-0.142-0.113-0.198-0.198-0.369-0.312
		c-0.425-0.284-0.936-0.397-1.446-0.255c-0.397,0.085-0.766,0.369-1.021,0.709c-0.199,0.227-0.34,0.539-0.397,0.85
		C43.528,2.024,43.5,2.194,43.5,2.336L43.5,2.336z"/>
</g>
<g>
	<path fill-rule="evenodd" clip-rule="evenodd" fill="#FFFFFF" stroke="#DBDBDC" stroke-width="0.2286" stroke-miterlimit="10" d="
		M71.681,28.079c7.704,0,13.986-6.282,13.986-13.985c0-7.732-6.282-14.015-13.986-14.015c-7.732,0-14.014,6.282-14.014,14.015
		C57.667,21.796,63.949,28.079,71.681,28.079L71.681,28.079z"/>
	<rect x="65.483" y="13.581" fill-rule="evenodd" clip-rule="evenodd" fill="#4DB464" width="12.394" height="1.023"/>
</g>
<g>
	<path fill-rule="evenodd" clip-rule="evenodd" fill="#FFFFFF" stroke="#DBDBDC" stroke-width="0.2286" stroke-miterlimit="10" d="
		M105.807,28.093c7.704,0,13.985-6.282,13.985-13.985c0-7.732-6.281-14.015-13.985-14.015c-7.732,0-14.015,6.282-14.015,14.015
		C91.792,21.811,98.074,28.093,105.807,28.093L105.807,28.093z"/>
	<rect x="99.609" y="13.595" fill-rule="evenodd" clip-rule="evenodd" fill="#4DB464" width="12.394" height="1.023"/>
	<rect x="105.295" y="7.91" fill-rule="evenodd" clip-rule="evenodd" fill="#4DB464" width="1.022" height="12.395"/>
</g>
<g>
	<path fill="none" stroke="#707070" stroke-width="0.7143" stroke-miterlimit="10" d="M43.5,17.08L43.5,17.08
		c0,0.266,0,0.399,0.065,0.665c0.096,0.266,0.193,0.433,0.322,0.632c0.064,0.133,0.354,0.433,0.451,0.599
		c0.354,0.432,0.74,0.931,1.095,1.364l1.804,2.328c0.032,0.066,0.097,0.099,0.128,0.166C47.397,22.867,47.461,23,47.494,23
		c0.032-0.033,0.128-0.166,0.161-0.166l0.386-0.532c0.032-0.033,0.097-0.1,0.129-0.166c0.065-0.034,0.097-0.1,0.129-0.167
		c0.065-0.066,0.097-0.1,0.128-0.166c0.065-0.067,0.097-0.1,0.161-0.166l1.997-2.561c0.032-0.033,0.032-0.067,0.065-0.1l0.321-0.399
		c0.032-0.033,0.065-0.066,0.065-0.1c0.032-0.033,0.032-0.033,0.032-0.033c0.161-0.2,0.258-0.433,0.354-0.665
		c0.129-0.466,0.096-1.065-0.097-1.497c-0.097-0.2-0.129-0.267-0.258-0.466c-0.097-0.133-0.226-0.266-0.322-0.365
		c-0.29-0.233-0.612-0.399-0.999-0.433c-0.611-0.034-1.063,0.199-1.384,0.465c-0.226,0.2-0.517,0.499-0.677,0.765
		c-0.032,0.034-0.161,0.233-0.192,0.299l0,0c0-0.033-0.033-0.066-0.033-0.066c-0.032-0.033-0.032-0.066-0.064-0.1
		c-0.097-0.166-0.194-0.266-0.321-0.432c-0.065-0.1-0.194-0.233-0.258-0.299c-0.162-0.133-0.227-0.199-0.387-0.299
		c-0.418-0.299-0.934-0.433-1.449-0.299c-0.419,0.099-0.773,0.399-1.031,0.731c-0.193,0.232-0.322,0.532-0.419,0.832
		C43.532,16.748,43.5,16.914,43.5,17.08L43.5,17.08z"/>
</g>
<g>
	<path fill="none" stroke="#707070" stroke-width="0.2" stroke-miterlimit="10" d="M135.52,6.967
		c-0.618-0.299-1.21-0.597-1.827-0.895c2.554-1.625,1.397-5.715-1.642-5.851c-3.576,0.298-4.061,4.009-1.748,5.824
		c-1.533,0.731-3.039,1.544-3.361,3.684v2.248l6.374,0.136"/>
	<polygon fill="none" stroke="#707070" stroke-width="0.2" stroke-miterlimit="10" points="134.956,9.214 135.628,7.481 
		136.299,9.214 137.941,9.214 136.702,10.46 137.188,12.221 135.547,11.354 134.095,12.194 134.472,10.46 133.262,9.349 	"/>
</g>
<g>
	<path fill="none" stroke="#707070" stroke-width="0.2286" stroke-miterlimit="10" d="M158.724,5.838l0.84,6.356 M151.273,4.468
		l-2.102-1.206l-1.961,6.795l3.559,2.164l4.397-1.15l4.396,1.123c0,0,3.474-2.082,3.642-2.082c0.141,0-1.989-6.822-1.989-6.822
		l-2.071,1.151 M151.609,5.893l-0.84,6.329 M155.167,9.784v1.287"/>
	<path fill="none" stroke="#707070" stroke-width="0.2286" stroke-miterlimit="10" d="M155.167,8.934
		c3.305-2.822,4.958-8.439,0-8.713C150.461,0.495,151.666,6.276,155.167,8.934L155.167,8.934z"/>
	<path fill="none" stroke="#707070" stroke-width="0.2286" stroke-miterlimit="10" d="M155.194,4.797
		c0.84,0,1.568-0.685,1.568-1.535c0-0.849-0.729-1.534-1.568-1.534c-0.868,0-1.568,0.685-1.568,1.534
		C153.626,4.112,154.326,4.797,155.194,4.797L155.194,4.797z"/>
</g>
<g>
	<path fill="none" stroke="#707070" stroke-width="0.2" stroke-miterlimit="10" d="M177.222,1.296c0.69,0,5.3,0.963,5.935,1.128
		c-0.166,0.743-0.524,1.624-0.772,2.395l-1.768,4.734c-0.414,0.937-0.745,1.569-1.876,1.569c-0.856,0-1.05-0.991-1.05-1.872
		c-0.358-0.083-0.882-0.33-1.269-0.495c-0.497-0.192-0.855-0.358-1.325-0.551c-0.552-0.192-2.317-0.964-2.761-1.018
		c0,0.66-0.109,0.633,0,1.238c0.305,1.789,2.043,1.927,4.086,2.973c0.8,0.386,1.546,0.771,2.401,0.771
		c2.234,0,2.843-2.614,3.505-4.293c0.304-0.743,1.959-5.395,1.959-5.917c0-0.495-1.159-0.578-1.601-0.66
		c-0.91-0.166-5.382-1.129-5.934-1.129c-0.607,0.936-0.938,2.229-1.325,3.275c-0.166,0.413-1.242,3.166-1.158,3.44
		c0.055,0.33,0.441,0.413,0.635,0.33c0.386-0.137,0.965-2.037,1.104-2.477C176.283,3.883,177.057,2.066,177.222,1.296L177.222,1.296
		z"/>
	<path fill="none" stroke="#707070" stroke-width="0.2" stroke-miterlimit="10" d="M177.139,7.296c0,0.633,0.58,0.688,1.05,0.826
		c0.662,0.22,1.959,0.798,1.959-0.083c0-0.44-0.689-0.55-1.104-0.688c-0.304-0.11-1.16-0.44-1.437-0.44
		C177.415,6.91,177.139,7.186,177.139,7.296L177.139,7.296z"/>
	<path fill="none" stroke="#707070" stroke-width="0.2" stroke-miterlimit="10" d="M177.884,5.424c0,0.44,0.194,0.55,0.553,0.66
		c0.304,0.111,0.58,0.192,0.911,0.303c0.275,0.083,0.662,0.249,0.938,0.303c0.414,0.056,1.464-0.66-0.552-1.238
		c-0.358-0.11-1.214-0.413-1.462-0.413C178.188,5.039,177.884,5.341,177.884,5.424L177.884,5.424z"/>
	<path fill="none" stroke="#707070" stroke-width="0.2" stroke-miterlimit="10" d="M178.74,3.553c0,0.66,0.304,0.55,1.076,0.771
		c1.546,0.44,1.573,0.551,1.933-0.138c-0.276-0.523-0.441-0.495-1.104-0.661C180.202,3.415,178.74,2.81,178.74,3.553L178.74,3.553z"
		/>
	<path fill="none" stroke="#707070" stroke-width="0.2" stroke-miterlimit="10" d="M177.415,3.635
		c0.441,0.11,0.938,0.055,0.938-0.386C178.354,2.506,176.863,2.452,177.415,3.635L177.415,3.635z"/>
	<path fill="none" stroke="#707070" stroke-width="0.2" stroke-miterlimit="10" d="M176.588,5.039c0,0.248,0.027,0.248,0.082,0.467
		c0.525,0.138,0.193,0.166,0.855,0c0.138-0.605,0.11-0.165,0-0.743C177.332,4.709,176.588,4.461,176.588,5.039L176.588,5.039z"/>
	<path fill="none" stroke="#707070" stroke-width="0.2" stroke-miterlimit="10" d="M175.814,6.91c0,0.22,0.027,0.11,0.11,0.386
		c0.524,0.11,0.193,0.137,0.828,0C177.057,6.03,175.814,6.36,175.814,6.91L175.814,6.91z"/>
</g>
<g>
	<path fill-rule="evenodd" clip-rule="evenodd" fill="#E95655" stroke="#FFFFFF" stroke-width="0.5714" stroke-miterlimit="10" d="
		M47.473,43.333H3.709c-1.672,0-3.061,1.379-3.061,3.04v10.893c0,1.688,1.389,3.067,3.061,3.067h43.763
		c0.766,0,4.762-1.857,8.503-5.319c0.397-0.253,0.737-0.591,1.021-0.985l0,0l0,0c0.425-0.591,0.651-1.295,0.651-2.083
		c0-1.042-0.425-1.97-1.134-2.646l0,0C52.518,45.022,48.636,43.333,47.473,43.333L47.473,43.333z M53.313,50.201
		c-0.908,0-1.616,0.732-1.616,1.604s0.708,1.604,1.616,1.604c0.878,0,1.587-0.732,1.587-1.604S54.19,50.201,53.313,50.201
		L53.313,50.201z"/>
	<text transform="matrix(1.0071 0 0 1 4.25 55.7729)" fill="#FFFFFF" font-family="'MicrosoftYaHei'" font-size="11.8211">热</text>
	<text transform="matrix(1.0071 0 0 1 17.1401 55.7729)" fill="#FFFFFF" font-family="'MicrosoftYaHei'" font-size="11.8211">卖</text>
	<text transform="matrix(1.0071 0 0 1 29.0537 55.7729)" fill="#FFFFFF" font-family="'MicrosoftYaHei'" font-size="11.8211">中.</text>
	<text transform="matrix(1.0071 0 0 1 44.9209 55.7729)" fill="#FFFFFF" font-family="'MicrosoftYaHei'" font-size="11.8211">.</text>
	<text transform="matrix(1.0071 0 0 1 48.8818 55.7729)" fill="#FFFFFF" font-family="'MicrosoftYaHei'" font-size="11.8211">.</text>
</g>
<g>
	<path fill-rule="evenodd" clip-rule="evenodd" fill="#FFFFFF" d="M28.763,97.111c0.947,1.528,0.832,3.537-0.431,4.952
		c-1.579,1.756-4.277,1.924-6.058,0.396c-0.688-0.594-1.148-1.359-1.349-2.179C23.911,100.025,26.61,98.865,28.763,97.111
		L28.763,97.111z"/>
	<path fill-rule="evenodd" clip-rule="evenodd" fill="#E95655" d="M18.629,72.235c7.866-0.538,14.698,5.321,15.244,13.075
		c0.545,7.782-5.369,14.518-13.263,15.056c-7.866,0.536-14.698-5.293-15.244-13.075C4.792,79.537,10.734,72.801,18.629,72.235
		L18.629,72.235z"/>
	<path fill-rule="evenodd" clip-rule="evenodd" fill="#FFFFFF" d="M33.355,90.092c1.665,0.736,2.728,2.491,2.498,4.358
		c-0.287,2.32-2.44,3.962-4.766,3.679c-0.919-0.085-1.723-0.481-2.354-1.047C31.031,95.214,32.609,92.752,33.355,90.092
		L33.355,90.092z"/>
	<path fill-rule="evenodd" clip-rule="evenodd" fill="#FFFFFF" d="M33.126,81.772c1.78-0.311,3.646,0.509,4.535,2.179
		c1.092,2.094,0.288,4.641-1.808,5.716c-0.804,0.424-1.694,0.566-2.526,0.453C34.131,87.262,34.016,84.376,33.126,81.772
		L33.126,81.772z"/>
	<path fill-rule="evenodd" clip-rule="evenodd" fill="#FFFFFF" d="M28.131,75.037c1.321-1.273,3.331-1.613,5.024-0.736
		c2.096,1.104,2.898,3.651,1.779,5.716c-0.431,0.793-1.09,1.415-1.837,1.783C32.15,78.999,30.37,76.679,28.131,75.037L28.131,75.037
		z"/>
	<path fill-rule="evenodd" clip-rule="evenodd" fill="#FFFFFF" d="M20.18,72.235c0.344-1.754,1.809-3.169,3.703-3.367
		c2.354-0.283,4.478,1.386,4.766,3.707c0.086,0.906-0.087,1.754-0.489,2.49C25.748,73.283,22.964,72.377,20.18,72.235L20.18,72.235z
		"/>
	<path fill-rule="evenodd" clip-rule="evenodd" fill="#FFFFFF" d="M11.998,74.415c-0.717-1.642-0.315-3.623,1.12-4.868
		c1.78-1.528,4.507-1.358,6.058,0.396c0.603,0.679,0.946,1.5,1.033,2.349C17.194,72.15,14.38,72.943,11.998,74.415L11.998,74.415z"
		/>
	<path fill-rule="evenodd" clip-rule="evenodd" fill="#FFFFFF" d="M6.515,80.754c-1.551-0.962-2.354-2.831-1.866-4.642
		c0.574-2.264,2.928-3.622,5.225-3.028c0.861,0.226,1.607,0.708,2.182,1.331C9.5,75.971,7.634,78.207,6.515,80.754L6.515,80.754z"/>
	<path fill-rule="evenodd" clip-rule="evenodd" fill="#FFFFFF" d="M5.625,89.045c-1.838,0.057-3.56-1.019-4.22-2.801
		c-0.804-2.179,0.344-4.613,2.583-5.405c0.833-0.311,1.751-0.339,2.555-0.113C5.338,83.442,5.079,86.329,5.625,89.045L5.625,89.045z
		"/>
	<path fill-rule="evenodd" clip-rule="evenodd" fill="#FFFFFF" d="M9.644,96.375c-1.464,1.075-3.502,1.133-5.082,0.057
		c-1.923-1.358-2.354-4.019-0.976-5.915c0.517-0.735,1.263-1.245,2.067-1.528C6.199,91.904,7.634,94.422,9.644,96.375L9.644,96.375z
		"/>
	<path fill-rule="evenodd" clip-rule="evenodd" fill="#FFFFFF" d="M17.165,100.167c-0.574,1.698-2.239,2.915-4.134,2.858
		c-2.382-0.029-4.249-1.953-4.22-4.301c0.029-0.906,0.316-1.727,0.833-2.405C11.768,98.413,14.409,99.685,17.165,100.167
		L17.165,100.167z"/>
	<path fill-rule="evenodd" clip-rule="evenodd" fill="#C62827" d="M6.945,95.016c0,9.593,3.014,5.094,8.813,4.613
		c-1.206,1.783-2.038,2.179-3.703,3.509c-1.091,0.848-2.785,2.49-3.646,3.564c-0.631,0.766-2.583,3.65-2.641,5.264
		c0.546-0.17,2.268-0.451,4.278-1.584c0.66,2.404,0.861,3.934,2.612,5.123c0.258-3.113,5.368-11.547,7.263-12.82
		c1.091,4.018,6.115,7.33,6.229,12.82c2.067-0.539,2.526-2.264,2.612-5.123c1.896,0,2.498,0.197,3.904,1.301
		c0.545-1.104-1.32-3.904-1.924-4.809c-2.87-4.359-6.344-4.105-7.177-7.246c7.78,1.783,8.297,3.169,8.297-5.632
		c0-6.848-5.827-2.434-10.335-0.65c-1.119,0.424-2.324,0.339-3.158,0.141C17.395,93.488,6.945,84.63,6.945,95.016L6.945,95.016z"/>
	<text transform="matrix(1.0144 0 0 1 8.0952 88.2173)" fill="#FFFFFF" font-family="'MicrosoftYaHei'" font-size="11.8857">新</text>
	<text transform="matrix(1.0144 0 0 1 21.1504 88.2173)" fill="#FFFFFF" font-family="'MicrosoftYaHei'" font-size="11.8857">品</text>
</g>
<g>
	<polygon fill-rule="evenodd" clip-rule="evenodd" fill="#E95655" points="51.735,173.621 51.735,122.609 1.148,173.51 	"/>
	
		<text transform="matrix(0.6992 -0.715 0.7091 0.7051 16.6138 172.502)" fill="#FFFFFF" font-family="'MicrosoftYaHei'" font-size="11.7095">限</text>
	
		<text transform="matrix(0.6992 -0.715 0.7091 0.7051 25.3501 163.6758)" fill="#FFFFFF" font-family="'MicrosoftYaHei'" font-size="11.7095">时</text>
	
		<text transform="matrix(0.6992 -0.715 0.7091 0.7051 34.1035 154.8672)" fill="#FFFFFF" font-family="'MicrosoftYaHei'" font-size="11.7095">折</text>
	
		<text transform="matrix(0.6992 -0.715 0.7091 0.7051 42.8403 146.042)" fill="#FFFFFF" font-family="'MicrosoftYaHei'" font-size="11.7095">扣</text>
	<path fill-rule="evenodd" clip-rule="evenodd" fill="#FFFFFF" d="M32.245,161.582c1.028,0.225,8.552,2.549,8.885,2.939
		c0.361,0.701,0.14,3.92,0.14,4.957l4.247,1.959c1.305,0.533,1.083,0.756,1.25,0.393c-0.028-0.027-0.057-0.084-0.084-0.084
		l-2.665-3.471c-0.473-0.617-0.86-1.178-1.332-1.85c-0.473-0.615-1.028-1.232-1.361-1.904l4.775,1.4
		c0.556-0.447,0.583-0.672,1.027-1.119c0.75-0.783,2.499-2.408,3.082-3.303c-0.417-0.197-4.637-0.785-5.941-1.148l-0.25,0.223
		c-0.028,0.027-0.056,0.057-0.056,0.084l-2.665,3.641l-0.057-9.184c-0.166,0.195,0.029-0.057-0.193,0.225l-2.582,4.703
		c-0.306,0.477-0.639,0.447-1.277,0.559L32.245,161.582z"/>
	<path fill-rule="evenodd" clip-rule="evenodd" fill="#FFFFFF" d="M36.354,165.949c0,1.121-0.167,2.018-0.333,3.082
		c-0.083,0.502-0.111,1.176-0.167,1.566c-0.055,0.533-0.222,1.092-0.055,1.428c0.193-0.279,0.166-0.279,0.333-0.504
		c0.11-0.168,0.277-0.363,0.333-0.447c0.25-0.336,0.444-0.588,0.693-0.896c0.528-0.699,3.859-5.236,3.971-5.656
		C40.129,164.578,37.603,165.643,36.354,165.949L36.354,165.949z"/>
	<path fill-rule="evenodd" clip-rule="evenodd" fill="#EAECEE" d="M36.354,165.949c1.249-0.307,3.775-1.371,4.775-1.428
		c-0.333-0.391-7.856-2.715-8.885-2.939c0.417,0.785,1.833,1.848,2.582,2.773L36.354,165.949z"/>
	<path fill-rule="evenodd" clip-rule="evenodd" fill="#EAECEE" d="M46.766,171.83c0-1.008-0.167-1.932-0.306-2.969
		c-0.084-0.811-0.361-2.014-0.361-2.939l-4.775-1.4c0.333,0.672,0.889,1.289,1.361,1.904c0.472,0.672,0.859,1.232,1.332,1.85
		l2.665,3.471C46.709,171.746,46.738,171.803,46.766,171.83L46.766,171.83z"/>
	<path fill-rule="evenodd" clip-rule="evenodd" fill="#EAECEE" d="M35.799,172.025c1.804-0.867,3.637-1.736,5.47-2.547
		c0-1.037,0.222-4.256-0.14-4.957c-0.111,0.42-3.442,4.957-3.971,5.656c-0.249,0.309-0.443,0.561-0.693,0.896
		c-0.056,0.084-0.223,0.279-0.333,0.447C35.965,171.746,35.993,171.746,35.799,172.025L35.799,172.025z"/>
	<path fill-rule="evenodd" clip-rule="evenodd" fill="#EAECEE" d="M44.267,160.352c-0.278-0.225-1.222-2.045-1.5-2.52
		c-0.277-0.533-0.499-0.896-0.75-1.373c-0.166-0.336-0.555-1.064-0.777-1.344l0.057,9.184l2.665-3.641
		c0-0.027,0.027-0.057,0.056-0.084L44.267,160.352z"/>
</g>
<g>
	<path fill-rule="evenodd" clip-rule="evenodd" fill="#FFFFFF" stroke="#FFFFFF" stroke-width="0.5714" stroke-miterlimit="10" d="
		M65.918,44.901c0.391,0,0.699-0.313,0.699-0.712s-0.308-0.712-0.699-0.712s-0.698,0.313-0.698,0.712S65.527,44.901,65.918,44.901
		L65.918,44.901z"/>
	<path fill-rule="evenodd" clip-rule="evenodd" fill="#FFFFFF" d="M68.965,43.333h9.724c0.308,0,0.531,0.257,0.531,0.542v0.627
		c0,0.285-0.224,0.541-0.531,0.541h-9.724c-0.28,0-0.531-0.256-0.531-0.541v-0.627C68.434,43.59,68.685,43.333,68.965,43.333
		L68.965,43.333z"/>
	<path fill-rule="evenodd" clip-rule="evenodd" fill="#FFFFFF" stroke="#FFFFFF" stroke-width="0.5714" stroke-miterlimit="10" d="
		M65.918,49.632c0.391,0,0.699-0.314,0.699-0.713s-0.308-0.713-0.699-0.713s-0.698,0.314-0.698,0.713S65.527,49.632,65.918,49.632
		L65.918,49.632z"/>
	<path fill-rule="evenodd" clip-rule="evenodd" fill="#FFFFFF" d="M68.965,48.064h9.724c0.308,0,0.531,0.256,0.531,0.542v0.627
		c0,0.285-0.224,0.542-0.531,0.542h-9.724c-0.28,0-0.531-0.256-0.531-0.542v-0.627C68.434,48.321,68.685,48.064,68.965,48.064
		L68.965,48.064z"/>
	<path fill-rule="evenodd" clip-rule="evenodd" fill="#FFFFFF" stroke="#FFFFFF" stroke-width="0.5714" stroke-miterlimit="10" d="
		M65.918,54.192c0.391,0,0.699-0.314,0.699-0.713c0-0.37-0.308-0.685-0.699-0.685s-0.698,0.314-0.698,0.685
		C65.22,53.877,65.527,54.192,65.918,54.192L65.918,54.192z"/>
	<path fill-rule="evenodd" clip-rule="evenodd" fill="#FFFFFF" d="M68.965,52.653h9.724c0.308,0,0.531,0.228,0.531,0.541v0.599
		c0,0.313-0.224,0.541-0.531,0.541h-9.724c-0.28,0-0.531-0.228-0.531-0.541v-0.599C68.434,52.88,68.685,52.653,68.965,52.653
		L68.965,52.653z"/>
</g>
<g>
	<path fill-rule="evenodd" clip-rule="evenodd" fill="#33CC66" d="M118.169,169.605c-0.167,2.837-2.334,5.085-5,5.085
		c-2.723,0-4.944-2.36-5-5.338l0,0v-0.027V132.69h10V169.605z"/>
</g>
<g>
	<path fill="none" stroke="#707070" stroke-width="0.2" stroke-miterlimit="10" d="M93.195,52.997c0,0.312,0.28,0.594,0.589,0.594
		h2.046v8.18c0,0.423,0.252,0.622,0.672,0.622h12.387c0.447,0,0.701-0.199,0.701-0.622v-8.18h1.934c0.393,0,0.672-0.226,0.672-0.594
		c0-0.339-0.701-0.962-1.037-1.302c-0.42-0.424-0.785-0.792-1.205-1.188l-6.529-6.622c-0.84-0.849-0.896-0.566-2.018,0.594
		l-7.118,7.188C93.952,52.006,93.195,52.628,93.195,52.997L93.195,52.997z"/>
</g>
<g>
	<path fill="#7CC067" d="M133.106,73.83c-0.856-1.314,0.229-2.372-1.371-3.029c-0.771,1.686-0.343,2.657,0.485,4.229
		c-0.028,0.629-1.856-0.714-4.199,0.572C123.107,78.373,124.536,89,133.363,89c6.313,0,10.57-7.828,6.057-12.485
		c-1.657-1.686-2.657-1.343-5.685-1.343c0.942-0.829,0.114-0.628,1.371-1.028c2.714-0.829,5.113-0.4,5.199-4.4
		C137.534,69.744,134.135,69.944,133.106,73.83L133.106,73.83z"/>
</g>
<g>
	<path fill="none" stroke="#707070" stroke-width="0.2286" stroke-miterlimit="10" d="M152.072,52.572h3.543
		c0.257,0.055,0.514,0.11,0.8,0.11c0.343,0,0.686-0.027,0.999-0.11h7.6c0.857,0.083,1.686,0.083,2.485,0.138
		c0.601,0.22,1,0.77,0.972,1.403c-0.086,2.696-2.657,7.54-6.628,7.54h-4.971c-4.028,0-6.285-4.788-6.399-7.54
		C150.444,53.259,151.188,52.572,152.072,52.572L152.072,52.572z"/>
	<path fill="none" stroke="#707070" stroke-width="0.2286" stroke-miterlimit="10" d="M152.758,50.178
		c0.229,0,0.457,0.027,0.629,0.11c0-0.11,0-0.22,0-0.33c0.028-1.458,1.457-2.587,3.199-2.532c1.715,0.028,3.057,1.266,3.028,2.724
		c-0.057,1.431-1.485,2.586-3.199,2.532c-0.915-0.027-1.714-0.386-2.257-0.908c-0.2,0.467-0.801,0.825-1.486,0.798
		c-0.828-0.027-1.484-0.578-1.457-1.239C151.244,50.646,151.93,50.15,152.758,50.178L152.758,50.178z M163.3,48.279
		c-0.172-0.33,0.086-0.55-0.286-0.715c-0.199,0.385-0.114,0.605,0.086,0.99c-0.028,0.138-0.457-0.192-1.028,0.083l-0.057,0.055
		c-2.372-2.367-3.856-5.696-4.286-4.926c0.115,2.862,1.715,5.311,3.571,7.54c2.028,1.569,4.686,1.21,6.828,1.43
		c0.6,0.028-1.114-0.577-3.171-1.815c0.399-0.606,0.428-1.376-0.144-1.981c-0.371-0.413-0.628-0.331-1.371-0.358
		c0.257-0.193,0.058-0.138,0.343-0.22c0.686-0.193,1.257-0.055,1.314-0.991C164.414,47.343,163.585,47.371,163.3,48.279
		L163.3,48.279z"/>
</g>
<g>
	<path fill="none" stroke="#707070" stroke-width="0.2" stroke-miterlimit="10" d="M180.721,59.833c1.109-11.3,14.113-10.377,15,0
		 M187.957,43.833c2.218,0,3.992,1.766,3.992,3.912c0,2.173-1.774,3.938-3.992,3.938c-2.219,0-3.993-1.766-3.993-3.938
		C183.964,45.599,185.738,43.833,187.957,43.833L187.957,43.833z"/>
</g>
<g>
	<path fill="none" stroke="#707070" stroke-width="0.2" stroke-miterlimit="10" d="M132.288,47.423
		c-0.853-1.297,0.228-2.34-1.365-2.988c-0.768,1.664-0.341,2.622,0.483,4.172c-0.028,0.62-1.848-0.705-4.181,0.564
		c-4.892,2.734-3.469,13.221,5.318,13.221c6.284,0,10.521-7.724,6.028-12.319c-1.649-1.663-2.645-1.325-5.658-1.325
		c0.938-0.818,0.113-0.62,1.364-1.015c2.702-0.818,5.091-0.395,5.176-4.342C136.695,43.392,133.312,43.59,132.288,47.423
		L132.288,47.423z"/>
</g>
<g>
	<path fill-rule="evenodd" clip-rule="evenodd" fill="#7CC067" stroke="#79B764" stroke-width="0.2286" stroke-miterlimit="10" d="
		M94.733,79.478c0,0.314,0.286,0.6,0.6,0.6h2.085v8.258c0,0.428,0.257,0.628,0.686,0.628h4.97V83.42h2.715v5.543h4.941
		c0.457,0,0.715-0.2,0.715-0.628v-8.258h1.971c0.4,0,0.686-0.229,0.686-0.6c0-0.343-0.714-0.972-1.057-1.314
		c-0.429-0.429-0.8-0.8-1.229-1.2l-6.656-6.686c-0.856-0.857-0.914-0.571-2.057,0.6l-7.256,7.257
		C95.504,78.478,94.733,79.106,94.733,79.478L94.733,79.478z"/>
</g>
<g>
	<path fill-rule="evenodd" clip-rule="evenodd" fill="#7CC067" stroke="#79B764" stroke-width="0.2" stroke-miterlimit="10" d="
		M155.813,78.633h3.543c0.257,0.057,0.514,0.114,0.8,0.114c0.343,0,0.686-0.028,0.999-0.114h7.6
		c0.857,0.086,1.686,0.086,2.485,0.143c0.601,0.229,1,0.8,0.972,1.457c-0.086,2.8-2.657,7.829-6.628,7.829h-4.971
		c-4.028,0-6.285-4.972-6.399-7.829C154.185,79.347,154.928,78.633,155.813,78.633L155.813,78.633z"/>
	<path fill-rule="evenodd" clip-rule="evenodd" fill="#7CC067" stroke="#79B764" stroke-width="0.2" stroke-miterlimit="10" d="
		M156.498,76.147c0.229,0,0.457,0.028,0.629,0.114c0-0.114,0-0.229,0-0.343c0.028-1.515,1.457-2.686,3.199-2.629
		c1.715,0.029,3.057,1.314,3.028,2.829c-0.057,1.486-1.485,2.686-3.199,2.629c-0.915-0.028-1.714-0.4-2.257-0.943
		c-0.2,0.485-0.801,0.857-1.486,0.829c-0.828-0.029-1.484-0.6-1.457-1.286C154.984,76.633,155.67,76.118,156.498,76.147
		L156.498,76.147z M167.04,74.175c-0.172-0.343,0.086-0.571-0.286-0.743c-0.199,0.4-0.114,0.628,0.086,1.028
		c-0.028,0.143-0.457-0.2-1.028,0.086l-0.057,0.057c-2.372-2.457-3.856-5.914-4.286-5.114c0.115,2.971,1.715,5.514,3.571,7.829
		c2.028,1.629,4.686,1.257,6.828,1.485c0.6,0.029-1.114-0.6-3.171-1.885c0.399-0.629,0.428-1.429-0.144-2.057
		c-0.371-0.429-0.628-0.343-1.371-0.372c0.257-0.2,0.058-0.143,0.343-0.229c0.686-0.2,1.257-0.057,1.314-1.029
		C168.154,73.204,167.325,73.232,167.04,74.175L167.04,74.175z"/>
</g>
<g>
	<path fill-rule="evenodd" clip-rule="evenodd" fill="#7DC067" stroke="#79B764" stroke-width="0.2" stroke-miterlimit="10" d="
		M182.681,86.221c1.143-11.886,14.541-10.915,15.455,0 M190.137,69.393c2.285,0,4.113,1.857,4.113,4.114
		c0,2.286-1.828,4.143-4.113,4.143s-4.113-1.857-4.113-4.143C186.023,71.25,187.852,69.393,190.137,69.393L190.137,69.393z"/>
</g>
<g>
	<path fill-rule="evenodd" clip-rule="evenodd" fill="#33CC66" stroke="#DBDBDC" stroke-width="0.2" stroke-miterlimit="10" d="
		M80.944,88.966l0.147,0.406l0.147-0.406c2.441-5.47,6.353-7.873,6.353-12.388c0-3.531-2.883-7.207-6.471-7.207
		c-3.588,0-6.529,3.675-6.529,7.207C74.591,80.805,80.031,85.58,80.944,88.966L80.944,88.966z M81.091,71.6
		c2.47,0,4.47,1.968,4.47,4.371c0,2.431-2,4.399-4.47,4.399c-2.441,0-4.441-1.968-4.441-4.399
		C76.649,73.568,78.649,71.6,81.091,71.6L81.091,71.6z"/>
</g>
<g>
	<path fill-rule="evenodd" clip-rule="evenodd" fill="#33CC66" stroke="#DBDBDC" stroke-width="0.2" stroke-miterlimit="10" d="
		M63.512,72.664c0.284,1.574,0.341,2.461,0.114,4.006c-0.228,1.746-1.334,4.263-2.328,5.78c-0.17,0.229-0.198,0.372-0.368,0.602
		c-0.284,0.4-0.512,0.743-0.767,1.173c-1.079,1.545-2.242,2.861-3.605,4.148c-1.872,1.804-2.866,2.548-5.704,3.091
		c-0.993,0.201-1.504,0.115-2.242-0.114l3.803-5.694c0.511,0.229,0.653,0.572,1.448-0.058c0.682-0.543,0.794-0.515,1.447-1.459
		l2.98-4.436c0.142-0.2,0.227-0.343,0.368-0.544c0.143-0.2,0.199-0.4,0.313-0.629c0.596-1.431,0.255-1.574-0.17-2.117
		c0.113-0.315,2.44-3.663,2.81-4.235c0.085-0.143,0.142-0.229,0.256-0.344c0.255-0.343,0.652-0.944,0.822-1.03
		c0.058,0.258,0.113,0.229,0.228,0.4C63.172,71.604,63.427,72.177,63.512,72.664L63.512,72.664z M61.98,70.317
		c-0.113,0.315-0.709,1.145-0.937,1.402c-0.539,0.63-2.356,3.634-2.952,4.235c-0.283-0.143-1.05-0.601-1.107-0.944
		c-0.056-0.344,0.029-0.544,0.199-0.83c0.142-0.258,0.284-0.458,0.454-0.659c0.709-0.772,2.355-3.834,2.951-3.92
		c0.37-0.085,0.398,0.057,0.767,0.315C61.582,70.088,61.809,70.146,61.98,70.317L61.98,70.317z M51.904,85.313
		c-0.142,0.314-2.81,4.206-3.292,4.893c-0.143,0.258-0.256,0.572-0.54,0.716c-0.454-0.201-1.22-0.716-1.306-1.23
		c-0.057-0.229,2.015-3.119,2.157-3.349c0.284-0.429,0.823-1.316,1.22-1.631c0.397-0.286,0.567-0.258,0.909,0
		C51.365,84.911,51.649,85.055,51.904,85.313L51.904,85.313z"/>
</g>
<g>
	<path fill-rule="evenodd" clip-rule="evenodd" fill="#33CC66" stroke="#DBDBDC" stroke-width="0.2286" stroke-miterlimit="10" d="
		M146.193,34.21c0.247,0.37,0.685,0.912,0.793,1.254l0.11,0.342l0.137-0.342c0.137-0.342,0.383-0.656,0.711-1.169
		c1.778-2.681,4.651-6.189,4.651-9.583c0-3.052-2.462-4.906-5.499-4.906s-5.501,1.854-5.501,4.906
		C141.596,28.021,144.47,31.472,146.193,34.21L146.193,34.21z"/>
</g>
<g>
	<path fill-rule="evenodd" clip-rule="evenodd" fill="#33CC66" stroke="#DBDBDC" stroke-width="0.2286" stroke-miterlimit="10" d="
		M170.428,26.822l5.628-5.43l1.8,1.878l-5.627,5.4L170.428,26.822z M167.571,30.461h13.427c0.2,0,0.372,0.146,0.372,0.352v0.558
		c0,0.206-0.172,0.352-0.372,0.352h-13.427c-0.2,0-0.371-0.146-0.371-0.352v-0.558C167.2,30.607,167.371,30.461,167.571,30.461
		L167.571,30.461z M176.484,21.011l0.457-0.44l0.372-0.352l0.313-0.323c0.258-0.234,0.687-0.234,0.915,0.03l0.914,0.91
		c0.229,0.265,0.229,0.675-0.029,0.91l-0.313,0.323l-0.372,0.352l-0.485,0.44L176.484,21.011z M170,27.262l1.799,1.849l-2.484,0.586
		L170,27.262z"/>
</g>
<g>
	<path fill-rule="evenodd" clip-rule="evenodd" fill="#FFFFFF" stroke="#DBDBDC" stroke-width="0.2" stroke-miterlimit="10" d="
		M182.753,138.137c-0.058-3-2.343-5.429-5.199-5.429c-2.829,0-5.143,2.429-5.171,5.429H182.753z"/>
	<rect x="172.268" y="137.994" fill-rule="evenodd" clip-rule="evenodd" fill="#FFFFFF" width="10.57" height="43.371"/>
</g>
<g>
	<path fill-rule="evenodd" clip-rule="evenodd" fill="#33CC66" stroke="#42B364" stroke-width="0.2286" stroke-miterlimit="10" d="
		M82.542,162.604c-0.086,6.771-4.6,12.257-10.17,12.257c-5.571,0-10.085-5.485-10.17-12.257l-0.029-30.058l20.312-0.027
		L82.542,162.604z"/>
	<path fill-rule="evenodd" clip-rule="evenodd" fill="#FEFEFE" stroke="#42B364" stroke-width="0.2286" stroke-miterlimit="10" d="
		M102.682,162.604c-0.086,6.771-4.599,12.257-10.17,12.257c-5.57,0-10.084-5.485-10.17-12.257l-0.028-30.058l20.339-0.027
		L102.682,162.604z"/>
</g>
<g>
	<path fill-rule="evenodd" clip-rule="evenodd" fill="#33CC66" stroke="#42B364" stroke-width="0.2286" stroke-miterlimit="10" d="
		M146.131,162.604c-0.086,6.771-4.6,12.257-10.17,12.257c-5.571,0-10.085-5.485-10.17-12.257l-0.029-30.058l20.312-0.027
		L146.131,162.604z"/>
	<path fill-rule="evenodd" clip-rule="evenodd" fill="#BEFF97" stroke="#42B364" stroke-width="0.2286" stroke-miterlimit="10" d="
		M166.271,162.604c-0.086,6.771-4.6,12.257-10.171,12.257c-5.57,0-10.084-5.485-10.17-12.257l-0.028-30.058l20.34-0.027
		L166.271,162.604z"/>
</g>
<g>
	<rect x="180.221" y="103.333" fill-rule="evenodd" clip-rule="evenodd" fill="#EBEDF0" width="8" height="8"/>
	<polygon fill-rule="evenodd" clip-rule="evenodd" fill="#E2F0DC" points="180.221,111.333 184.221,107.333 188.221,111.333 	"/>
	<polygon fill-rule="evenodd" clip-rule="evenodd" fill="#DAECD3" points="180.221,103.333 184.221,107.333 188.221,103.333 	"/>
</g>
</svg>
