<?xml version="1.0" encoding="utf-8"?>
<svg version="1.1" xmlns="http://www.w3.org/2000/svg" xmlns:xlink="http://www.w3.org/1999/xlink" x="0" y="0"
	 width="120px" height="180px" viewBox="0 0 120 180" enable-background="new 0 0 120 180" xml:space="preserve">
<g>
	<g>
		<path fill="#999999" d="M9.99,0.51c0.05,0.02,0.16,0.1,0.42,0.36l6.89,6.98c0.43,0.41,0.81,0.79,1.26,1.24l0.2,0.19
			c0.21,0.2,0.7,0.68,0.75,0.83c0,0.04,0,0.12-0.21,0.12h-2.04h-0.5v0.5v8.61c0,0.07-0.01,0.11-0.02,0.12c0,0-0.05,0.04-0.22,0.04
			H3.48c-0.13,0-0.18-0.03-0.19-0.03c0-0.01-0.02-0.04-0.02-0.12v-8.61v-0.5h-0.5H0.62c-0.05,0-0.12-0.07-0.12-0.09
			c0.05-0.18,0.54-0.63,0.74-0.83c0.1-0.09,0.19-0.18,0.27-0.26L9,1.49C9.14,1.35,9.26,1.22,9.37,1.1C9.62,0.84,9.87,0.57,9.99,0.51
			 M9.99,0C9.66,0,9.36,0.4,8.64,1.14L1.15,8.71C0.8,9.07,0,9.72,0,10.11c0,0.33,0.3,0.62,0.62,0.62h2.15v8.61
			c0,0.45,0.27,0.65,0.71,0.65h13.04c0.47,0,0.74-0.21,0.74-0.65v-8.61h2.04c0.41,0,0.71-0.24,0.71-0.62c0-0.36-0.74-1.01-1.09-1.37
			c-0.44-0.45-0.83-0.83-1.27-1.25l-6.87-6.97C10.42,0.17,10.2,0,9.99,0L9.99,0z"/>
	</g>
</g>
<g>
	<g>
		<path fill="#999999" d="M42.37,0.5c-0.22,2.47-1.56,2.75-3.7,3.2c-0.56,0.12-1.14,0.24-1.74,0.41c-0.84,0.23-1.03,0.29-1.23,0.64
			c-0.04,0.07-0.11,0.2-0.48,0.5l-1.09,0.89h1.4c0.52,0,0.99-0.01,1.42-0.02c0.35-0.01,0.67-0.01,0.97-0.01
			c1.53,0,2.39,0.13,3.62,1.28c1.94,1.85,2.48,4.34,1.48,6.85c-1.04,2.61-3.89,5.25-7.91,5.25c-5.11,0-7.68-3.06-8.38-5.93
			c-0.72-2.95,0.36-5.84,2.63-7.02c0.73-0.38,1.48-0.56,2.29-0.56c0.51,0,0.95,0.07,1.3,0.13c0.26,0.04,0.46,0.07,0.63,0.07
			c0.55,0,0.76-0.36,0.77-0.66l0.01-0.15l-0.07-0.13c-0.86-1.46-1.2-2.26-0.73-3.47C33.88,2,33.88,2.26,33.9,2.72
			c0.02,0.51,0.04,1.13,0.51,1.82l0.6,0.87l0.29-1.02C36.27,1,39.27,0.54,42.37,0.5 M42.9,0c-3.12,0-6.91,0.2-8.08,4.26
			c-0.94-1.36,0.28-2.47-1.5-3.15c-0.88,1.73-0.42,2.75,0.54,4.4c-0.01,0.14-0.1,0.18-0.27,0.18c-0.36,0-1.04-0.2-1.94-0.2
			c-0.73,0-1.59,0.13-2.52,0.62C23.63,8.97,25.24,20,35.1,20c7.06,0,11.87-8.11,6.77-12.96c-1.32-1.24-2.28-1.42-3.96-1.42
			c-0.66,0-1.43,0.03-2.39,0.03c1.08-0.88,0.11-0.65,1.53-1.05C40.12,3.72,42.78,4.14,42.9,0L42.9,0z"/>
	</g>
</g>
<g>
	<g>
		<path fill="#999999" d="M66.15,10.41c0.9,0.08,1.77,0.11,2.66,0.14c0.45,0.23,0.71,0.63,0.69,1.08c-0.08,2.78-2.75,7.88-6.88,7.88
			l-5.57,0c-4.12,0-6.43-5.06-6.56-7.88c-0.01-0.3,0.11-0.58,0.33-0.81c0.25-0.26,0.6-0.4,0.96-0.4h3.87
			c0.3,0.08,0.59,0.11,0.95,0.14c0.32,0,0.74-0.02,1.18-0.14H66.15 M66.17,9.91h-8.45c-0.37,0.11-0.74,0.14-1.11,0.14
			c-0.31-0.03-0.6-0.06-0.88-0.14h-3.94c-0.99,0-1.82,0.8-1.79,1.73c0.14,3.06,2.62,8.37,7.06,8.37c0.01,0,0.02,0,0.03,0h5.53
			c4.43,0,7.29-5.39,7.38-8.36c0.03-0.71-0.42-1.3-1.08-1.59C68.04,10.02,67.11,9.99,66.17,9.91L66.17,9.91z"/>
	</g>
	<g>
		<path fill="#999999" d="M58.64,1.04c0.23,0.31,0.5,0.7,0.74,1.04c0.77,1.1,1.82,2.62,3.09,3.87l0.25,0.25l0.32-0.16l0.05-0.03
			c0.08-0.04,0.15-0.06,0.23-0.08l0.39,0.01c0.01,0,0.02,0,0.03,0.01c0.09,0.02,0.17,0.03,0.22,0.03c0.05,0,0.1-0.01,0.15-0.02
			l0.11,0l0.21,0.31l0.09-0.3c0.09,0,0.18,0,0.26,0c0.52,0.01,0.59,0.01,0.79,0.23c0.61,0.66,0.27,1.34,0.09,1.6l-0.29,0.44
			l0.45,0.27c0.63,0.38,1.24,0.71,1.77,0.98c-1.83-0.07-3.69-0.19-5.21-1.35C60.73,6.16,59.05,3.79,58.64,1.04 M56.66,4.68l0.11,0
			c0.9,0.03,1.73,0.38,2.28,0.96c0.42,0.44,0.64,1,0.62,1.55c-0.05,1.3-1.36,2.35-2.93,2.35l-0.11,0C55.78,9.53,55,9.21,54.43,8.67
			l-0.52-0.5l-0.28,0.67c-0.14,0.34-0.59,0.58-1.08,0.58l-0.07,0c-0.39-0.01-0.76-0.16-0.97-0.39c-0.09-0.1-0.19-0.25-0.19-0.45
			c0.02-0.45,0.54-0.82,1.17-0.83c0.22,0.02,0.41,0.05,0.54,0.11l0.7,0.3V7.38l0-0.35C53.78,5.73,55.09,4.68,56.66,4.68 M58.24,0
			c-0.07,0-0.13,0.04-0.18,0.12c0.11,3.18,1.9,5.9,3.97,8.39c2.27,1.76,5.19,1.36,7.6,1.59c0.01,0,0.03,0,0.04,0
			c0.53,0-1.34-0.65-3.59-2.01c0.45-0.68,0.48-1.53-0.14-2.21c-0.43-0.45-0.71-0.37-1.5-0.4c0.26-0.2,0.03-0.14,0.37-0.23
			c0.74-0.23,1.39-0.09,1.45-1.11c-0.09,0-0.19-0.01-0.29-0.01c-0.69,0-1.42,0.13-1.69,1c-0.23-0.34,0.08-0.62-0.34-0.79
			c-0.23,0.43-0.11,0.68,0.09,1.11c0,0.03-0.02,0.04-0.05,0.04c-0.08,0-0.26-0.06-0.49-0.06c-0.17,0-0.37,0.03-0.59,0.14L62.82,5.6
			C60.45,3.25,58.88,0,58.24,0L58.24,0z M56.66,4.18c-1.85,0-3.37,1.26-3.42,2.84c0,0.11,0,0.25,0,0.37
			c-0.2-0.09-0.43-0.11-0.68-0.14c-0.02,0-0.04,0-0.06,0c-0.91,0-1.64,0.58-1.67,1.3c-0.03,0.74,0.71,1.33,1.65,1.36
			c0.03,0,0.05,0,0.08,0c0.7,0,1.32-0.36,1.54-0.88c0.62,0.6,1.5,0.99,2.52,1.02c0.04,0,0.08,0,0.12,0c1.85,0,3.37-1.26,3.42-2.84
			c0.06-1.62-1.45-2.98-3.38-3.03C56.74,4.18,56.7,4.18,56.66,4.18L56.66,4.18z"/>
	</g>
</g>
<g>
	<g>
		<path fill="#999999" d="M84.86,10L84.86,10c3.34,0,6.51,2.34,8.16,4.66c1.22,1.71,1.71,3.45,1.39,4.84H75.7
			c-0.08-0.25-0.14-0.54-0.2-0.83C75.53,14.65,79.61,10,84.86,10 M84.86,9.5c-5.45,0-9.86,4.83-9.86,9.22
			c0.09,0.48,0.19,0.92,0.35,1.28h19.43C96.2,15.92,90.56,9.5,84.86,9.5L84.86,9.5z"/>
	</g>
	<g>
		<path fill="#999999" d="M84.67,0.5c2.48,0,4.5,2.01,4.5,4.48c0,2.49-2.02,4.52-4.5,4.52c-2.48,0-4.5-2.03-4.5-4.52
			c0-1.19,0.47-2.32,1.32-3.17C82.34,0.97,83.47,0.5,84.67,0.5 M84.67,0c-2.76,0-5,2.24-5,4.98c0,2.77,2.24,5.02,5,5.02
			c2.78,0,5-2.24,5-5.02C89.67,2.24,87.45,0,84.67,0L84.67,0z"/>
	</g>
</g>
<g>
	<g>
		<path fill="#7CC066" d="M3.48,43.9c-0.41,0-0.61-0.18-0.61-0.55v-8.71H0.62c-0.27,0-0.52-0.25-0.52-0.52
			c0-0.27,0.52-0.76,0.86-1.08c0.1-0.09,0.19-0.18,0.26-0.25l7.49-7.57l0.36-0.38c0.45-0.47,0.69-0.73,0.91-0.73
			c0.16,0,0.35,0.13,0.71,0.49l6.87,6.97c0.45,0.42,0.83,0.81,1.27,1.25l0.18,0.18c0.33,0.32,0.88,0.86,0.88,1.12
			c0,0.32-0.24,0.52-0.61,0.52h-2.13v8.71c0,0.38-0.2,0.55-0.64,0.55H3.48z"/>
		<path fill="#7CC066" d="M9.99,24.2c0.13,0,0.31,0.13,0.64,0.46l6.88,6.98c0.44,0.42,0.82,0.8,1.26,1.25l0.18,0.18
			c0.28,0.27,0.85,0.83,0.85,1.05c0,0.31-0.26,0.42-0.51,0.42h-2.03h-0.2v0.2v8.61c0,0.22-0.06,0.45-0.54,0.45H3.48
			c-0.45,0-0.51-0.24-0.51-0.45v-8.61v-0.2h-0.2H0.62c-0.22,0-0.42-0.21-0.42-0.42c0-0.22,0.54-0.73,0.83-1.01
			c0.1-0.09,0.19-0.18,0.26-0.25l7.49-7.57c0.13-0.14,0.25-0.27,0.36-0.38C9.56,24.46,9.81,24.2,9.99,24.2 M9.99,24
			c-0.33,0-0.63,0.4-1.35,1.14l-7.49,7.57C0.8,33.07,0,33.72,0,34.11c0,0.33,0.3,0.62,0.62,0.62h2.15v8.61
			c0,0.45,0.27,0.65,0.71,0.65h13.04c0.47,0,0.74-0.21,0.74-0.65v-8.61h2.03c0.41,0,0.71-0.24,0.71-0.62c0-0.36-0.74-1.01-1.09-1.37
			c-0.44-0.45-0.83-0.83-1.27-1.25l-6.87-6.97C10.42,24.17,10.2,24,9.99,24L9.99,24z"/>
	</g>
</g>
<g>
	<g>
		<path fill="#7CC066" d="M35.11,43.9c-5.35,0-8.04-3.22-8.78-6.23c-0.77-3.14,0.4-6.22,2.85-7.5c0.78-0.4,1.59-0.59,2.46-0.59
			c0.53,0,0.98,0.07,1.35,0.13c0.23,0.04,0.43,0.07,0.57,0.07c0.24,0,0.37-0.09,0.38-0.28c-0.91-1.63-1.38-2.61-0.59-4.27
			c0.9,0.37,0.92,0.83,0.94,1.47c0.02,0.48,0.04,1.02,0.46,1.61l0.12,0.17l0.06-0.2c1.09-3.82,4.62-4.17,7.86-4.17
			c-0.11,3.17-1.76,3.51-4.03,3.98c-0.55,0.11-1.13,0.23-1.72,0.4c-0.84,0.25-0.89,0.28-1,0.48c-0.06,0.11-0.15,0.27-0.57,0.61
			l-0.22,0.18h0.28c0.54,0,1.01-0.01,1.45-0.02c0.36-0.01,0.69-0.01,0.99-0.01c1.68,0,2.58,0.19,3.86,1.4
			c2.06,1.97,2.62,4.63,1.55,7.31C42.06,41.7,38.74,43.9,35.11,43.9z"/>
		<path fill="#7CC066" d="M42.68,24.2c-0.14,3-1.74,3.33-3.94,3.78c-0.56,0.11-1.13,0.23-1.73,0.4c-0.83,0.25-0.92,0.29-1.06,0.52
			c-0.06,0.1-0.15,0.25-0.55,0.58l-0.44,0.36h0.56c0.54,0,1.02-0.01,1.45-0.02c0.36-0.01,0.69-0.01,0.99-0.01
			c1.65,0,2.54,0.19,3.79,1.37c2.03,1.94,2.58,4.56,1.52,7.2c-1.08,2.7-4.03,5.42-8.17,5.42c-5.29,0-7.95-3.18-8.69-6.15
			c-0.76-3.09,0.39-6.13,2.79-7.38c0.77-0.39,1.56-0.58,2.42-0.58c0.52,0,0.97,0.07,1.33,0.13c0.24,0.04,0.43,0.07,0.58,0.07
			c0.4,0,0.47-0.24,0.48-0.38l0-0.06l-0.03-0.05c-0.89-1.56-1.33-2.47-0.62-4.04c0.75,0.34,0.77,0.74,0.79,1.34
			c0.02,0.47,0.04,1.05,0.48,1.66l0.24,0.34l0.11-0.4C36.08,24.59,39.36,24.21,42.68,24.2 M42.87,24c-3.1,0-6.89,0.22-8.04,4.24
			c-0.96-1.36,0.26-2.46-1.54-3.15c-0.86,1.75-0.38,2.76,0.54,4.39c-0.01,0.14-0.1,0.18-0.28,0.18c-0.36,0-1.03-0.19-1.92-0.19
			c-0.72,0-1.58,0.13-2.51,0.6C23.63,32.96,25.23,44,35.11,44c7.07,0,11.84-8.13,6.78-12.97c-1.32-1.24-2.27-1.42-3.93-1.42
			c-0.67,0-1.46,0.03-2.44,0.03c1.06-0.86,0.13-0.65,1.54-1.07c3.04-0.86,5.73-0.42,5.82-4.57C42.88,24,42.87,24,42.87,24L42.87,24z
			"/>
	</g>
</g>
<g>
	<g>
		<path fill="#7CC066" d="M57.11,43.89c-4.43,0-6.87-5.3-7-8.27c-0.01-0.4,0.14-0.78,0.42-1.08c0.32-0.33,0.77-0.52,1.24-0.52h3.94
			c0.26,0.06,0.56,0.12,0.89,0.12c0.45,0,0.82-0.04,1.14-0.13l8.41,0c0.56,0.05,1.12,0.08,1.67,0.1c0.37,0.01,0.73,0.03,1.09,0.05
			c0.61,0.23,1,0.8,0.97,1.44c-0.09,2.92-2.92,8.27-7.25,8.27H57.11z"/>
		<path fill="#7CC066" d="M55.67,34.13c0.29,0.06,0.6,0.13,0.94,0.13c0.44,0,0.82-0.04,1.14-0.12h8.4c0.57,0.05,1.13,0.08,1.67,0.1
			c0.35,0.01,0.7,0.03,1.05,0.05c0.57,0.22,0.93,0.74,0.9,1.33c-0.09,2.88-2.87,8.16-7.14,8.16h-5.52c-4.36,0-6.76-5.23-6.88-8.16
			c-0.01-0.37,0.13-0.72,0.39-0.99c0.3-0.31,0.72-0.48,1.16-0.48L55.67,34.13 M66.16,33.91h-8.44c-0.35,0.09-0.73,0.12-1.11,0.12
			c-0.32,0-0.6-0.06-0.89-0.12h-3.94c-0.99,0-1.81,0.76-1.78,1.71c0.13,3.06,2.63,8.38,7.11,8.38h5.52c4.41,0,7.27-5.38,7.37-8.38
			c0.03-0.7-0.41-1.31-1.08-1.56C68.03,34,67.11,34,66.16,33.91L66.16,33.91z"/>
	</g>
	<g>
		<path fill="#7CC066" d="M69.39,33.96c-0.49-0.04-1-0.06-1.52-0.08c-2-0.07-4.07-0.15-5.77-1.46c-1.86-2.23-3.79-4.98-3.92-8.29
			c0.02-0.01,0.05-0.01,0.06-0.01c0.25,0,0.84,0.85,1.48,1.76c0.8,1.15,1.8,2.58,3.03,3.81l0.08,0.08l0.08-0.08
			c0.19-0.12,0.36-0.15,0.53-0.15c0.14,0,0.27,0.03,0.37,0.05c0.07,0.01,0.12,0.03,0.17,0.03h0.09l0.08-0.13
			c-0.21-0.45-0.28-0.66-0.16-0.96c0.08,0.06,0.08,0.12,0.08,0.24c0,0.12,0,0.27,0.09,0.44l0.13,0.24l-0.19,0.14l0.71,0.02
			c0.54,0.01,0.75,0.01,1.06,0.35c0.55,0.58,0.61,1.37,0.15,2.06l-0.07,0.1l0.1,0.06c1.09,0.65,2.1,1.16,2.77,1.49
			C69.02,33.77,69.23,33.87,69.39,33.96z M56.61,33.92c-0.93-0.03-1.82-0.38-2.43-0.98l-0.12-0.11l-0.06,0.15
			c-0.21,0.48-0.81,0.82-1.46,0.82c-0.57-0.02-1.01-0.2-1.3-0.51c-0.2-0.22-0.3-0.48-0.29-0.74c0.03-0.67,0.68-1.18,1.53-1.18
			c0.35,0,0.57,0.04,0.72,0.11l0.16,0.08V31c0.03-1.51,1.48-2.7,3.3-2.7l0.13,0c0.96,0.02,1.86,0.39,2.48,1.03
			c0.51,0.53,0.78,1.2,0.77,1.88c-0.06,1.49-1.54,2.7-3.31,2.7L56.61,33.92z M64.36,29.17c0.26-0.83,0.95-0.94,1.6-0.94
			c0.06,0,0.11,0,0.17,0c-0.07,0.62-0.39,0.68-0.9,0.78c-0.15,0.03-0.3,0.06-0.47,0.1c-0.19,0.06-0.22,0.06-0.27,0.13
			c-0.02,0.02-0.04,0.05-0.14,0.13l-0.06,0.05L64.36,29.17z"/>
		<path fill="#7CC066" d="M58.3,24.25c0.26,0.15,0.82,0.96,1.32,1.69c0.8,1.15,1.8,2.59,3.04,3.82l0.16,0.16l0.16-0.16l0.04-0.03
			c0.13-0.06,0.27-0.09,0.41-0.09c0.13,0,0.25,0.02,0.34,0.04c0.07,0.02,0.13,0.03,0.19,0.03c0.05,0,0.08-0.01,0.12-0.02l0.2,0.01
			l0.02,0.04l0.01-0.04l0.09,0c0.14,0.01,0.27,0.01,0.39,0.01c0.54,0.01,0.7,0.01,0.98,0.32c0.52,0.55,0.57,1.26,0.14,1.92
			l-0.13,0.2l0.2,0.12c1.09,0.66,2.11,1.16,2.78,1.49c0.03,0.01,0.05,0.03,0.08,0.04c-0.31-0.02-0.63-0.03-0.96-0.04
			c-1.98-0.07-4.04-0.15-5.67-1.41C60.37,30.15,58.48,27.47,58.3,24.25 M65.96,28.35c0.01,0,0.03,0,0.04,0
			c-0.08,0.42-0.33,0.47-0.79,0.55c-0.15,0.03-0.31,0.06-0.48,0.11c-0.1,0.03-0.17,0.05-0.21,0.07
			C64.72,28.57,65.15,28.35,65.96,28.35 M56.66,28.42l0.13,0c0.93,0.02,1.8,0.38,2.4,1c0.49,0.51,0.75,1.14,0.74,1.79
			c-0.06,1.43-1.49,2.6-3.2,2.6l-0.12,0c-0.9-0.03-1.76-0.37-2.36-0.95l-0.24-0.23l-0.13,0.3c-0.19,0.43-0.76,0.75-1.36,0.75
			l-0.07,0c-0.46-0.02-0.87-0.19-1.14-0.48c-0.18-0.2-0.27-0.42-0.26-0.66c0.02-0.61,0.63-1.07,1.41-1.07l0.07,0
			c0.26,0,0.46,0.03,0.6,0.1l0.33,0.16v-0.36l0-0.36C53.49,29.56,54.9,28.42,56.66,28.42 M58.24,24c-0.07,0-0.13,0.04-0.18,0.13
			c0.13,3.18,1.9,5.9,3.97,8.38c2.25,1.74,5.21,1.35,7.59,1.59c0.02,0,0.03,0,0.04,0c0.54,0-1.33-0.67-3.56-2.02
			c0.44-0.67,0.47-1.53-0.16-2.2c-0.41-0.46-0.7-0.37-1.52-0.4c0.29-0.21,0.06-0.15,0.38-0.25c0.76-0.21,1.4-0.06,1.46-1.1
			c-0.1,0-0.2-0.01-0.3-0.01c-0.69,0-1.43,0.13-1.71,1.02c-0.19-0.37,0.1-0.61-0.32-0.8c-0.22,0.43-0.13,0.67,0.1,1.1
			c-0.01,0.03-0.03,0.04-0.06,0.04c-0.09,0-0.28-0.07-0.53-0.07c-0.16,0-0.34,0.03-0.54,0.13l-0.06,0.06
			C60.45,27.23,58.88,24,58.24,24L58.24,24z M56.66,28.19c-1.87,0-3.39,1.23-3.42,2.82c0,0.12,0,0.25,0,0.37
			c-0.19-0.09-0.44-0.12-0.7-0.12c-0.02,0-0.05,0-0.07,0c-0.89,0-1.61,0.54-1.64,1.29c-0.03,0.73,0.7,1.35,1.62,1.38
			c0.03,0,0.05,0,0.08,0c0.73,0,1.35-0.39,1.57-0.89c0.6,0.58,1.49,0.98,2.51,1.01c0.04,0,0.09,0,0.13,0c1.85,0,3.36-1.26,3.42-2.82
			c0.03-1.62-1.46-3-3.36-3.03C56.75,28.19,56.7,28.19,56.66,28.19L56.66,28.19z"/>
	</g>
</g>
<g>
	<g>
		<path fill="#7CC066" d="M75.4,43.9c-0.15-0.42-0.24-0.8-0.3-1.23c0-4.19,4.27-9.07,9.77-9.07c3.51,0,6.79,2.43,8.49,4.84
			c1.37,1.93,1.85,3.92,1.34,5.46H75.4z"/>
		<path fill="#7CC066" d="M84.87,33.7c3.47,0,6.73,2.41,8.41,4.79c1.33,1.88,1.81,3.8,1.35,5.31H75.47
			c-0.13-0.39-0.22-0.74-0.27-1.12C75.2,38.53,79.42,33.7,84.87,33.7 M84.87,33.5c-5.47,0-9.87,4.83-9.87,9.18
			c0.07,0.5,0.18,0.91,0.33,1.32h19.44C96.21,39.93,90.6,33.5,84.87,33.5L84.87,33.5z"/>
	</g>
	<g>
		<path fill="#7CC066" d="M84.67,33.9c-2.7,0-4.9-2.19-4.9-4.88c0-2.71,2.2-4.92,4.9-4.92s4.9,2.21,4.9,4.92
			C89.57,31.71,87.37,33.9,84.67,33.9z"/>
		<path fill="#7CC066" d="M84.67,24.2c2.65,0,4.8,2.16,4.8,4.82c0,2.64-2.15,4.78-4.8,4.78c-2.65,0-4.8-2.15-4.8-4.78
			C79.87,26.36,82.02,24.2,84.67,24.2 M84.67,24c-2.76,0-5,2.24-5,5.02c0,2.74,2.24,4.98,5,4.98c2.76,0,5-2.25,5-4.98
			C89.67,26.25,87.43,24,84.67,24L84.67,24z"/>
	</g>
</g>
<g>
	<path fill="#33CC66" d="M6.96,67.55c-0.41-1.41-1.65-3.05-2.97-4.8c-1.81-2.39-3.86-5.11-3.86-7.55c0-3.34,2.95-7.08,6.91-7.08
		c3.92,0,6.84,3.74,6.84,7.08c0,2.65-1.5,4.6-3.24,6.85c-1.18,1.53-2.52,3.27-3.59,5.49L7,67.66L6.96,67.55z M7,50.49
		c-1.17,0-2.28,0.43-3.12,1.21c-0.84,0.78-1.3,1.81-1.3,2.91c0,2.28,1.98,4.14,4.42,4.14c2.45,0,4.45-1.86,4.45-4.14
		C11.45,52.33,9.45,50.49,7,50.49z"/>
	<path fill="#DCDCDD" d="M7.03,48.25c3.85,0,6.72,3.67,6.72,6.96c0,2.61-1.49,4.54-3.21,6.77c-1.15,1.49-2.46,3.18-3.52,5.34
		c-0.47-1.39-1.67-2.97-2.93-4.64c-1.8-2.38-3.84-5.07-3.84-7.47C0.25,51.23,3.83,48.25,7.03,48.25 M7,58.86
		c2.52,0,4.57-1.91,4.57-4.26c0-2.34-2.05-4.24-4.57-4.24c-1.21,0-2.34,0.44-3.2,1.24c-0.87,0.8-1.34,1.87-1.34,3
		C2.46,56.95,4.5,58.86,7,58.86 M7.03,48C3.17,48,0,51.68,0,55.21c0,4.23,5.86,9,6.84,12.39L7,68l0.16-0.4
		C9.79,62.12,14,59.72,14,55.21C14,51.68,10.9,48,7.03,48L7.03,48z M7,58.61c-2.36,0-4.29-1.8-4.29-4.01c0-2.19,1.93-3.99,4.29-3.99
		c2.39,0,4.32,1.8,4.32,3.99C11.32,56.82,9.39,58.61,7,58.61L7,58.61z"/>
</g>
<g>
	<g>
		<path fill="#33CC66" d="M20.93,67.88c-0.35,0-0.65-0.06-0.99-0.15l3.42-4.95c0.05,0.03,0.1,0.05,0.15,0.08
			c0.15,0.08,0.3,0.16,0.48,0.16c0.21,0,0.45-0.11,0.77-0.35c0.13-0.1,0.24-0.18,0.33-0.25c0.38-0.28,0.56-0.41,1.06-1.11l3.15-4.52
			c0.1-0.13,0.15-0.26,0.21-0.39c0.03-0.06,0.06-0.13,0.09-0.2c0.51-1.18,0.33-1.47-0.05-1.91l-0.07-0.09
			c0.2-0.35,1.23-1.82,1.87-2.72c0.34-0.48,0.62-0.88,0.73-1.04c0.08-0.13,0.13-0.2,0.22-0.29l0.19-0.26
			c0.12-0.17,0.31-0.41,0.43-0.56c0.03,0.05,0.06,0.09,0.09,0.13c0.02,0.02,0.05,0.05,0.08,0.1c0.26,0.39,0.47,0.89,0.54,1.28
			c0.25,1.36,0.32,2.16,0.11,3.6c-0.22,1.63-1.28,3.89-2.17,5.2c-0.08,0.1-0.13,0.19-0.18,0.28c-0.04,0.08-0.09,0.16-0.16,0.26
			c-0.27,0.37-0.49,0.68-0.73,1.08c-0.97,1.34-2.04,2.53-3.37,3.74c-1.75,1.63-2.66,2.29-5.31,2.78
			C21.48,67.84,21.19,67.88,20.93,67.88z M19.22,67.26c-0.42-0.19-1.03-0.62-1.1-1c0.04-0.21,1.23-1.87,1.68-2.49
			c0.17-0.24,0.3-0.41,0.33-0.46l0.14-0.2c0.27-0.41,0.68-1.02,0.98-1.25c0.16-0.11,0.27-0.16,0.36-0.16c0.09,0,0.18,0.04,0.34,0.16
			l0.21,0.13c0.19,0.11,0.35,0.21,0.51,0.34c-0.36,0.58-2.56,3.69-3.04,4.35l-0.08,0.15C19.46,67,19.38,67.17,19.22,67.26z
			 M28.63,53.64c-0.38-0.2-0.86-0.53-0.89-0.73c-0.04-0.26,0.01-0.41,0.17-0.67c0.13-0.22,0.25-0.4,0.41-0.58
			c0.26-0.27,0.65-0.85,1.06-1.47c0.57-0.85,1.35-2.01,1.64-2.05c0.07-0.02,0.12-0.02,0.16-0.02c0.09,0,0.14,0.03,0.27,0.13
			c0.06,0.04,0.12,0.1,0.21,0.15c0.1,0.07,0.2,0.12,0.29,0.17c0.08,0.04,0.15,0.08,0.21,0.12c-0.16,0.31-0.63,0.95-0.82,1.15
			c-0.23,0.26-0.69,0.94-1.18,1.66C29.6,52.35,28.96,53.29,28.63,53.64z"/>
		<path fill="#DCDCDD" d="M31.18,48.25c0.05,0,0.07,0.01,0.19,0.11c0.06,0.05,0.13,0.1,0.21,0.15c0.11,0.08,0.21,0.13,0.31,0.19
			c0.04,0.02,0.07,0.04,0.1,0.06c-0.18,0.31-0.56,0.83-0.75,1.03c-0.23,0.26-0.68,0.91-1.19,1.67c-0.53,0.78-1.12,1.65-1.46,2.04
			c-0.37-0.21-0.72-0.47-0.74-0.59c-0.04-0.22,0.01-0.34,0.16-0.59c0.12-0.21,0.24-0.38,0.39-0.55c0.27-0.28,0.66-0.87,1.08-1.49
			c0.48-0.72,1.29-1.92,1.57-2C31.11,48.26,31.15,48.25,31.18,48.25 M32.92,49.53C32.92,49.54,32.93,49.54,32.92,49.53
			c0.03,0.03,0.05,0.05,0.07,0.09c0.25,0.38,0.46,0.86,0.52,1.23c0.25,1.35,0.32,2.14,0.1,3.56c-0.22,1.61-1.27,3.85-2.14,5.14
			c-0.09,0.12-0.14,0.21-0.19,0.31c-0.04,0.07-0.08,0.15-0.16,0.25c-0.29,0.4-0.51,0.71-0.72,1.07c-0.97,1.34-2.04,2.53-3.36,3.73
			c-1.73,1.61-2.63,2.26-5.25,2.75c-0.34,0.07-0.62,0.1-0.87,0.1c-0.28,0-0.52-0.04-0.78-0.1l3.26-4.71
			c0.02,0.01,0.03,0.02,0.05,0.03c0.16,0.09,0.32,0.18,0.54,0.18c0.24,0,0.5-0.12,0.84-0.38c0.13-0.1,0.23-0.18,0.33-0.24
			c0.38-0.28,0.57-0.42,1.09-1.14l2.8-4.03c0.07-0.09,0.12-0.18,0.18-0.26c0.05-0.08,0.1-0.15,0.17-0.24
			c0.1-0.14,0.17-0.28,0.22-0.41c0.03-0.06,0.06-0.13,0.1-0.21c0.54-1.24,0.33-1.57-0.07-2.04c-0.01-0.01-0.01-0.01-0.02-0.02
			c0.28-0.45,1.26-1.85,1.82-2.64c0.34-0.48,0.62-0.88,0.74-1.05c0.08-0.13,0.12-0.18,0.23-0.29c0.06-0.07,0.12-0.16,0.18-0.25
			C32.68,49.85,32.81,49.67,32.92,49.53 M21.62,61.82c0.06,0,0.14,0.04,0.29,0.15l0.2,0.12c0.15,0.09,0.29,0.17,0.41,0.26
			c-0.47,0.73-2.46,3.54-2.99,4.27c-0.03,0.05-0.05,0.09-0.08,0.14c-0.07,0.14-0.14,0.27-0.24,0.35c-0.42-0.2-0.86-0.55-0.95-0.84
			c0.14-0.34,1.23-1.86,1.65-2.44c0.18-0.24,0.3-0.42,0.33-0.46l0.14-0.21c0.27-0.4,0.67-1,0.95-1.21
			C21.46,61.87,21.55,61.82,21.62,61.82 M31.18,48c-0.05,0-0.1,0.01-0.17,0.02c-0.56,0.08-2.11,2.86-2.78,3.56
			c-0.16,0.18-0.29,0.36-0.43,0.6c-0.16,0.26-0.24,0.44-0.19,0.76c0.05,0.31,0.78,0.73,1.04,0.86c0.56-0.55,2.27-3.28,2.78-3.85
			c0.21-0.23,0.78-0.99,0.88-1.27c-0.16-0.16-0.38-0.21-0.59-0.36C31.45,48.12,31.38,48,31.18,48L31.18,48z M32.99,49.12
			c-0.16,0.08-0.53,0.62-0.77,0.94c-0.11,0.1-0.16,0.18-0.24,0.31c-0.35,0.52-2.54,3.56-2.64,3.85c0.4,0.49,0.72,0.62,0.16,1.92
			c-0.11,0.21-0.16,0.39-0.29,0.57c-0.13,0.18-0.21,0.31-0.35,0.49l-2.8,4.03c-0.61,0.86-0.72,0.83-1.36,1.33
			c-0.32,0.24-0.52,0.33-0.69,0.33c-0.23,0-0.39-0.15-0.67-0.27l-3.58,5.18c0.43,0.13,0.77,0.21,1.19,0.21
			c0.26,0,0.56-0.03,0.92-0.1c2.67-0.49,3.6-1.17,5.37-2.81c1.28-1.17,2.38-2.37,3.39-3.77c0.24-0.39,0.45-0.7,0.72-1.07
			c0.16-0.21,0.19-0.34,0.35-0.55c0.94-1.38,1.98-3.67,2.19-5.25c0.21-1.4,0.16-2.21-0.11-3.64c-0.08-0.44-0.32-0.96-0.56-1.33
			C33.09,49.33,33.04,49.35,32.99,49.12L32.99,49.12z M21.62,61.57c-0.12,0-0.26,0.06-0.44,0.19c-0.37,0.29-0.88,1.09-1.15,1.48
			c-0.13,0.21-2.08,2.84-2.03,3.04c0.08,0.47,0.8,0.94,1.23,1.12c0.27-0.13,0.37-0.42,0.51-0.65c0.45-0.62,2.97-4.16,3.1-4.45
			c-0.24-0.23-0.51-0.36-0.8-0.55C21.87,61.64,21.75,61.57,21.62,61.57L21.62,61.57z"/>
	</g>
</g>
<g>
	<g>
		<path fill="#33CC66" d="M43.97,63.62c-0.09-0.26-0.38-0.63-0.63-0.95c-0.09-0.12-0.18-0.23-0.25-0.33
			c-0.36-0.53-0.78-1.09-1.2-1.67c-1.78-2.41-3.79-5.14-3.79-7.77c0-2.83,2.43-4.81,5.9-4.81s5.9,1.98,5.9,4.81
			c0,2.82-2.25,5.8-4.06,8.19c-0.35,0.46-0.69,0.91-0.99,1.33l-0.28,0.4c-0.22,0.3-0.39,0.54-0.5,0.79l-0.05,0.11L43.97,63.62z"/>
		<path fill="#DCDCDD" d="M44,48.2c3.41,0,5.8,1.94,5.8,4.71c0,2.79-2.24,5.75-4.04,8.13c-0.35,0.46-0.69,0.91-1,1.33
			c-0.1,0.14-0.19,0.27-0.28,0.39c-0.19,0.26-0.35,0.48-0.46,0.7c-0.12-0.26-0.36-0.56-0.59-0.86c-0.09-0.12-0.18-0.23-0.25-0.33
			c-0.37-0.53-0.77-1.09-1.21-1.67c-1.77-2.39-3.77-5.11-3.77-7.71C38.2,50.14,40.59,48.2,44,48.2 M44,48c-3.31,0-6,1.85-6,4.91
			c0,3.31,3.13,6.76,5.01,9.5c0.27,0.37,0.75,0.91,0.87,1.26L44,64l0.15-0.34c0.15-0.34,0.42-0.66,0.78-1.17
			C46.86,59.81,50,56.3,50,52.91C50,49.85,47.31,48,44,48L44,48z"/>
	</g>
</g>
<g>
	<g>
		<path fill="#33CC66" d="M54.42,63.89c-0.15,0-0.3-0.16-0.3-0.44v-0.87c0-0.25,0.13-0.44,0.3-0.44h15.16c0.15,0,0.3,0.16,0.3,0.44
			v0.87c0,0.24-0.14,0.44-0.3,0.44H54.42z"/>
		<path fill="#DCDCDD" d="M69.58,62.25c0.09,0,0.19,0.13,0.19,0.32v0.87c0,0.19-0.1,0.32-0.19,0.32H54.42
			c-0.09,0-0.19-0.13-0.19-0.32v-0.87c0-0.19,0.1-0.32,0.19-0.32H69.58 M69.58,62.02H54.42c-0.23,0-0.42,0.23-0.42,0.55v0.87
			c0,0.32,0.19,0.55,0.42,0.55h15.16c0.22,0,0.42-0.23,0.42-0.55v-0.87C70,62.25,69.81,62.02,69.58,62.02L69.58,62.02z"/>
	</g>
	<g>
		<polygon fill="#33CC66" stroke="#DCDCDD" stroke-width="0.2286" stroke-miterlimit="10" points="57.02,57.39 64.29,50.21 
			66.62,52.69 59.34,59.83 		"/>
		<path fill="#33CC66" stroke="#DCDCDD" stroke-width="0.2286" stroke-miterlimit="10" d="M64.85,49.7l0.59-0.58l0.48-0.47
			l0.41-0.43c0.33-0.31,0.89-0.31,1.18,0.04l1.18,1.2c0.3,0.35,0.3,0.89-0.04,1.2l-0.4,0.43l-0.48,0.47l-0.63,0.58L64.85,49.7z"/>
		<polygon fill="#33CC66" stroke="#DCDCDD" stroke-width="0.2286" stroke-miterlimit="10" points="56.46,57.97 58.79,60.41 
			55.57,61.19 		"/>
	</g>
</g>
<g>
	<path fill="#FEFEFE" d="M77.11,50.12c0.62,0,1.11-0.47,1.11-1.06S77.73,48,77.11,48S76,48.47,76,49.06
		C76,49.66,76.49,50.12,77.11,50.12L77.11,50.12z"/>
	<path fill="#FEFEFE" d="M80.39,48H91.4c0.35,0,0.6,0.32,0.6,0.67v0.78c0,0.35-0.25,0.67-0.6,0.67H80.39c-0.32,0-0.6-0.32-0.6-0.67
		v-0.78C79.78,48.32,80.07,48,80.39,48L80.39,48z"/>
	<path fill="#FEFEFE" d="M77.11,55.14c0.62,0,1.11-0.47,1.11-1.06s-0.49-1.06-1.11-1.06c-0.62,0-1.11,0.47-1.11,1.06
		S76.49,55.14,77.11,55.14L77.11,55.14z"/>
	<path fill="#FEFEFE" d="M80.39,53.02H91.4c0.35,0,0.6,0.32,0.6,0.67v0.78c0,0.35-0.25,0.67-0.6,0.67H80.39
		c-0.32,0-0.6-0.32-0.6-0.67v-0.78C79.78,53.34,80.07,53.02,80.39,53.02L80.39,53.02z"/>
	<path fill="#FEFEFE" d="M77.11,60c0.62,0,1.11-0.48,1.11-1.08c0-0.56-0.49-1.04-1.11-1.04S76,58.35,76,58.92
		C76,59.52,76.49,60,77.11,60L77.11,60z"/>
	<path fill="#FEFEFE" d="M80.39,57.88H91.4c0.35,0,0.6,0.29,0.6,0.68v0.75c0,0.4-0.25,0.68-0.6,0.68H80.39
		c-0.32,0-0.6-0.29-0.6-0.68v-0.75C79.78,58.16,80.07,57.88,80.39,57.88L80.39,57.88z"/>
</g>
<g>
	<g>
		<path fill="#FEFEFE" d="M15,101.75c-8.13,0-14.75-6.62-14.75-14.75c0-8.13,6.62-14.75,14.75-14.75c8.13,0,14.75,6.62,14.75,14.75
			C29.75,95.13,23.13,101.75,15,101.75z"/>
		<path fill="#CCCCCC" d="M15,72.5c8,0,14.5,6.5,14.5,14.5s-6.51,14.5-14.5,14.5C7,101.5,0.5,95,0.5,87S7,72.5,15,72.5 M15,72
			C6.75,72,0,78.75,0,87c0,8.28,6.75,15,15,15c8.28,0,15-6.72,15-15C30,78.75,23.28,72,15,72L15,72z"/>
	</g>
	<rect x="8.36" y="86.57" fill="#33CC66" width="13.27" height="1.08"/>
</g>
<g>
	<g>
		<path fill="#FEFEFE" d="M49,101.75c-8.13,0-14.75-6.61-14.75-14.73c0-8.14,6.62-14.77,14.75-14.77s14.75,6.62,14.75,14.77
			C63.75,95.14,57.13,101.75,49,101.75z"/>
		<path fill="#CCCCCC" d="M49,72.5c8,0,14.5,6.51,14.5,14.52C63.5,95,57,101.5,49,101.5S34.5,95,34.5,87.02
			C34.5,79.01,41,72.5,49,72.5 M49,72c-8.28,0-15,6.73-15,15.02C34,95.27,40.72,102,49,102c8.25,0,15-6.73,15-14.98
			C64,78.73,57.25,72,49,72L49,72z"/>
	</g>
	<rect x="42.37" y="86.47" fill="#33CC66" width="13.27" height="1.1"/>
	<rect x="48.45" y="80.38" fill="#33CC66" width="1.09" height="13.28"/>
</g>
<path fill="#FD5757" d="M78,74.63c0,0.77-0.29,1.46-0.75,1.95h0l-2.5,2.86C74.5,79.71,74.25,80,74,80s-0.5-0.29-0.75-0.57l-2.5-2.86
	h0C70.29,76.09,70,75.4,70,74.63c0-1.45,1.03-2.63,2.3-2.63c0.67,0,1.28,0.33,1.7,0.86c0.42-0.53,1.03-0.86,1.7-0.86
	C76.97,72,78,73.18,78,74.63z"/>
<g>
	<path fill="#999999" d="M75.7,82.5c0.99,0,1.8,0.95,1.8,2.13c0,0.61-0.22,1.19-0.61,1.6l-0.81,0.85h0.07l-1.77,2.03
		c-0.11,0.12-0.27,0.31-0.37,0.38c-0.1-0.07-0.27-0.26-0.37-0.38l-1.77-2.03h0.08l-0.82-0.85c-0.39-0.4-0.61-0.99-0.61-1.6
		c0-1.17,0.81-2.13,1.8-2.13c0.5,0,0.97,0.24,1.31,0.67L74,83.67l0.39-0.49C74.74,82.74,75.2,82.5,75.7,82.5 M75.7,82
		c-0.67,0-1.28,0.33-1.7,0.86C73.58,82.33,72.97,82,72.3,82c-1.27,0-2.3,1.18-2.3,2.63c0,0.77,0.29,1.46,0.75,1.95h0l2.5,2.86
		C73.5,89.71,73.75,90,74,90s0.5-0.29,0.75-0.57l2.5-2.86h0C77.71,86.09,78,85.4,78,84.63C78,83.18,76.97,82,75.7,82L75.7,82z"/>
</g>
<g>
	<path fill="none" stroke="#999999" stroke-width="0.5" stroke-miterlimit="10" d="M113.04,11.08c-0.79-0.4-1.54-0.8-2.33-1.19
		c3.25-2.17,1.78-7.62-2.09-7.8c-4.55,0.4-5.17,5.35-2.22,7.77c-1.95,0.98-3.87,2.06-4.28,4.91v3l8.11,0.18"/>
	<g>
		<path fill="#999999" d="M113.18,13.2l0.39,1.04l0.12,0.33h0.35h0.93l-0.78,0.82l-0.19,0.2l0.07,0.27l0.32,1.22l-1.07-0.59
			l-0.25-0.14l-0.25,0.15l-0.87,0.52l0.25-1.19l0.06-0.27l-0.2-0.19l-0.74-0.72l1.06-0.09l0.32-0.03l0.11-0.3L113.18,13.2
			 M113.18,11.76l-0.85,2.31l-2.16,0.18l1.54,1.48l-0.48,2.31l1.85-1.12l2.09,1.16l-0.62-2.35l1.57-1.66h-2.09L113.18,11.76
			L113.18,11.76z"/>
	</g>
</g>
<g>
	<path fill="none" stroke="#999999" stroke-width="0.5" stroke-miterlimit="10" d="M108.95,28.97c0.77,0,6.15,1.13,6.89,1.33
		c-0.2,0.85-0.6,1.9-0.91,2.78l-2.04,5.53c-0.48,1.08-0.88,1.84-2.18,1.84c-0.99,0-1.22-1.13-1.22-2.18
		c-0.42-0.08-1.05-0.4-1.5-0.57c-0.57-0.23-0.99-0.42-1.56-0.65c-0.62-0.23-2.66-1.13-3.17-1.19c0,0.76-0.17,0.71-0.03,1.44
		c0.37,2.07,2.38,2.24,4.76,3.46c0.94,0.45,1.81,0.91,2.81,0.91c2.61,0,3.31-3.06,4.11-5.02c0.34-0.85,2.27-6.26,2.27-6.92
		c0-0.57-1.33-0.65-1.87-0.74c-1.05-0.23-6.26-1.33-6.91-1.33c-0.71,1.08-1.08,2.58-1.53,3.8c-0.2,0.51-1.44,3.71-1.39,4.02
		c0.11,0.4,0.51,0.48,0.76,0.4c0.46-0.14,1.11-2.38,1.28-2.86C107.84,31.98,108.72,29.88,108.95,28.97L108.95,28.97z"/>
	<path fill="none" stroke="#999999" stroke-width="0.5" stroke-miterlimit="10" d="M108.84,35.97c0,0.76,0.68,0.82,1.22,0.96
		c0.79,0.26,2.29,0.94,2.29-0.08c0-0.51-0.82-0.65-1.28-0.79c-0.4-0.14-1.36-0.51-1.7-0.51C109.15,35.55,108.84,35.86,108.84,35.97
		L108.84,35.97z"/>
	<path fill="none" stroke="#999999" stroke-width="0.5" stroke-miterlimit="10" d="M109.71,33.79c0,0.51,0.23,0.65,0.62,0.79
		c0.34,0.11,0.68,0.2,1.08,0.34c0.31,0.11,0.77,0.28,1.11,0.34c0.45,0.06,1.7-0.76-0.68-1.42c-0.4-0.14-1.39-0.48-1.7-0.48
		C110.05,33.37,109.71,33.71,109.71,33.79L109.71,33.79z"/>
	<path fill="none" stroke="#999999" stroke-width="0.5" stroke-miterlimit="10" d="M110.71,31.61c0,0.77,0.34,0.65,1.25,0.91
		c1.81,0.51,1.84,0.65,2.24-0.14c-0.31-0.62-0.51-0.59-1.28-0.79C112.41,31.44,110.71,30.73,110.71,31.61L110.71,31.61z"/>
	<path fill="none" stroke="#999999" stroke-width="0.5" stroke-miterlimit="10" d="M109.15,31.72c0.51,0.11,1.11,0.06,1.11-0.45
		C110.25,30.39,108.49,30.33,109.15,31.72L109.15,31.72z"/>
	<path fill="none" stroke="#999999" stroke-width="0.5" stroke-miterlimit="10" d="M108.18,33.37c0,0.28,0.03,0.28,0.08,0.54
		c0.65,0.14,0.23,0.17,0.99,0c0.17-0.71,0.17-0.23,0-0.88C109.06,32.97,108.18,32.69,108.18,33.37L108.18,33.37z"/>
	<path fill="none" stroke="#999999" stroke-width="0.5" stroke-miterlimit="10" d="M107.3,35.55c0,0.26,0.03,0.11,0.11,0.42
		c0.62,0.14,0.23,0.17,0.96,0C108.75,34.5,107.3,34.87,107.3,35.55L107.3,35.55z"/>
</g>
<g>
	<path fill="none" stroke="#999999" stroke-width="0.5" stroke-miterlimit="10" d="M113.55,53.64l0.94,7.42 M105.16,52.04
		l-2.36-1.41l-2.21,7.93l4,2.53l4.95-1.34l4.95,1.31c0,0,3.91-2.43,4.1-2.43c0.16,0-2.24-7.96-2.24-7.96l-2.33,1.34 M105.54,53.7
		l-0.94,7.38 M109.54,58.24v1.5"/>
	<path fill="none" stroke="#999999" stroke-width="0.5" stroke-miterlimit="10" d="M109.54,57.25c3.72-3.29,5.58-9.85,0-10.17
		C104.25,47.4,105.6,54.15,109.54,57.25L109.54,57.25z"/>
	<path fill="none" stroke="#999999" stroke-width="0.5" stroke-miterlimit="10" d="M109.57,52.42c0.94,0,1.76-0.8,1.76-1.79
		c0-0.99-0.82-1.79-1.76-1.79c-0.98,0-1.76,0.8-1.76,1.79C107.81,51.62,108.6,52.42,109.57,52.42L109.57,52.42z"/>
</g>
<g>
	<path fill="#FFFFFF" d="M108.87,99.98c0.91,1.5,0.79,3.49-0.42,4.88c-1.53,1.73-4.17,1.9-5.9,0.37c-0.68-0.57-1.1-1.3-1.3-2.12
		C104.17,102.84,106.77,101.7,108.87,99.98L108.87,99.98z"/>
	<path fill="#6DC9F2" d="M99.01,75.66c7.65-0.51,14.29,5.21,14.83,12.81c0.54,7.59-5.24,14.2-12.9,14.71
		c-7.65,0.54-14.32-5.19-14.85-12.78C85.54,82.8,91.32,76.2,99.01,75.66L99.01,75.66z"/>
	<path fill="#FFFFFF" d="M113.35,93.15c1.59,0.71,2.64,2.41,2.41,4.25c-0.28,2.27-2.35,3.89-4.65,3.6
		c-0.88-0.08-1.67-0.45-2.27-1.02C111.08,98.13,112.59,95.72,113.35,93.15L113.35,93.15z"/>
	<path fill="#FFFFFF" d="M113.1,84.98c1.76-0.31,3.57,0.51,4.42,2.15c1.08,2.01,0.28,4.53-1.76,5.58c-0.79,0.4-1.64,0.54-2.47,0.43
		C114.09,90.37,113.98,87.53,113.1,84.98L113.1,84.98z"/>
	<path fill="#FFFFFF" d="M108.25,78.38c1.28-1.22,3.23-1.56,4.88-0.71c2.04,1.08,2.83,3.6,1.76,5.61c-0.43,0.77-1.05,1.36-1.79,1.73
		C112.16,82.29,110.43,79.99,108.25,78.38L108.25,78.38z"/>
	<path fill="#FFFFFF" d="M100.51,75.66c0.34-1.7,1.76-3.09,3.6-3.32c2.3-0.25,4.37,1.39,4.62,3.66c0.11,0.88-0.06,1.7-0.45,2.44
		C105.92,76.68,103.23,75.77,100.51,75.66L100.51,75.66z"/>
	<path fill="#FFFFFF" d="M92.54,77.78c-0.68-1.61-0.31-3.54,1.11-4.76c1.73-1.5,4.36-1.33,5.9,0.4c0.57,0.68,0.91,1.47,0.99,2.3
		C97.62,75.57,94.87,76.34,92.54,77.78L92.54,77.78z"/>
	<path fill="#FFFFFF" d="M87.21,83.99c-1.5-0.94-2.3-2.75-1.81-4.54c0.57-2.21,2.83-3.54,5.07-2.98c0.85,0.23,1.59,0.68,2.13,1.3
		C90.13,79.32,88.29,81.5,87.21,83.99L87.21,83.99z"/>
	<path fill="#FFFFFF" d="M86.34,92.1c-1.76,0.08-3.46-0.99-4.08-2.72c-0.79-2.15,0.34-4.51,2.49-5.3c0.85-0.31,1.7-0.31,2.5-0.11
		C86.08,86.63,85.83,89.43,86.34,92.1L86.34,92.1z"/>
	<path fill="#FFFFFF" d="M90.25,99.27c-1.42,1.05-3.4,1.14-4.9,0.06c-1.87-1.33-2.32-3.91-0.96-5.78c0.51-0.71,1.22-1.22,1.98-1.47
		C86.93,94.9,88.32,97.37,90.25,99.27L90.25,99.27z"/>
	<path fill="#FFFFFF" d="M97.59,102.98c-0.57,1.67-2.18,2.86-4.05,2.81c-2.3-0.03-4.11-1.93-4.08-4.19c0.03-0.88,0.31-1.7,0.79-2.35
		C92.34,101.25,94.9,102.53,97.59,102.98L97.59,102.98z"/>
	<path fill="#4DC0F0" d="M87.64,97.93c0,9.38,2.95,4.99,8.59,4.54c-1.19,1.76-1.99,2.12-3.63,3.43c-1.05,0.82-2.69,2.44-3.54,3.49
		c-0.6,0.74-2.52,3.57-2.58,5.16c0.54-0.17,2.21-0.45,4.19-1.56c0.62,2.35,0.82,3.85,2.52,5.02c0.26-3.06,5.22-11.31,7.06-12.53
		c1.08,3.91,5.95,7.17,6.07,12.53c2.01-0.54,2.47-2.21,2.52-5.02c1.87,0,2.44,0.2,3.83,1.27c0.51-1.08-1.3-3.82-1.87-4.7
		c-2.81-4.25-6.18-4.03-7-7.09c7.6,1.73,8.08,3.09,8.08-5.53c0-6.69-5.67-2.35-10.06-0.62c-1.08,0.43-2.24,0.34-3.06,0.11
		C97.79,96.43,87.64,87.79,87.64,97.93L87.64,97.93z"/>
	<g enable-background="new    ">
		<path fill="#FEFEFE" d="M89.03,85.87h1.87c-0.33-0.52-0.64-0.97-0.93-1.35l0.63-0.44c0.26,0.31,0.58,0.75,0.99,1.31l-0.66,0.48
			h1.53c0.42-0.61,0.81-1.21,1.17-1.8l0.83,0.46c-0.38,0.48-0.73,0.93-1.08,1.34h1.76v0.74h-6.12V85.87z M90.25,89.31l0.79,0.37
			c-0.42,0.88-0.83,1.67-1.24,2.37c-0.22-0.14-0.48-0.28-0.77-0.42C89.41,91.05,89.81,90.28,90.25,89.31z M89.35,88.05h2.37v-1.1
			h0.84v1.1h2.28v0.74h-2.28v3.03c0,0.82-0.4,1.23-1.19,1.23c-0.33,0-0.71,0-1.13-0.01c-0.03-0.26-0.07-0.55-0.13-0.88
			c0.45,0.05,0.8,0.07,1.06,0.07c0.36,0,0.55-0.2,0.55-0.59v-2.85h-2.37V88.05z M89.4,83.18h2.51c-0.17-0.32-0.36-0.66-0.57-1.03
			l0.74-0.35c0.24,0.39,0.46,0.79,0.67,1.2l-0.39,0.19h2.47v0.74H89.4V83.18z M93.6,89.37c0.43,0.59,0.81,1.13,1.14,1.63l-0.74,0.51
			c-0.34-0.6-0.7-1.16-1.08-1.69L93.6,89.37z M95.55,82.83c1.6-0.02,3.08-0.17,4.44-0.48l0.3,0.9c-1.53,0.2-2.84,0.33-3.92,0.39
			v2.71h4.24v0.79h-1.66v6.09H98.1v-6.09h-1.72v0.57c0,2.38-0.57,4.23-1.71,5.56c-0.19-0.24-0.39-0.49-0.62-0.74
			c1-1.09,1.5-2.71,1.5-4.85V82.83z"/>
	</g>
	<g enable-background="new    ">
		<path fill="#FEFEFE" d="M101.57,87.92H106v5.37h-0.88v-0.78h-2.66v0.78h-0.88V87.92z M105.12,88.73h-2.66v2.99h2.66V88.73z
			 M102.71,82.36h8.02v4.6h-0.93V86.6h-6.16v0.37h-0.93V82.36z M109.81,83.18h-6.16v2.6h6.16V83.18z M107.45,87.92h4.44v5.37H111
			V92.5h-2.67v0.79h-0.88V87.92z M111,88.73h-2.67v3.01H111V88.73z"/>
	</g>
</g>
<g>
	<polygon fill="#6DC9F2" points="120,180 120,128 68,179.89 	"/>
	<g>
		<path fill="#FEFEFE" d="M85.48,172.99c1.22,0.89,1.56,1.74,1,2.55c-0.2,0.3-0.47,0.58-0.81,0.86c-0.27-0.18-0.57-0.35-0.88-0.51
			c0.36-0.22,0.64-0.46,0.82-0.7c0.3-0.45,0.03-0.97-0.81-1.56c-0.52-0.36-1.27-0.6-2.25-0.72c-0.41-0.8-0.96-1.85-1.65-3.17
			l-1.22,1.23l7.28,7.18l-0.62,0.62l-7.86-7.75l2.49-2.52l0.58,0.57c0.52,1.04,1.03,2.07,1.54,3.07
			C84.14,172.29,84.94,172.58,85.48,172.99z M81.5,168.01l3.9-3.95l4.15,4.09l-0.61,0.62l-0.22-0.22l-1.39,1.41
			c0.67,0.32,1.35,0.53,2.05,0.62c0.18-0.81,0.31-1.73,0.39-2.74l0.96,0.08c-0.17,1.03-0.35,1.94-0.51,2.72
			c0.97,0,1.96-0.22,2.97-0.67c0,0.4,0.03,0.78,0.08,1.13c-2.34,0.75-4.51,0.56-6.53-0.55l-0.71,0.72l2.83,2.8
			c0.2-0.54,0.44-1.26,0.71-2.18c0.26,0.24,0.49,0.45,0.7,0.61c-0.25,0.73-0.46,1.46-0.65,2.21c-0.05,0.17-0.08,0.44-0.09,0.8
			l-1.09-0.14c0.02-0.31-0.08-0.57-0.3-0.79L81.5,168.01z M85.35,165.24l-2.68,2.72l1.11,1.09l2.68-2.72L85.35,165.24z
			 M88.15,167.99l-1.12-1.11l-2.68,2.72l1.12,1.11L88.15,167.99z"/>
	</g>
	<g>
		<path fill="#FEFEFE" d="M87.03,163.19l2.84-2.88l6.79,6.7l-0.65,0.66l-0.69-0.68l-1.54,1.56l0.79,0.78l-0.65,0.66L87.03,163.19z
			 M89.84,161.58l-1.54,1.56l2.11,2.08l1.54-1.56L89.84,161.58z M93.17,167.94l1.54-1.56l-2.16-2.13l-1.54,1.56L93.17,167.94z
			 M91.19,161.07l2.92-2.96l-1.84-1.82l0.66-0.67l1.84,1.82l1.17-1.18l0.62,0.61l-1.17,1.18l4.48,4.42
			c0.75,0.73,0.77,1.46,0.07,2.17c-0.32,0.32-0.79,0.79-1.43,1.39c-0.23-0.17-0.5-0.35-0.83-0.56c0.62-0.54,1.09-0.97,1.42-1.3
			c0.38-0.39,0.38-0.78-0.02-1.17l-4.35-4.29l-2.92,2.96L91.19,161.07z M93.53,161.54c1.25,0.36,2.23,0.66,2.94,0.91
			c-0.08,0.21-0.19,0.54-0.33,1c-0.74-0.3-1.71-0.64-2.89-1.01L93.53,161.54z"/>
	</g>
	<g>
		<path fill="#FEFEFE" d="M99.36,158.21c0.28-0.49,0.57-1.02,0.88-1.59l-1.83-1.81l-1.1,1.11l-0.57-0.57l1.09-1.11l-1.65-1.63
			l0.64-0.65l1.65,1.63l1.02-1.03l0.57,0.57l-1.02,1.03l1.64,1.61c0.21-0.38,0.41-0.79,0.62-1.21c0.29,0.27,0.52,0.49,0.68,0.64
			c-0.18,0.32-0.39,0.73-0.64,1.22l2.52,2.48c0.61,0.6,0.67,1.15,0.19,1.67c-0.24,0.26-0.53,0.57-0.88,0.91
			c-0.27-0.2-0.53-0.39-0.81-0.58c0.36-0.3,0.63-0.54,0.81-0.72c0.23-0.23,0.2-0.48-0.07-0.75l-2.19-2.16
			c-0.23,0.46-0.49,0.97-0.77,1.53L99.36,158.21z M98.9,151.04c1.42-1.45,2.77-3.05,4.05-4.81l0.87,0.42
			c-1.46,1.82-2.69,3.27-3.69,4.32l1.94,1.92l4.18-4.24l0.62,0.61l-1.5,1.52l4.37,4.31l-0.66,0.67l-4.37-4.31l-2.03,2.06
			c1.99,1.99,3.08,3.83,3.27,5.52c-0.31-0.01-0.66-0.01-1.03,0.02c-0.13-1.49-1.09-3.11-2.87-4.87L98.9,151.04z"/>
	</g>
	<g>
		<path fill="#FEFEFE" d="M108.4,149.2c0.32-0.54,0.64-1.09,0.97-1.66l-1.87-1.85l-1.19,1.21l-0.61-0.6l1.19-1.21l-1.61-1.59
			l0.64-0.65l1.61,1.59l1.15-1.17l0.61,0.6l-1.15,1.17l1.7,1.68c0.26-0.47,0.53-0.95,0.81-1.44c0.28,0.27,0.51,0.48,0.68,0.63
			c-0.27,0.49-0.54,0.98-0.81,1.47l2.47,2.44c0.61,0.6,0.65,1.17,0.12,1.71c-0.24,0.26-0.55,0.57-0.92,0.93
			c-0.27-0.2-0.54-0.38-0.82-0.56c0.35-0.3,0.64-0.57,0.87-0.8c0.25-0.25,0.22-0.52-0.07-0.81l-2.11-2.08
			c-0.29,0.53-0.58,1.06-0.86,1.58L108.4,149.2z M108.25,142.06l4.16-4.22l7.22,7.12l-0.64,0.65l-0.7-0.69l-2.88,2.92l0.7,0.69
			l-0.64,0.65L108.25,142.06z M112.39,139.11l-2.88,2.92l5.28,5.21l2.88-2.92L112.39,139.11z"/>
	</g>
	<path fill="#FFFFFF" d="M99.97,167.73c1.06,0.23,8.79,2.6,9.13,3c0.37,0.71,0.14,4,0.14,5.05l4.36,2c1.34,0.54,1.11,0.77,1.29,0.4
		c-0.03-0.03-0.06-0.09-0.09-0.09l-2.74-3.54c-0.49-0.63-0.89-1.2-1.37-1.88c-0.49-0.63-1.06-1.26-1.4-1.94l4.91,1.43
		c0.57-0.46,0.6-0.69,1.06-1.14c0.77-0.8,2.57-2.46,3.17-3.37c-0.43-0.2-4.77-0.8-6.11-1.17l-0.26,0.23
		c-0.03,0.03-0.06,0.06-0.06,0.09l-2.74,3.71l-0.06-9.36c-0.17,0.2,0.03-0.06-0.2,0.23l-2.65,4.79c-0.31,0.49-0.66,0.46-1.31,0.57
		L99.97,167.73z"/>
	<path fill="#FFFFFF" d="M104.19,172.18c0,1.14-0.17,2.06-0.34,3.14c-0.09,0.51-0.11,1.2-0.17,1.6c-0.06,0.54-0.23,1.11-0.06,1.46
		c0.2-0.29,0.17-0.29,0.34-0.51c0.11-0.17,0.29-0.37,0.34-0.46c0.26-0.34,0.46-0.6,0.71-0.91c0.54-0.71,3.97-5.34,4.08-5.76
		C108.07,170.78,105.47,171.87,104.19,172.18L104.19,172.18z"/>
	<path fill="#EBEDF0" d="M104.19,172.18c1.28-0.31,3.88-1.4,4.91-1.46c-0.34-0.4-8.08-2.77-9.13-3c0.43,0.8,1.88,1.88,2.65,2.83
		L104.19,172.18z"/>
	<path fill="#EBEDF0" d="M114.89,178.17c0-1.03-0.17-1.97-0.31-3.03c-0.09-0.83-0.37-2.05-0.37-3l-4.91-1.43
		c0.34,0.68,0.91,1.31,1.4,1.94c0.48,0.68,0.88,1.26,1.37,1.88l2.74,3.54C114.83,178.09,114.86,178.14,114.89,178.17L114.89,178.17z
		"/>
	<path fill="#EBEDF0" d="M103.62,178.37c1.85-0.88,3.74-1.77,5.62-2.6c0-1.05,0.23-4.34-0.14-5.05c-0.11,0.43-3.54,5.05-4.08,5.76
		c-0.26,0.31-0.46,0.57-0.71,0.91c-0.06,0.09-0.23,0.29-0.34,0.46C103.79,178.09,103.82,178.09,103.62,178.37L103.62,178.37z"/>
	<path fill="#EBEDF0" d="M112.32,166.47c-0.29-0.23-1.26-2.08-1.54-2.57c-0.29-0.54-0.51-0.91-0.77-1.4
		c-0.17-0.34-0.57-1.08-0.8-1.37l0.06,9.36l2.74-3.71c0-0.03,0.03-0.06,0.06-0.09L112.32,166.47z"/>
</g>
<g>
	<polygon fill="#6DC9F2" points="30.83,106 52,106 0,158 0,136.83 	"/>
	<g>
		<path fill="#FEFEFE" d="M3.66,135.84l0.06,0.36c2.26,0.5,4.51,0.25,6.75-0.75c0.08,0.43,0.17,0.82,0.26,1.17
			c-2.48,0.84-4.77,1.02-6.85,0.51c0.4,2.01,0.24,4.36-0.5,7.06c-0.31-0.08-0.65-0.15-1.03-0.23c0.89-2.75,1.05-5.18,0.47-7.28
			L3.66,135.84z M5.13,144.73l-0.66-0.66l5.99-5.97l0.66,0.66c0.25,2.01,0.47,3.77,0.68,5.3l-1.05,0.13
			c-0.12-1.45-0.3-2.96-0.54-4.52L5.13,144.73z M5.03,139.95l0.21-0.9c0.81,0.11,1.56,0.23,2.25,0.37l-0.19,0.99
			C6.61,140.23,5.85,140.07,5.03,139.95z"/>
	</g>
	<g>
		<path fill="#FEFEFE" d="M9.64,130.9l5.87-5.85l7.45,7.48l-0.7,0.7l-0.58-0.59l-4.47,4.46l0.58,0.58l-0.7,0.7L9.64,130.9z
			 M10.95,130.82l2.45,2.46l4.47-4.45l-2.45-2.46L10.95,130.82z M14.02,133.9l2.58,2.59l4.47-4.46l-2.59-2.59L14.02,133.9z"/>
	</g>
	<g>
		<path fill="#FEFEFE" d="M21.72,127.51c0.34-0.68,0.68-1.36,1.01-2.04l-1.93-1.93l-0.65,0.65c0.41,0.64,0.75,1.25,1.02,1.84
			c-0.29,0.05-0.59,0.11-0.9,0.18c-0.41-1.03-1.11-2.13-2.1-3.31l0.69-0.49c0.31,0.38,0.59,0.75,0.85,1.12l0.55-0.55l-1.84-1.84
			l0.62-0.61l1.84,1.84l1.03-1.03l0.55,0.55l-1.03,1.03l1.71,1.72c0.2-0.42,0.4-0.84,0.59-1.25c0.27,0.21,0.51,0.39,0.71,0.54
			c-0.21,0.43-0.42,0.89-0.65,1.37l3.27,3.28l-0.62,0.62l-3.04-3.05c-0.28,0.61-0.56,1.25-0.86,1.93L21.72,127.51z M22.63,122.68
			l2.26-2.26l-1.21-1.22l-1.92,1.91l-0.56-0.56l1.92-1.91l-1.14-1.14l0.64-0.64l1.14,1.14l2-1.99l0.56,0.56l-2,1.99l1.21,1.22
			l2.38-2.37l0.56,0.56l-5.28,5.27L22.63,122.68z M24.47,124.18l3.31-3.3L26.91,120l0.64-0.64l0.87,0.87l1.2-1.2l0.56,0.56l-1.2,1.2
			l1.81,1.81c0.68,0.69,0.68,1.38,0,2.07c-0.24,0.25-0.62,0.62-1.13,1.11c-0.25-0.18-0.52-0.38-0.83-0.58
			c0.48-0.39,0.87-0.74,1.18-1.05c0.35-0.35,0.33-0.71-0.06-1.09l-1.62-1.62l-3.31,3.3L24.47,124.18z M26.05,124.84l0.1-0.85
			c0.83,0.04,1.56,0.1,2.2,0.17l-0.13,0.93C27.5,124.97,26.77,124.89,26.05,124.84z"/>
	</g>
	<g>
		<path fill="#FEFEFE" d="M29.89,117.86c-0.41-1.9-1.19-3.83-2.32-5.81l0.84-0.44c0.43,0.83,0.81,1.62,1.14,2.39l6.06,6.08
			l-0.62,0.61L30.3,116c0.26,0.81,0.46,1.58,0.59,2.3C30.48,118.1,30.15,117.96,29.89,117.86z M31.41,108.19l0.09,0.32
			c1.88,0.52,3.66,0.48,5.34-0.14c0.02,0.31,0.06,0.65,0.12,1.03c-1.75,0.47-3.51,0.46-5.26-0.01c0.44,1.67,0.49,3.46,0.15,5.36
			c-0.32-0.06-0.64-0.09-0.95-0.09c0.46-2.02,0.38-3.93-0.24-5.73L31.41,108.19z M33.29,112.73l1.17,1.17
			c1.58,1.59,2.36,3.28,2.35,5.09c-0.32,0-0.66,0.03-1.01,0.09c0.07-1.63-0.57-3.12-1.92-4.48l-1.22-1.23L33.29,112.73z M35.03,111
			l0.64-0.64l4.8,4.82l-0.64,0.64L35.03,111z"/>
	</g>
</g>
<g>
	<g>
		<path fill="#6DC9F2" d="M3.11,179.71c-1.56,0-2.83-1.17-2.83-2.6v-10.25c0-1.4,1.3-2.58,2.83-2.58h44.53c0.91,0,4.73,1.31,9,5.53
			c0.69,0.61,1.07,1.42,1.07,2.29c0,0.67-0.2,1.27-0.6,1.78c-0.28,0.36-0.6,0.65-0.96,0.86c-3.83,3.27-7.81,4.97-8.51,4.97H3.11z"/>
		<path fill="#FFFFFF" d="M47.65,164.57c0.84,0,4.65,1.34,8.82,5.47c0.62,0.55,0.96,1.28,0.96,2.06c0,0.61-0.18,1.15-0.54,1.61
			c-0.26,0.33-0.55,0.59-0.88,0.79l-0.04,0.03l-0.04,0.03c-3.83,3.27-7.76,4.86-8.28,4.87H3.11c-1.4,0-2.54-1.04-2.54-2.32v-10.25
			c0-1.24,1.16-2.29,2.54-2.29H47.65 M53.59,174.05c1.21,0,2.19-0.93,2.19-2.08c0-1.15-0.98-2.08-2.19-2.08
			c-1.22,0-2.22,0.93-2.22,2.08C51.37,173.12,52.37,174.05,53.59,174.05 M47.65,164H3.11c-1.7,0-3.11,1.3-3.11,2.86v10.25
			C0,178.7,1.41,180,3.11,180h44.53c0.78,0,4.85-1.75,8.65-5.01c0.4-0.24,0.75-0.56,1.04-0.93c0.43-0.56,0.66-1.22,0.66-1.96
			c0-0.98-0.43-1.85-1.15-2.49C52.78,165.59,48.83,164,47.65,164L47.65,164z M53.59,173.48c-0.92,0-1.64-0.69-1.64-1.51
			c0-0.82,0.72-1.51,1.64-1.51c0.89,0,1.61,0.69,1.61,1.51C55.2,172.79,54.48,173.48,53.59,173.48L53.59,173.48z"/>
	</g>
	<g enable-background="new    ">
		<path fill="#FEFEFE" d="M4.43,170.85c0.6-0.15,1.2-0.31,1.79-0.48v-1.76H4.57v-0.8h1.65v-1.71H7.1v1.71h1.37v0.8H7.1v1.51
			c0.43-0.13,0.85-0.26,1.27-0.4c0,0.35,0.01,0.65,0.02,0.88c-0.04,0.02-0.47,0.15-1.29,0.4v1.7c0,0.93-0.44,1.4-1.31,1.4
			c-0.33,0-0.69-0.01-1.08-0.02c-0.03-0.26-0.08-0.58-0.14-0.95c0.38,0.06,0.72,0.09,1.04,0.09c0.41,0,0.62-0.21,0.62-0.62v-1.32
			c-0.47,0.15-1,0.31-1.62,0.5L4.43,170.85z M5.78,174.59l0.81,0.35c-0.35,0.79-0.78,1.61-1.28,2.46c-0.23-0.13-0.5-0.27-0.8-0.4
			C5.04,176.17,5.47,175.36,5.78,174.59z M7.67,175.06l0.77-0.33c0.36,0.65,0.72,1.36,1.1,2.15l-0.86,0.37
			C8.35,176.45,8.01,175.72,7.67,175.06z M8.67,170.35l0.5-0.66c0.36,0.22,0.71,0.43,1.06,0.65c0.12-0.52,0.18-1.09,0.19-1.7H9
			v-0.83h1.45c0.02-0.64,0.02-1.22,0.02-1.74h0.89c0,0.5-0.01,1.08-0.02,1.74h2.7c-0.07,2.28-0.02,3.82,0.15,4.63
			c0.1,0.45,0.25,0.68,0.44,0.68c0.15,0,0.26-0.13,0.3-0.39c0.07-0.38,0.13-0.89,0.19-1.55c0.29,0.11,0.58,0.2,0.86,0.28
			c-0.08,0.68-0.16,1.23-0.24,1.63c-0.16,0.71-0.52,1.06-1.08,1.06c-0.67,0-1.12-0.54-1.35-1.6c-0.14-0.72-0.2-2.02-0.17-3.9h-1.81
			c-0.01,0.8-0.1,1.54-0.28,2.21c0.55,0.35,1.08,0.71,1.61,1.07l-0.58,0.82c-0.46-0.35-0.9-0.68-1.33-0.99
			c-0.49,1.15-1.26,2.04-2.34,2.68c-0.19-0.24-0.42-0.49-0.67-0.75c1.06-0.55,1.8-1.38,2.24-2.48
			C9.52,170.89,9.09,170.61,8.67,170.35z M10.62,175l0.77-0.33c0.4,0.68,0.77,1.39,1.12,2.11l-0.85,0.36
			C11.36,176.41,11.02,175.7,10.62,175z M13.48,174.77l0.74-0.44c0.5,0.74,1,1.52,1.5,2.34l-0.83,0.48
			C14.49,176.4,14.02,175.6,13.48,174.77z"/>
	</g>
	<g enable-background="new    ">
		<path fill="#FEFEFE" d="M17.42,173.71h5.59c0.31-0.75,0.48-1.76,0.51-3.05h0.91c-0.04,1.23-0.19,2.25-0.45,3.05h4.49v0.83h-4.83
			c-0.04,0.08-0.07,0.14-0.1,0.18c1.52,0.55,3.17,1.2,4.95,1.96l-0.5,0.84c-1.48-0.72-3.13-1.44-4.94-2.18
			c-1,0.96-2.79,1.69-5.37,2.17c-0.12-0.27-0.27-0.56-0.48-0.87c2.84-0.51,4.61-1.21,5.33-2.11h-5.1V173.71z M17.61,169.39h4.84
			v-1.22h-4.14v-0.83h4.14v-1.17h0.92v1.17h4.29v0.83h-4.29v1.22h4.78v0.89l-0.9,1.57c-0.26-0.12-0.54-0.24-0.83-0.33l0.74-1.29
			h-9.56V169.39z M18.71,171.84c1.05,0.31,2.07,0.63,3.05,0.98l-0.28,0.7c-1.09-0.38-2.11-0.7-3.05-0.97L18.71,171.84z M19.4,170.5
			c1.03,0.29,2.02,0.6,2.98,0.93l-0.28,0.74c-0.94-0.35-1.93-0.67-2.99-0.98L19.4,170.5z"/>
	</g>
	<g enable-background="new    ">
		<path fill="#FEFEFE" d="M29.88,168.6h4.48v-2.52h1v2.52h4.52v5.26h-0.95v-0.62h-3.57v4.29h-1v-4.29h-3.52v0.62h-0.95V168.6z
			 M30.84,172.39h3.52v-2.93h-3.52V172.39z M38.93,169.46h-3.57v2.93h3.57V169.46z"/>
		<path fill="#FEFEFE" d="M41.5,175.34c0-0.21,0.07-0.38,0.22-0.53c0.14-0.14,0.32-0.21,0.53-0.21c0.22,0,0.4,0.07,0.54,0.22
			c0.14,0.14,0.21,0.32,0.21,0.52c0,0.2-0.07,0.37-0.21,0.52s-0.33,0.22-0.55,0.22c-0.21,0-0.39-0.07-0.53-0.22
			C41.57,175.72,41.5,175.55,41.5,175.34z"/>
	</g>
	<g enable-background="new    ">
		<path fill="#FEFEFE" d="M45.46,175.34c0-0.21,0.07-0.38,0.22-0.53c0.14-0.14,0.32-0.21,0.53-0.21c0.22,0,0.4,0.07,0.54,0.22
			c0.14,0.14,0.21,0.32,0.21,0.52c0,0.2-0.07,0.37-0.21,0.52s-0.33,0.22-0.55,0.22c-0.21,0-0.39-0.07-0.53-0.22
			C45.54,175.72,45.46,175.55,45.46,175.34z"/>
	</g>
	<g enable-background="new    ">
		<path fill="#FEFEFE" d="M49.44,175.34c0-0.21,0.07-0.38,0.22-0.53c0.14-0.14,0.32-0.21,0.53-0.21c0.22,0,0.4,0.07,0.54,0.22
			c0.14,0.14,0.21,0.32,0.21,0.52c0,0.2-0.07,0.37-0.21,0.52s-0.33,0.22-0.55,0.22c-0.21,0-0.39-0.07-0.53-0.22
			C49.51,175.72,49.44,175.55,49.44,175.34z"/>
	</g>
</g>
</svg>