<?xml version="1.0" encoding="utf-8"?>
<!-- Generator: Adobe Illustrator 16.0.0, SVG Export Plug-In . SVG Version: 6.00 Build 0)  -->
<!DOCTYPE svg PUBLIC "-//W3C//DTD SVG 1.1//EN" "http://www.w3.org/Graphics/SVG/1.1/DTD/svg11.dtd">
<svg version="1.1" id="图层_1" xmlns="http://www.w3.org/2000/svg" xmlns:xlink="http://www.w3.org/1999/xlink" x="0px" y="0px"
	 width="17.199px" height="18.663px" viewBox="0 0 17.199 18.663" enable-background="new 0 0 17.199 18.663" xml:space="preserve">
<path fill="none" stroke="#898889" stroke-width="0.25" stroke-miterlimit="10" d="M0.164,18.663
	c1.247-12.608,15.874-11.578,16.872,0"/>
<g>
	<path fill="#898889" d="M8.6,0.26c2.386,0,4.326,2.029,4.326,4.523c0,2.512-1.94,4.556-4.326,4.556
		c-2.386,0-4.328-2.043-4.328-4.556C4.272,2.29,6.214,0.26,8.6,0.26 M8.6,0.01c-2.543,0-4.578,2.154-4.578,4.773
		c0,2.651,2.034,4.806,4.578,4.806c2.542,0,4.576-2.154,4.576-4.806C13.176,2.165,11.143,0.01,8.6,0.01L8.6,0.01z"/>
</g>
</svg>
