<?xml version="1.0" encoding="utf-8"?>
<!-- Generator: Adobe Illustrator 16.0.0, SVG Export Plug-In . SVG Version: 6.00 Build 0)  -->
<!DOCTYPE svg PUBLIC "-//W3C//DTD SVG 1.1//EN" "http://www.w3.org/Graphics/SVG/1.1/DTD/svg11.dtd">
<svg version="1.1" id="图层_1" xmlns="http://www.w3.org/2000/svg" xmlns:xlink="http://www.w3.org/1999/xlink" x="0px" y="0px"
	 width="211.631px" height="305.87px" viewBox="0 0 211.631 305.87" enable-background="new 0 0 211.631 305.87"
	 xml:space="preserve">
<g>
	<path fill-rule="evenodd" clip-rule="evenodd" fill="#FFF76F" d="M103.908,122.414c21.655,0,39.938,28.771,40.709,59.829
		c18.769,12.314,26.968,24.914,29.339,54.855c2.343,29.943-29.596,68.771-67.049,68.771c-37.481,0-67.849-31-67.849-69.256
		c0-21.771,9.856-41.201,25.254-53.887c0-0.771-0.028-1.514-0.028-2.285C64.284,148.385,82.282,122.414,103.908,122.414
		L103.908,122.414z"/>
	<path fill-rule="evenodd" clip-rule="evenodd" fill="#6A3E17" d="M102.108,125.156c1.543-8.743,4.342-17.8,9.084-25.543
		c1.571-0.057,2.657,0.657,3.628,1.714c-4.628,7.915-11.141,18.114-10.827,24.457L102.108,125.156z"/>
	<path fill-rule="evenodd" clip-rule="evenodd" d="M73.14,181.385c15.398,0,27.911,12.514,27.911,27.914
		c0,7.285-2.799,13.885-7.342,18.857c-6.457-4.086-14.112-6.486-22.312-6.486c-7.256,0-14.084,1.857-20.026,5.115
		c-3.857-4.771-6.142-10.857-6.142-17.486C45.229,193.899,57.713,181.385,73.14,181.385L73.14,181.385z"/>
	<path fill-rule="evenodd" clip-rule="evenodd" fill="#FEFEFE" d="M79.282,220.471c3.2,0,5.828-2.602,5.828-5.83
		c0-3.199-2.628-5.828-5.828-5.828s-5.828,2.629-5.828,5.828C73.455,217.87,76.083,220.471,79.282,220.471L79.282,220.471z"/>
	<path fill-rule="evenodd" clip-rule="evenodd" fill="#FEFEFE" d="M70.626,207.87c6.285,0,11.399-5.143,11.399-11.428
		c0-6.258-5.114-11.4-11.399-11.4c-6.285,0-11.398,5.143-11.398,11.4C59.228,202.727,64.341,207.87,70.626,207.87L70.626,207.87z"/>
	<path fill-rule="evenodd" clip-rule="evenodd" fill="#FEFEFE" d="M57.685,221.727c4.628,0,8.399-3.771,8.399-8.398
		c0-4.602-3.771-8.373-8.399-8.373c-4.6,0-8.371,3.771-8.371,8.373C49.314,217.956,53.085,221.727,57.685,221.727L57.685,221.727z"
		/>
	<path fill-rule="evenodd" clip-rule="evenodd" d="M140.218,181.385c15.427,0,27.911,12.514,27.911,27.914
		c0,7.285-2.771,13.885-7.313,18.857c-6.457-4.086-14.113-6.486-22.312-6.486c-7.257,0-14.084,1.857-20.026,5.115
		c-3.856-4.771-6.171-10.857-6.171-17.486C112.307,193.899,124.819,181.385,140.218,181.385L140.218,181.385z"/>
	<path fill-rule="evenodd" clip-rule="evenodd" fill="#FEFEFE" d="M132.047,220.471c3.2,0,5.828-2.602,5.828-5.83
		c0-3.199-2.628-5.828-5.828-5.828c-3.228,0-5.827,2.629-5.827,5.828C126.22,217.87,128.819,220.471,132.047,220.471
		L132.047,220.471z"/>
	<path fill-rule="evenodd" clip-rule="evenodd" fill="#FEFEFE" d="M140.703,207.87c6.257,0,11.398-5.143,11.398-11.428
		c0-6.258-5.142-11.4-11.398-11.4c-6.285,0-11.427,5.143-11.427,11.4C129.276,202.727,134.418,207.87,140.703,207.87L140.703,207.87
		z"/>
	<path fill-rule="evenodd" clip-rule="evenodd" fill="#FEFEFE" d="M153.616,221.727c4.628,0,8.398-3.771,8.398-8.398
		c0-4.602-3.771-8.373-8.398-8.373s-8.371,3.771-8.371,8.373C145.245,217.956,148.988,221.727,153.616,221.727L153.616,221.727z"/>
	<path fill-rule="evenodd" clip-rule="evenodd" fill="#FE7474" d="M88.824,251.299c12.341,6.113,23.168,5.086,35.11,0
		c-3.342,9-10.627,18.629-17.283,19.742C99.051,270.442,92.48,261.071,88.824,251.299L88.824,251.299z"/>
	<path fill-rule="evenodd" clip-rule="evenodd" fill="#FEFEFE" d="M114.363,254.499c0.857-0.199,2.4-0.6,3.515-0.941l0.057,4.484
		h-3.542L114.363,254.499z"/>
	<path fill-rule="evenodd" clip-rule="evenodd" fill="#FFCFCF" d="M149.874,237.098c13.255,0,24.082-1.457,24.082-3.199
		c0-1.771-10.827-3.199-24.082-3.199c-13.256,0-24.055,1.428-24.055,3.199C125.819,235.641,136.618,237.098,149.874,237.098
		L149.874,237.098z"/>
	<path fill-rule="evenodd" clip-rule="evenodd" fill="#FFCFCF" d="M63.798,237.098c13.255,0,24.083-1.457,24.083-3.199
		c0-1.771-10.828-3.199-24.083-3.199c-13.227,0-24.054,1.428-24.054,3.199C39.744,235.641,50.571,237.098,63.798,237.098
		L63.798,237.098z"/>
	<polygon fill-rule="evenodd" clip-rule="evenodd" fill="#FFF76F" points="166.7,223.7 182.241,205.157 188.298,210.213 
		172.728,228.756 	"/>
	<polygon fill-rule="evenodd" clip-rule="evenodd" fill="#FFF76F" points="46.429,223.7 30.888,205.157 24.86,210.213 
		40.401,228.756 	"/>
	<path fill-rule="evenodd" clip-rule="evenodd" fill="#FEFEFE" d="M26.289,190.928c0.857,0.686,1.686,1.514,3.171,1.457
		c1.285,0.4-1.086,1.027,0.229,0.828c3.114,0.057,3.285,2.857,2.028,5.514c-0.029,0.086-0.029,4.143,0.028,4.602
		c0.286,0.941,0.486,0.77,1.429,1.229c1.371,1.627,0.229,3.027-1.4,4.027c-0.429,0.629-4.771,3.201-6.742,3.658
		c-0.743,0.199-0.771,0.229-1.257-0.115c-1.029-0.715-1.171-1.428-1.114-2.314c0.114-1.027-0.829-1.6-1.714-1.371
		c0,0-0.657-0.371-1.914-1.057c-0.086,0-1.6-1.287-1.829-1.457c-1.885-2.771-3.457-9.059-3.171-10.658
		c-2.371-8.484,5.085-11.971,5.313-12.057C25.003,181.014,24.689,189.014,26.289,190.928L26.289,190.928z"/>
	<path fill-rule="evenodd" clip-rule="evenodd" fill="#F29C76" d="M27.203,225.184L27.203,225.184
		c1.399-0.143,2.428-1.428,2.314-2.828L7.862,2.299c-0.143-1.4-1.4-2.429-2.828-2.286l0,0c-1.4,0.114-2.428,1.4-2.285,2.8
		L24.375,222.87C24.518,224.27,25.774,225.299,27.203,225.184L27.203,225.184z"/>
	<path fill-rule="evenodd" clip-rule="evenodd" fill="#FEFEFE" d="M18.118,206.67c0.314-0.258,0.886,0.828,1.343,0.943
		c0,0,0-0.715,1.229-1.4c0.114-0.029,1.628-1.285,1.857-1.486c2-1.6,3.257-0.771,5.713-0.941c1.971-0.145,4.285-0.43,5.171-2.43
		c0.686-2.027-1.114-3.514-3-3.885c-1.914-0.373-2.8,0-4.628,0.342c-1.286,0.314-1.029-0.514-0.2-1.172
		c2.743-2.143,6.713-4.514,4.942-8.371c-1.743-3.828-5.599-1.914-7.485,0.715c-0.457,0.629-1.628,2.258-2.171,2.572
		c-1.686,0.514,1.171-3.287,1.371-5.4c0.171-1.686-0.057-3.43-1.857-4.143c-4.657-1.801-5.285,3.285-6.228,6.229L18.118,206.67z"/>
	<path fill-rule="evenodd" clip-rule="evenodd" fill="#FEFEFE" d="M185.354,190.928c-0.856,0.686-1.686,1.514-3.171,1.457
		c-1.285,0.4,1.086,1.027-0.229,0.828c-3.113,0.057-3.285,2.857-2.057,5.514c0.057,0.086,0.028,4.143,0,4.602
		c-0.314,0.941-0.485,0.77-1.429,1.229c-1.371,1.627-0.229,3.027,1.4,4.027c0.429,0.629,4.771,3.201,6.742,3.658
		c0.742,0.199,0.742,0.229,1.257-0.115c1.028-0.715,1.143-1.428,1.114-2.314c-0.114-1.027,0.828-1.6,1.686-1.371
		c0,0,0.686-0.371,1.914-1.057c0.114,0,1.628-1.287,1.856-1.457c1.886-2.771,3.428-9.059,3.171-10.658
		c2.371-8.484-5.085-11.971-5.313-12.057C186.641,181.014,186.955,189.014,185.354,190.928L185.354,190.928z"/>
	<path fill-rule="evenodd" clip-rule="evenodd" fill="#F29C76" d="M184.44,225.184L184.44,225.184
		c-1.399-0.143-2.457-1.428-2.313-2.828L203.781,2.299c0.143-1.4,1.399-2.429,2.8-2.286l0,0c1.428,0.114,2.457,1.4,2.313,2.8
		L187.24,222.87C187.126,224.27,185.841,225.299,184.44,225.184L184.44,225.184z"/>
	<path fill-rule="evenodd" clip-rule="evenodd" fill="#FEFEFE" d="M193.525,206.67c-0.314-0.258-0.886,0.828-1.343,0.943
		c0,0,0-0.715-1.257-1.4c-0.086-0.029-1.6-1.285-1.828-1.486c-2-1.6-3.257-0.771-5.714-0.941c-1.972-0.145-4.285-0.43-5.171-2.43
		c-0.686-2.027,1.114-3.514,3-3.885c1.914-0.373,2.799,0,4.628,0.342c1.285,0.314,1.028-0.514,0.2-1.172
		c-2.743-2.143-6.714-4.514-4.942-8.371c1.742-3.828,5.599-1.914,7.484,0.715c0.457,0.629,1.6,2.258,2.171,2.572
		c1.686,0.514-1.171-3.287-1.399-5.4c-0.172-1.686,0.086-3.43,1.886-4.143c4.656-1.801,5.285,3.285,6.228,6.229L193.525,206.67z"/>
	<path fill-rule="evenodd" clip-rule="evenodd" fill="#FA6253" d="M4.577,21.271c70.82,8.457,132.869,7.486,202.547,0l-6.828,68.972
		c-60.878-9.058-132.612-9.058-188.948,0C9.091,67.242,6.834,44.271,4.577,21.271L4.577,21.271z"/>
	<polygon fill-rule="evenodd" clip-rule="evenodd" fill="#F94535" points="4.577,21.271 9.719,21.271 16.519,90.242 11.348,90.242 	
		"/>
	<polygon fill-rule="evenodd" clip-rule="evenodd" fill="#F94535" points="207.038,21.271 201.867,21.271 195.068,90.242 
		200.268,90.242 	"/>
	<path fill="#FEFEFE" d="M45.629,35.442l0.428,3.743c-1.286,0-2.571,0.029-3.828,0.058c-0.2,0.686-0.4,1.314-0.571,1.971
		c1.886-0.029,3.771-0.057,5.628-0.057l0.429,3.771c-0.229,0-0.457,0-0.686,0c0.629,0.571,1.2,1.143,1.714,1.771l-2.771,2.743
		c-1.4-1.314-3.085-2.686-5.028-4.085l0.314-0.343c-3.714,0.114-7.256,0.286-10.656,0.543l1.542,1.429
		c-1.514,1.486-3.057,3-4.599,4.6l-2.971-2.743c1-1.057,1.971-2.057,2.914-3c-0.743,0.086-1.486,0.143-2.2,0.2l-0.429-3.743
		c1.485-0.172,3-0.286,4.485-0.429c-0.086-0.657-0.2-1.343-0.286-1.972c-0.972,0.057-1.914,0.143-2.857,0.229l-0.429-3.8
		c0.914-0.085,1.829-0.171,2.743-0.229c-0.143-0.829-0.257-1.657-0.372-2.429l4.399-0.486c0.114,0.857,0.257,1.714,0.4,2.629
		c1.914-0.114,3.828-0.2,5.742-0.286c0.257-0.857,0.543-1.686,0.829-2.486l4.399,1.028c-0.171,0.458-0.314,0.915-0.485,1.372
		C44.172,35.442,44.915,35.442,45.629,35.442L45.629,35.442z M33.802,41.556c1.028-0.057,2.057-0.114,3.114-0.171
		c0.2-0.686,0.4-1.372,0.571-2c-1.343,0.029-2.686,0.086-4,0.171C33.574,40.213,33.688,40.871,33.802,41.556L33.802,41.556z
		 M37.773,46.156c0.257,1.829,0.514,3.743,0.857,5.714l1.914-2c1.372,0.829,2.514,1.886,3.485,3.171l-2.171,2.143
		c-0.886-1-1.943-2.028-3.171-3.028c0.171,1.143,0.314,2.286,0.486,3.457l-4.485,0.486c-0.542-3.143-1.028-6.286-1.399-9.4
		L37.773,46.156z M30.717,50.185l2.657,2.429c-1.171,1.086-2.314,2.2-3.485,3.372l-2.771-2.457
		C28.346,52.299,29.545,51.185,30.717,50.185L30.717,50.185z M44.029,48.442c1.543,0.8,2.828,1.8,3.857,3.029l-2.143,2.171
		c-1.057-1-2.286-2.029-3.771-3.057L44.029,48.442z M54.028,33.185c2.914,0.086,5.799,0.172,8.627,0.286
		c0.085-0.343,0.171-0.686,0.286-1l4.285,0.371c-0.057,0.286-0.143,0.543-0.2,0.8c2.857,0.143,5.657,0.286,8.428,0.428l-0.2,2.886
		c-3-0.143-5.942-0.286-8.827-0.428c-0.029,0.286-0.057,0.6-0.057,0.914c2.143,0.114,4.285,0.286,6.399,0.457l-0.4,2.429
		c-5.113-0.372-10.227-0.686-15.37-0.914l0.4-2.458c1.571,0.057,3.085,0.143,4.599,0.229c0.029-0.314,0.057-0.6,0.086-0.885
		c-2.885-0.143-5.685-0.257-8.428-0.372L54.028,33.185z M57.085,45.813c-0.486-0.086-0.914-0.2-1.2-0.343
		c-0.886-0.458-1.314-1.171-1.314-2.143c0-0.943,0.572-1.914,1.714-2.914l2.342,0.542c2.229-0.457,4.428-0.714,6.571-0.714
		c3.428,0,5.742,0.229,6.971,0.628c1.428,0.372,2.143,1.286,2.143,2.771v0.4c0,0.8-0.457,1.343-1.343,1.6
		c-0.286,0.085-0.571,0.143-0.857,0.171c-0.114,0.2-0.2,0.4-0.286,0.6c1.028-0.029,2.057-0.029,3.085-0.029l0.343,2.943
		c-6.999,0-14.055,0.429-21.111,1.257l-0.314-2.972c0.943-0.114,1.914-0.229,2.914-0.371C56.828,46.785,56.942,46.299,57.085,45.813
		L57.085,45.813z M67.198,46.042H61.37c-0.114,0.314-0.171,0.571-0.257,0.829c1.943-0.143,3.914-0.257,5.914-0.343
		C67.083,46.385,67.141,46.213,67.198,46.042L67.198,46.042z M65.427,42.471c-2.2,0.057-4.428,0.371-6.628,0.914
		c0.029,0.086,0.057,0.171,0.114,0.2c0.143,0.143,0.314,0.229,0.429,0.229h8.085c1.085,0,1.885-0.029,2.399-0.086
		c0.257-0.085,0.4-0.286,0.4-0.628c0-0.2-0.257-0.343-0.771-0.457C68.883,42.528,67.541,42.471,65.427,42.471L65.427,42.471z
		 M56.514,50.585l1.571,0.343c2.428-0.486,4.828-0.743,7.228-0.743c3.457,0,5.799,0.229,7.028,0.686
		c1.457,0.372,2.171,1.343,2.171,2.886v0.4c0,0.943-0.457,1.543-1.428,1.886c-0.943,0.286-2.343,0.457-4.2,0.486h-8.599
		c-2.257,0-3.8-0.257-4.6-0.714c-0.886-0.514-1.314-1.314-1.314-2.457C54.371,52.442,55.085,51.528,56.514,50.585L56.514,50.585z
		 M65.513,52.613c-2.171,0.057-4.371,0.314-6.571,0.8c0.028,0.171,0.085,0.286,0.143,0.371c0.143,0.171,0.286,0.286,0.429,0.286
		h7.627c1.114,0,1.943-0.028,2.457-0.114c0.286-0.143,0.429-0.4,0.429-0.8c0-0.171-0.229-0.286-0.714-0.372
		C68.798,52.67,67.541,52.613,65.513,52.613L65.513,52.613z M82.51,49.242l3.771,1.343c-0.714,1.628-1.314,3.286-1.828,4.914
		l-3.828-1.343C81.339,52.299,81.968,50.642,82.51,49.242L82.51,49.242z M87.396,48.642l4.114,0.914
		c-0.686,1.057-1.057,1.886-1.057,2.571c0,0.229,0.086,0.429,0.2,0.543c0.114,0.171,0.343,0.257,0.657,0.257
		c0.572,0,1.429-0.086,2.6-0.257c-0.6-0.486-1.229-0.971-1.886-1.457l2.257-2.372c1.8,1,3.286,2.257,4.514,3.771l-2.371,2.372
		c-0.428-0.429-0.857-0.857-1.314-1.286l0.4,2.171c-1.857,0.343-3.399,0.543-4.628,0.543c-1.514,0-2.628-0.257-3.342-0.771
		c-0.743-0.515-1.171-1.229-1.257-2.114C86.281,51.642,86.653,50.013,87.396,48.642L87.396,48.642z M100.708,48.842
		c1.628,0.915,3,2.057,4.085,3.486l-2.628,2.657c-1.143-1.143-2.457-2.314-4-3.514L100.708,48.842z M97.337,39.613
		c0.172,1.486,0.343,3.029,0.486,4.629l1.971-2.058c1.8,0.657,3.314,1.486,4.514,2.458l-2.799,2.771
		c-1-0.657-2.171-1.343-3.542-2.057c0.114,0.886,0.2,1.743,0.286,2.628l-4.114,0.457c-0.314-2.8-0.628-5.6-0.886-8.4L97.337,39.613z
		 M90.452,42.185l2.571,2.458c-1,0.914-2.028,1.857-3.057,2.857l-2.686-2.343C88.396,44.042,89.453,43.07,90.452,42.185
		L90.452,42.185z M91.595,32.756l4.114,0.914c-0.2,0.314-0.4,0.629-0.572,0.943c0.943-0.057,1.857-0.114,2.714-0.114
		c1.771,0,3.199,0.343,4.313,0.972c1.2,0.743,1.8,1.686,1.8,2.857c0,0.972-0.4,2.057-1.229,3.229l-3.942-0.914
		c0.628-0.943,1-1.6,1.114-1.972c0-0.514-0.857-0.771-2.571-0.771c-0.885,0-2.2,0.114-3.942,0.314
		c-0.286,0.771-0.542,1.543-0.743,2.314l-4.142-0.915c0.2-0.628,0.4-1.229,0.628-1.829c-0.628,0.171-1.229,0.343-1.857,0.543
		c-0.4,2.857-0.6,5.857-0.686,8.972l-3.971-0.429c0-2.514,0.143-4.943,0.429-7.314c-0.286,0.086-0.571,0.2-0.857,0.286l-1.743-3.628
		c2.742-0.829,5.342-1.543,7.799-2.143l1.229,2.829C90.052,35.471,90.767,34.07,91.595,32.756L91.595,32.756z M124.334,33.956
		l-2.086,14.543l-4.285-0.571c0.4-3.2,0.972-8.114,1.8-14.714L124.334,33.956z M124.077,52.127l-1.343,3.486
		c-1.172-0.257-3.2-0.743-6.028-1.457l1.257-3.486C119.163,50.899,121.191,51.385,124.077,52.127L124.077,52.127z"/>
	<path fill="#FEFEFE" d="M89.795,65.013c2.799,0.171,5.485,0.429,8.056,0.743l-0.257,2.571c-0.857-0.057-1.686-0.143-2.514-0.229
		c0.257,0.486,0.458,1,0.657,1.514c0.486,1.086,0.743,2.714,0.743,4.915c0,1.371-0.286,2.4-0.828,3.028
		c-0.714,0.743-1.6,1.114-2.686,1.114c-0.914,0-1.657-0.085-2.229-0.257l-0.229-2.629c0.771,0.171,1.457,0.257,2,0.257
		c0.4,0,0.714-0.114,0.914-0.372c0.286-0.257,0.4-0.686,0.4-1.286c0-1.343-0.143-2.514-0.429-3.457
		c-0.428-1.171-0.971-2.257-1.571-3.171c-0.829-0.057-1.628-0.143-2.428-0.229L89.795,65.013z M85.653,68.242
		c0.829,0,1.542,0.229,2.114,0.743c0.542,0.628,0.828,1.343,0.828,2.2c0,0.229-0.114,0.543-0.314,0.915
		c-0.571,1.028-0.943,1.8-1.114,2.314c-0.171,0.428-0.257,0.714-0.257,0.857c0,0.257,0.143,0.4,0.429,0.4
		c1.028-0.229,1.8-0.486,2.286-0.771l0.428,2.4c-0.829,0.485-1.857,0.743-3.085,0.771c-1.686,0-2.514-0.971-2.514-2.857
		c0-0.2,0.057-0.514,0.2-0.971c0.286-0.743,0.771-1.657,1.4-2.743c0.057-0.114,0.086-0.2,0.086-0.257
		c0-0.429-0.286-0.629-0.886-0.629c-0.143,0-0.686,0.229-1.628,0.714l-0.257-2.4C84.282,68.471,85.024,68.242,85.653,68.242
		L85.653,68.242z M85.139,64.842c0.914,0.429,1.686,1,2.314,1.686l-1.571,1.571c-0.628-0.543-1.371-1.086-2.257-1.657L85.139,64.842
		z M105.222,64.299c0.286,0.943,0.715,1.8,1.257,2.6l-1.742,0.829c1.343-0.286,2.656-0.428,3.942-0.428c0.543,0,0.972,0,1.371,0.028
		l-1.229-0.429c0.543-1.028,1.028-1.943,1.457-2.686l2.429,0.8c-0.486,0.8-0.943,1.629-1.314,2.458
		c0.172,0.028,0.314,0.057,0.429,0.085c1.057,0.229,1.828,0.686,2.313,1.343c0.543,0.515,0.8,1.515,0.8,2.972v0.4
		c0,0.829-0.313,1.543-0.971,2.114c-0.743,0.771-2.429,1.171-5,1.229c0,0.086,0.029,0.2,0.029,0.314
		c1.371-0.057,2.742-0.086,4.171-0.086l0.171,2.143c-1.371,0-2.742,0.028-4.085,0.085c0.028,0.2,0.028,0.4,0.057,0.6l-2.828,0.343
		c-0.028-0.286-0.057-0.542-0.085-0.771c-1.486,0.085-2.972,0.2-4.457,0.371l-0.171-2.143c1.428-0.171,2.885-0.314,4.371-0.4
		c0-0.171-0.028-0.343-0.057-0.485c-1.457-0.029-2.686-0.229-3.628-0.572c-1.343-0.514-2.028-1.428-2.028-2.714
		c0-1.257,0.4-2.686,1.171-4.314l1.229,0.257c0.4-0.115,0.8-0.229,1.171-0.343c-0.514-0.771-0.915-1.628-1.229-2.571L105.222,64.299
		z M108.422,69.556c-0.058,0-0.114,0-0.172,0c0.058,0.429,0.114,0.829,0.143,1.229c0.543,0.029,1.058,0.057,1.543,0.086
		l-0.171,1.886c-0.4,0-0.771-0.029-1.144-0.057c0.029,0.2,0.058,0.4,0.086,0.6c0.629,0,1.2-0.029,1.657-0.086
		c0.514-0.057,0.971-0.2,1.285-0.429c0.258-0.143,0.4-0.428,0.429-0.857c0-1.086-0.285-1.771-0.886-2.086
		C110.821,69.642,109.907,69.556,108.422,69.556L108.422,69.556z M105.793,73.242c-0.028-0.229-0.057-0.486-0.085-0.714
		c-0.743-0.029-1.486-0.086-2.229-0.114c0.171,0.257,0.4,0.428,0.686,0.542C104.508,73.099,105.051,73.185,105.793,73.242
		L105.793,73.242z M105.508,70.642c-0.029-0.286-0.058-0.543-0.086-0.8c-0.657,0.171-1.314,0.343-1.942,0.572
		c-0.029,0.057-0.029,0.085-0.029,0.114C104.136,70.556,104.822,70.613,105.508,70.642L105.508,70.642z M122.877,68.928l0.229,2.429
		c-0.485,0-1,0.028-1.485,0.085c0.028,0.286,0.057,0.6,0.086,0.915c0.171-0.086,0.371-0.172,0.542-0.229l0.314,1.172l0.314-1.657
		c3.143,0.114,6.199,0.314,9.113,0.542l-0.172,2.286c-1.229-0.086-2.428-0.171-3.57-0.257c0,0.2,0,0.372,0,0.543
		c0.971-0.057,1.999-0.086,3.057-0.086l0.199,1.886c-1.057,0-2.113,0.029-3.142,0.114c0,0.086,0,0.171,0,0.257
		c1.085,0.2,2.143,0.4,3.199,0.6l-0.4,2.286c-2.171-0.429-4.342-0.829-6.484-1.171c-0.086,0.314-0.143,0.657-0.172,0.971
		l-2.313-0.486c0.2-1.657,0.571-3.229,1.028-4.714l2.371,0.485c-0.172,0.486-0.314,1-0.457,1.515
		c0.229,0.028,0.457,0.057,0.657,0.114c-0.028-0.886-0.058-1.714-0.114-2.486c-0.972-0.057-1.972-0.114-2.942-0.2l0.199,0.629
		c-0.343,0.171-0.686,0.343-1.028,0.514c0.058,0.829,0.144,1.686,0.2,2.543l-2.457,0.286c-0.057-0.714-0.114-1.4-0.171-2.029
		c-0.314,0.057-0.629,0.143-0.972,0.2l-0.628-2.429c0.485-0.114,0.971-0.229,1.428-0.343c-0.057-0.486-0.114-0.971-0.143-1.429
		c-0.343,0.057-0.686,0.114-1.028,0.2l-0.257-2.457c0.371-0.086,0.742-0.171,1.113-0.229c-0.057-0.657-0.114-1.286-0.143-1.915
		l2.457-0.229c0.028,0.6,0.086,1.2,0.143,1.829C121.905,68.928,122.392,68.928,122.877,68.928L122.877,68.928z M125.19,65.185
		l0.715,0.4c0.657-0.143,1.313-0.2,2-0.2c0.6,0,1.143,0.029,1.656,0.114c0.486,0.114,0.972,0.372,1.429,0.771
		c0.514,0.514,0.771,1.2,0.771,2.029v0.485c0,0.743-0.229,1.372-0.686,1.8c-0.686,0.743-1.601,1.114-2.8,1.114h-0.886
		c-1.171,0-2.086-0.2-2.8-0.629c-0.714-0.6-1.086-1.428-1.086-2.485C123.505,67.414,124.048,66.271,125.19,65.185L125.19,65.185z
		 M127.762,67.156c-0.543,0-1.171,0.171-1.856,0.514c-0.028,0.086-0.058,0.143-0.086,0.2c1,0.028,2,0.085,2.971,0.143l-0.114,1.458
		c-0.914-0.057-1.8-0.114-2.685-0.143c0.057,0.086,0.143,0.171,0.199,0.229c0.314,0.257,0.715,0.372,1.2,0.372h0.429
		c0.657,0,1.114-0.143,1.371-0.457c0.2-0.229,0.285-0.515,0.285-0.886c0-0.458-0.114-0.829-0.371-1.057
		C128.876,67.299,128.419,67.185,127.762,67.156L127.762,67.156z M142.589,65.156c0.229,0.6,0.543,1.2,0.914,1.771
		c1.714-0.114,3.371-0.2,4.999-0.229l0.258,2.543c-0.8,0-1.571,0-2.343,0.057c1.057,0.686,1.971,1.514,2.714,2.457l-1.771,1.743
		c-0.942-0.943-2.114-1.914-3.456-2.886l1.199-1.286c-2.143,0.114-4.257,0.314-6.342,0.6l1.229,0.743
		c-0.972,1.229-1.857,2.543-2.629,3.915l-2.199-1.515c0.714-1.114,1.457-2.114,2.199-2.971c-0.542,0.085-1.085,0.171-1.656,0.286
		l-0.258-2.543c1.715-0.257,3.429-0.485,5.086-0.657c-0.2-0.343-0.343-0.686-0.457-1.057L142.589,65.156z M144.16,71.813
		l2.257,1.457c-0.571,0.543-1.114,1.086-1.629,1.657c1.343,0.4,2.657,0.829,3.972,1.286l-0.743,2.543
		c-1.742-0.629-3.457-1.2-5.143-1.686c-0.742,0.915-1.457,1.829-2.113,2.743l-2.485-1.743c0.514-0.628,0.999-1.229,1.485-1.8
		c-0.629-0.143-1.257-0.286-1.886-0.429l0.743-2.457c1.057,0.229,2.113,0.457,3.113,0.714
		C142.531,73.271,143.36,72.528,144.16,71.813L144.16,71.813z M153.102,67.728c2.057,0.086,4.057,0.229,6.028,0.372
		c-0.258-1.057-0.4-1.886-0.429-2.457l2.343-0.257c0.143,0.857,0.371,1.829,0.686,2.915c0.771,0.085,1.542,0.143,2.285,0.229
		c-0.515-0.515-1.114-1-1.8-1.486l1.457-1.543c0.857,0.486,1.571,1.057,2.143,1.771l-1.285,1.286
		c0.371,0.029,0.714,0.057,1.028,0.086l-0.172,2.286c-0.971-0.057-1.914-0.143-2.856-0.229c0.2,0.628,0.457,1.286,0.742,1.914
		c0.286-0.314,0.571-0.628,0.857-0.914l1.686,1.628c-0.457,0.514-0.942,1.057-1.399,1.571c0.6,1.114,1.342,2.314,2.228,3.6
		l-2.342,1.2c-0.601-0.771-1.2-1.657-1.771-2.657c-0.571,0.657-1.172,1.343-1.743,2.028l-1.771-1.6
		c0.8-0.943,1.571-1.857,2.342-2.743c-0.571-1.371-1.113-2.771-1.571-4.257c-1.313-0.086-2.628-0.2-3.885-0.314
		c-0.143,0.6-0.257,1.229-0.371,1.829c0.313-0.029,0.6-0.029,0.914-0.029c0.914,0,1.6,0.2,2.057,0.572
		c0.485,0.457,0.743,1.114,0.771,2v0.628c0,1.086-0.257,2.114-0.743,3.086l-2.428-0.372c0.514-1.086,0.771-2,0.771-2.714
		c0-0.571-0.114-0.914-0.314-1.114c-0.2-0.143-0.485-0.2-0.8-0.2c-0.2,0.029-0.343,0.057-0.515,0.086
		c-0.2,1.543-0.343,3.143-0.399,4.771l-2.485-0.257c0.028-2.943,0.371-5.771,0.971-8.486c-0.2,0-0.399,0-0.628-0.028L153.102,67.728
		z M169.957,66.899c1.999,0.114,3.885,0.286,5.685,0.486l-0.2,2.229c0.286-0.085,0.629-0.143,1.029-0.2
		c0.343-0.057,0.686-0.114,1.028-0.171c0.428-1.257,0.856-2.458,1.285-3.6l2.856,0.628c-0.343,0.943-0.686,1.914-1.028,2.857
		c0.8,0.057,1.457,0.314,1.972,0.8c0.571,0.543,0.856,1.229,0.856,1.971v0.314c0,0.771-0.114,1.743-0.343,2.943
		c-0.313,1.257-0.628,2.257-0.971,3l-2.828-0.543c0.457-1.085,0.8-2.114,1.028-3.057c0.2-0.886,0.314-1.6,0.314-2.143
		c0-0.257-0.086-0.429-0.258-0.572c-0.171-0.114-0.371-0.171-0.6-0.2c-0.828,2.514-1.6,5.085-2.314,7.686l-2.828-0.628
		c0.229-0.829,0.457-1.657,0.686-2.457c-1.571,0.628-3.342,1.057-5.37,1.286l-0.686-2.543c0.457-0.086,0.914-0.2,1.371-0.286
		c0.028-1.714,0.2-3.372,0.429-5c-0.515-0.057-1.028-0.114-1.515-0.171L169.957,66.899z M175.356,76.127
		c0.428-1.457,0.856-2.857,1.285-4.2c-0.485,0.085-1,0.229-1.485,0.4l-0.828-2.343c-0.172,0-0.314,0-0.458-0.029
		c-0.199,1.343-0.313,2.686-0.399,4.086c0.399-0.114,0.771-0.229,1.171-0.343L175.356,76.127z"/>
</g>
</svg>
