<?xml version="1.0" encoding="utf-8"?>
<!-- Generator: Adobe Illustrator 18.1.1, SVG Export Plug-In . SVG Version: 6.00 Build 0)  -->
<svg version="1.1" id="图层_1" xmlns="http://www.w3.org/2000/svg" xmlns:xlink="http://www.w3.org/1999/xlink" x="0" y="0"
	 width="60px" height="150px" viewBox="0 0 60 150" enable-background="new 0 0 60 150" xml:space="preserve">
<g>
	<path fill="#FFFFFF" d="M30,59.2C13.9,59.2,0.8,46.1,0.8,30S13.9,0.8,30,0.8c16.1,0,29.2,13.1,29.2,29.2S46.1,59.2,30,59.2z"/>
	<path fill="#CCCCCC" d="M30,1.5c15.7,0,28.5,12.8,28.5,28.5S45.7,58.5,30,58.5S1.5,45.7,1.5,30S14.3,1.5,30,1.5 M30,0
		C13.4,0,0,13.4,0,30s13.4,30,30,30s30-13.4,30-30S46.6,0,30,0L30,0z"/>
</g>
<rect y="30" fill="#FFFFFF" width="60" height="120"/>
</svg>
