<?xml version="1.0" encoding="utf-8"?>
<svg version="1.1" xmlns="http://www.w3.org/2000/svg" xmlns:xlink="http://www.w3.org/1999/xlink" x="0px" y="0px"
	 width="40px" height="42px" viewBox="0 0 40 42" enable-background="new 0 0 40 42" xml:space="preserve">
<g>
	<path fill="#33CC66" d="M10,41.75c-5.38,0-9.75-5.27-9.75-11.75S4.62,18.25,10,18.25s9.75,5.27,9.75,11.75S15.38,41.75,10,41.75z"
		/>
	<path fill="#42B364" d="M10,18.5c5.24,0,9.5,5.16,9.5,11.5S15.24,41.5,10,41.5S0.5,36.34,0.5,30S4.76,18.5,10,18.5 M10,18
		C4.48,18,0,23.37,0,30s4.48,12,10,12s10-5.37,10-12S15.52,18,10,18L10,18z"/>
</g>
<g>
	<rect x="0.25" y="0.25" fill="#33CC66" width="19.5" height="29.5"/>
	<path fill="#42B364" d="M19.5,0.5v29h-19v-29H19.5 M20,0H0v30h20V0L20,0z"/>
</g>
<rect x="0.5" fill="#33CC66" width="19" height="30.2"/>
<g>
	<path fill="#BEFF97" d="M30,41.75c-5.38,0-9.75-5.27-9.75-11.75S24.62,18.25,30,18.25s9.75,5.27,9.75,11.75S35.38,41.75,30,41.75z"
		/>
	<path fill="#42B364" d="M30,18.5c5.24,0,9.5,5.16,9.5,11.5S35.24,41.5,30,41.5s-9.5-5.16-9.5-11.5S24.76,18.5,30,18.5 M30,18
		c-5.52,0-10,5.37-10,12s4.48,12,10,12s10-5.37,10-12S35.52,18,30,18L30,18z"/>
</g>
<g>
	<rect x="20.25" y="0.25" fill="#BEFF97" width="19.5" height="29.5"/>
	<path fill="#42B364" d="M39.5,0.5v29h-19v-29H39.5 M40,0H20v30h20V0L40,0z"/>
</g>
<rect x="20.5" fill="#BEFF97" width="19" height="30.2"/>
</svg>