<?xml version="1.0" encoding="utf-8"?>
<svg version="1.1" xmlns="http://www.w3.org/2000/svg" xmlns:xlink="http://www.w3.org/1999/xlink" x="0px" y="0px"
	 viewBox="0 0 40 42" enable-background="new 0 0 40 42" xml:space="preserve">
<g>
	<path fill="#33CC66" d="M10,41.8c-5.4,0-9.8-5.3-9.8-11.8S4.6,18.2,10,18.2s9.8,5.3,9.8,11.8S15.4,41.8,10,41.8z"/>
	<path fill="#42B364" d="M10,18.5c5.2,0,9.5,5.2,9.5,11.5S15.2,41.5,10,41.5S0.5,36.3,0.5,30S4.8,18.5,10,18.5 M10,18
		C4.5,18,0,23.4,0,30s4.5,12,10,12s10-5.4,10-12S15.5,18,10,18L10,18z"/>
</g>
<g>
	<rect x="0.2" y="0.2" fill="#33CC66" width="19.5" height="29.5"/>
	<path fill="#42B364" d="M19.5,0.5v29h-19v-29H19.5 M20,0H0v30h20V0L20,0z"/>
</g>
<rect x="0.5" fill="#33CC66" width="19" height="30.2"/>
<g>
	<path fill="#FFFFFF" d="M30,41.8c-5.4,0-9.8-5.3-9.8-11.8s4.4-11.8,9.8-11.8s9.8,5.3,9.8,11.8S35.4,41.8,30,41.8z"/>
	<path fill="#42B364" d="M30,18.5c5.2,0,9.5,5.2,9.5,11.5S35.2,41.5,30,41.5s-9.5-5.2-9.5-11.5S24.8,18.5,30,18.5 M30,18
		c-5.5,0-10,5.4-10,12s4.5,12,10,12s10-5.4,10-12S35.5,18,30,18L30,18z"/>
</g>
<g>
	<rect x="20.2" y="0.2" fill="#BEFF97" width="19.5" height="29.5"/>
	<path fill="#42B364" d="M39.5,0.5v29h-19v-29H39.5 M40,0H20v30h20V0L40,0z"/>
</g>
<rect x="20.5" fill="#FFFFFF" width="19" height="30.2"/>
</svg>