<?xml version="1.0" encoding="utf-8"?>
<svg version="1.1" xmlns="http://www.w3.org/2000/svg" xmlns:xlink="http://www.w3.org/1999/xlink" x="0" y="0"
	 width="40px" height="42px" viewBox="0 0 40 42" enable-background="new 0 0 40 42" xml:space="preserve">
<g>
	<path fill="#33CC66" d="M10,40.75c-5.38,0-9.75-5.27-9.75-11.75S4.62,17.25,10,17.25s9.75,5.27,9.75,11.75S15.38,40.75,10,40.75z"
		/>
	<path fill="#42B364" d="M10,17.5c5.24,0,9.5,5.16,9.5,11.5S15.24,40.5,10,40.5S0.5,35.34,0.5,29S4.76,17.5,10,17.5 M10,17
		C4.48,17,0,22.37,0,29s4.48,12,10,12s10-5.37,10-12S15.52,17,10,17L10,17z"/>
</g>
<g>
	<rect x="0.25" y="0.25" fill="#33CC66" width="19.5" height="28.5"/>
	<path fill="#42B364" d="M19.5,0.5v28h-19v-28H19.5 M20,0H0v29h20V0L20,0z"/>
</g>
<rect x="0.5" fill="#33CC66" width="19" height="29.2"/>
<g>
	<path fill="#BEFF97" d="M30,40.75c-5.38,0-9.75-5.27-9.75-11.75S24.62,17.25,30,17.25s9.75,5.27,9.75,11.75S35.38,40.75,30,40.75z"
		/>
	<path fill="#42B364" d="M30,17.5c5.24,0,9.5,5.16,9.5,11.5S35.24,40.5,30,40.5s-9.5-5.16-9.5-11.5S24.76,17.5,30,17.5 M30,17
		c-5.52,0-10,5.37-10,12s4.48,12,10,12s10-5.37,10-12S35.52,17,30,17L30,17z"/>
</g>
<g>
	<rect x="20.25" y="0.25" fill="#BEFF97" width="19.5" height="28.5"/>
	<path fill="#42B364" d="M39.5,0.5v28h-19v-28H39.5 M40,0H20v29h20V0L40,0z"/>
</g>
<rect x="20.5" fill="#BEFF97" width="19" height="29.2"/>
</svg>