<?xml version="1.0" encoding="utf-8"?>
<svg version="1.1" xmlns="http://www.w3.org/2000/svg" xmlns:xlink="http://www.w3.org/1999/xlink" x="0px" y="0px"
	 width="111.083px" height="60.717px" viewBox="0 0 111.083 60.717" enable-background="new 0 0 111.083 60.717"
	 xml:space="preserve">
<path fill="#FFFFFF" d="M108.513,33.501L13.786,60.579c-1.885,0.538-3.851-0.546-4.392-2.421L2.223,33.304
	c-0.542-1.876,0.548-3.832,2.432-4.371L99.381,1.854c1.884-0.538,3.851,0.546,4.392,2.421l7.172,24.854
	C111.485,31.006,110.397,32.962,108.513,33.501z"/>
<path fill="none" stroke="#FA6253" stroke-width="2" stroke-miterlimit="10" d="M106.694,32.075L14.087,58.548
	c-1.464,0.418-2.99-0.424-3.41-1.88L4.103,33.89c-0.42-1.456,0.426-2.977,1.889-3.395L98.6,4.023c1.463-0.419,2.99,0.423,3.41,1.879
	l6.573,22.779C109.003,30.138,108.157,31.657,106.694,32.075z"/>
<g>
	<path fill="#FA6253" d="M17.422,36.647c-0.241,0.082-1.402,0.467-3.481,1.155c-0.05-0.265-0.101-0.488-0.154-0.673
		c-0.042-0.146-0.129-0.38-0.262-0.7l1.055-0.222c0.515-0.107,2.747-0.726,6.695-1.854l-0.116-0.404
		c-0.09-0.266-0.224-0.612-0.399-1.039c0.494-0.088,0.802-0.149,0.925-0.185c0.157-0.058,0.451-0.168,0.884-0.332l0.313,1.501
		l5.899-1.706l1.869-0.653c0.053,0.369,0.101,0.626,0.144,0.773c0.047,0.12,0.132,0.319,0.254,0.604l-2.172,0.5l-1.34,0.344
		l-4.317,1.234l0.243,0.845l4.35-1.264l1.556-0.563c0.046,0.345,0.087,0.578,0.122,0.701c0.055,0.143,0.14,0.345,0.254,0.604
		c-0.384,0.057-0.711,0.123-0.98,0.201c-0.306,0.047-3.54,0.951-9.704,2.713c-0.378,0.121-1.349,0.446-2.915,0.973
		c-0.028-0.283-0.064-0.499-0.106-0.645c-0.042-0.147-0.124-0.363-0.245-0.646l0.827-0.176c0.749-0.176,2.488-0.652,5.219-1.434
		l-0.243-0.845L17.422,36.647z M16.271,41.311c-0.122-0.376-0.294-0.856-0.517-1.443c0.67-0.126,1.227-0.251,1.669-0.378
		l11.422-3.265c0.451-0.142,1.003-0.333,1.653-0.571c0.082,0.52,0.158,0.896,0.225,1.128l0.323,1.12
		c0.087,0.253,0.215,0.581,0.385,0.984c-0.723,0.127-1.306,0.253-1.749,0.38l-11.2,3.201c-0.509,0.173-1.108,0.377-1.8,0.614
		c-0.063-0.445-0.127-0.786-0.193-1.019L16.271,41.311z M18.243,50.428c0.569-0.241,1.213-0.571,1.932-0.989
		c0.699-0.438,1.331-0.878,1.896-1.317c0.169-0.155,0.341-0.297,0.518-0.426l-1.237,0.354c-0.525,0.163-1.097,0.353-1.713,0.568
		c-0.041-0.279-0.082-0.513-0.122-0.7l-0.835-2.962c-0.136-0.426-0.335-0.997-0.596-1.719c0.62-0.11,1.207-0.246,1.761-0.404
		l8.802-2.516c0.599-0.185,1.193-0.387,1.782-0.609c0.068,0.472,0.146,0.854,0.23,1.147l0.906,3.141
		c0.104,0.315,0.246,0.692,0.426,1.13c-0.231,0.026-0.428,0.063-0.588,0.109c-0.478,0.098-1.437,0.352-2.876,0.763l5.372-0.006
		c-0.346,0.51-0.602,1.033-0.766,1.571c-0.072-0.019-0.521-0.076-1.348-0.171c-0.714-0.075-1.393-0.119-2.036-0.135
		c-1.38-0.028-2.204-0.024-2.473,0.012c0.271-0.396,0.479-0.76,0.623-1.092l-4.374,1.25c0.367,0.159,0.777,0.313,1.233,0.463
		c-0.375,0.225-0.735,0.455-1.081,0.685l-1.212,0.785c-0.196,0.148-0.398,0.279-0.606,0.392c-0.045,0.026-0.072,0.047-0.081,0.063
		c-1.403,0.904-2.311,1.476-2.722,1.712c-0.504-0.36-1.002-0.635-1.496-0.824C17.786,50.598,18.013,50.507,18.243,50.428z
		 M20.872,40.711l-0.302-1.047l-2.897,0.828l0.303,1.047L20.872,40.711z M29.186,41.833l-0.196-0.68l-8.949,2.558l0.196,0.68
		L29.186,41.833z M29.588,43.229l-0.19-0.662l-8.949,2.558l0.191,0.662L29.588,43.229z M30.001,44.662L29.8,43.964l-8.948,2.558
		l0.201,0.698L30.001,44.662z M25.228,39.466l-0.303-1.047l-2.952,0.845l0.302,1.047L25.228,39.466z M29.452,38.259l-0.302-1.047
		l-2.823,0.807l0.303,1.047L29.452,38.259z"/>
	<path fill="#FA6253" d="M36.708,44.99c1.07-0.677,1.883-1.393,2.438-2.147c0.697-0.994,1.043-1.988,1.037-2.98
		c-0.016-0.605-0.063-1.115-0.143-1.529c-0.088-0.584-0.25-1.307-0.485-2.168l-2.048,0.585c-0.686,0.211-1.467,0.479-2.344,0.81
		c-0.079-0.414-0.141-0.695-0.184-0.842c-0.049-0.171-0.152-0.46-0.309-0.866c0.984-0.188,1.789-0.372,2.417-0.552l4.595-1.313
		l-1.447-5.014c-0.151-0.526-0.383-1.188-0.693-1.987c0.479-0.098,0.81-0.172,0.994-0.225c0.196-0.057,0.492-0.161,0.889-0.313
		c0.152,0.804,0.31,1.488,0.472,2.051l1.446,5.014l4.355-1.245c0.365-0.117,0.73-0.234,1.097-0.354
		c0.398-0.139,0.869-0.308,1.413-0.503c0.082,0.428,0.147,0.721,0.193,0.879c0.07,0.153,0.17,0.43,0.299,0.829
		c-1.021,0.2-1.883,0.398-2.584,0.6l-2.602,0.743l1.537,5.466c0.157,0.498,0.374,0.787,0.65,0.868
		c0.231,0.065,0.551,0.041,0.957-0.075l0.627-0.18c0.833-0.25,1.32-0.502,1.46-0.755c0.077-0.194,0.112-0.509,0.106-0.945
		c0.007-0.253-0.045-0.781-0.157-1.585c0.761,0.697,1.585,1.039,2.473,1.023c-0.106,0.692-0.197,1.209-0.272,1.549
		c-0.207,0.668-0.43,1.097-0.668,1.284c-0.172,0.142-0.585,0.325-1.238,0.553l-1.692,0.504c-0.96,0.274-1.579,0.412-1.858,0.411
		c-0.479,0.005-0.854-0.093-1.124-0.294c-0.305-0.271-0.544-0.707-0.717-1.307l-1.743-6.043l-2.621,0.749
		c0.327,1.365,0.534,2.359,0.622,2.984c0.094,0.742,0.096,1.37,0.005,1.887c-0.148,1.011-0.564,2.057-1.251,3.141
		c-0.507,0.781-1.105,1.568-1.795,2.363c-0.105,0.096-0.19,0.193-0.256,0.291c-0.462-0.358-0.808-0.585-1.034-0.678
		c-0.277-0.134-0.702-0.264-1.271-0.393C36.407,45.17,36.56,45.074,36.708,44.99z M34.945,30.783
		c0.334-0.228,0.556-0.383,0.664-0.468c0.122-0.088,0.228-0.185,0.316-0.289c0.22-0.209,0.355-0.36,0.408-0.455l3.195,3.321
		c-0.576,0.403-1.057,0.838-1.44,1.307c-0.543-0.773-0.97-1.354-1.281-1.741c-0.404-0.428-0.777-0.799-1.12-1.111
		C35.42,31.158,35.173,30.97,34.945,30.783z M43.89,31.805c0.08-0.182,0.161-0.364,0.242-0.546c0.473-0.943,0.843-2.27,1.109-3.976
		l0.078-0.559c0.665,0.274,1.29,0.433,1.876,0.478c-0.189,0.452-0.354,0.918-0.497,1.395c-0.124,0.354-0.325,1.087-0.603,2.2
		c-0.169,0.525-0.278,0.974-0.331,1.348C45.327,31.965,44.701,31.851,43.89,31.805z"/>
	<path fill="#FA6253" d="M56.804,37.796l0.408,1.274c-0.371,0.052-0.637,0.102-0.797,0.147c-0.193,0.068-0.438,0.166-0.734,0.29
		l-0.229-1.067l-3.062-10.676c-0.155-0.445-0.338-0.964-0.548-1.553c0.607-0.108,1.171-0.235,1.688-0.383l1.477-0.422
		c0.513-0.159,1.076-0.354,1.689-0.582c0.046,0.344,0.107,0.651,0.186,0.92c0.034,0.256,0.829,3.084,2.387,8.482
		c0.119,0.364,0.418,1.239,0.898,2.626c-0.396,0.06-0.667,0.111-0.814,0.153c-0.205,0.072-0.476,0.176-0.809,0.311
		c-0.08-0.414-0.217-0.957-0.412-1.631l-1.789,0.512L56.804,37.796z M57.756,34.382l-2.221-7.694l-1.79,0.512l2.221,7.694
		L57.756,34.382z M63.97,37.019c0.032,0.11,0.066,0.3,0.104,0.566c0.023,0.219-0.041,0.438-0.191,0.652
		c-0.212,0.232-0.629,0.518-1.251,0.854L61.6,39.604c-0.148-0.422-0.29-0.731-0.428-0.931c-0.114-0.166-0.384-0.428-0.806-0.783
		c0.494-0.089,0.926-0.186,1.295-0.291c0.442-0.127,0.674-0.292,0.695-0.497c0.017-0.124-0.014-0.322-0.091-0.59l-1.182-4.096
		c-0.518,0.466-0.79,0.723-0.816,0.77c-0.111,0.125-0.188,0.2-0.234,0.227c-0.048,0.066-0.087,0.111-0.121,0.135
		c-0.285-0.436-0.618-0.897-0.999-1.385l1.778-1.105l-1.033-3.58l-0.295,0.084c-0.415,0.131-0.861,0.293-1.339,0.481
		c-0.063-0.354-0.116-0.608-0.162-0.769c-0.046-0.158-0.137-0.404-0.272-0.737c0.522-0.083,0.985-0.183,1.392-0.299l0.295-0.085
		L58.8,24.501c-0.231-0.755-0.478-1.493-0.738-2.213c0.493-0.089,0.777-0.144,0.852-0.164c0.144-0.056,0.401-0.155,0.771-0.301
		c0.147,0.74,0.328,1.483,0.544,2.23l0.487,1.688c0.488-0.151,0.99-0.328,1.506-0.529c0.051,0.317,0.104,0.573,0.161,0.77
		c0.069,0.192,0.166,0.436,0.291,0.731c-0.608,0.107-1.133,0.226-1.576,0.352l0.854,2.956l1.104-1.09l0.161,0.629
		c0.065,0.182,0.193,0.462,0.384,0.845c-0.392,0.258-0.702,0.499-0.93,0.724c-0.175,0.183-0.28,0.278-0.316,0.288L63.97,37.019z
		 M64.759,25.7c-0.608,0.201-1.258,0.42-1.948,0.656c-0.065-0.365-0.121-0.627-0.167-0.787c-0.046-0.158-0.143-0.423-0.288-0.792
		c0.706-0.136,1.373-0.294,2-0.473l2.603-0.744c0.611-0.188,1.267-0.408,1.966-0.661c0.063,0.354,0.12,0.622,0.173,0.806
		c0.081,0.189,0.175,0.447,0.283,0.773c-0.793,0.161-1.467,0.319-2.02,0.478L64.759,25.7z M63.175,21.044
		c0.33-0.147,0.639-0.301,0.926-0.464c0.456-0.263,0.703-0.398,0.74-0.409l1.438,2.629c-0.186,0.095-0.353,0.162-0.5,0.204
		c-0.31,0.127-0.683,0.334-1.12,0.618c-0.097-0.197-0.181-0.392-0.249-0.585c-0.024-0.086-0.15-0.315-0.377-0.687
		c-0.205-0.34-0.388-0.625-0.548-0.857L63.175,21.044z M63.351,27.675c0.391-0.126,0.865-0.348,1.426-0.667l2.717,6.579
		c-0.17,0.008-0.299,0.025-0.385,0.051c-0.15,0.029-0.561,0.199-1.23,0.51c-0.063-0.221-0.117-0.43-0.162-0.629l-0.781-2.361
		c-0.054-0.143-0.381-0.905-0.979-2.285C63.746,28.469,63.544,28.068,63.351,27.675z M66.842,37.072
		c-0.646,0.211-1.337,0.442-2.077,0.693c-0.05-0.356-0.098-0.615-0.144-0.773c-0.059-0.155-0.159-0.412-0.302-0.769
		c0.797-0.148,1.508-0.313,2.136-0.491l1.938-0.554c-0.155-1.784-0.294-3.163-0.414-4.137c-0.019-0.153-0.037-0.287-0.057-0.4
		l-0.84-4.711c0.391,0.062,0.728,0.078,1.013,0.049c0.183-0.013,0.445-0.048,0.788-0.106c0.061,0.58,0.136,1.162,0.225,1.746
		l0.729,7.165l0.276-0.078c0.305-0.1,1.091-0.372,2.362-0.814c0.084,0.479,0.232,0.994,0.445,1.542
		c-0.719,0.14-1.418,0.306-2.094,0.499L66.842,37.072z"/>
	<path fill="#FA6253" d="M74.822,18.073l2.794,10.652l-1.55,0.443l-3.182-10.542L74.822,18.073z M78.676,30.668l0.652,2.259
		l-2.27,0.648l-0.652-2.259L78.676,30.668z"/>
	<path fill="#FA6253" d="M84.27,15.372l2.794,10.653l-1.55,0.442l-3.182-10.542L84.27,15.372z M88.123,27.968l0.652,2.259
		l-2.27,0.648l-0.652-2.259L88.123,27.968z"/>
	<path fill="#FA6253" d="M93.717,12.672l2.794,10.653l-1.55,0.442l-3.182-10.542L93.717,12.672z M97.57,25.267l0.652,2.26
		l-2.27,0.648l-0.652-2.259L97.57,25.267z"/>
</g>
</svg>
